<?xml version="1.0" encoding="UTF-8"?>
<svg xmlns="http://www.w3.org/2000/svg" xmlns:xlink="http://www.w3.org/1999/xlink" width="810pt" height="809.999993pt" viewBox="0 0 810 809.999993" version="1.2">
<g id="surface1">
<path style=" stroke:none;fill-rule:nonzero;fill:rgb(0%,76.858521%,79.998779%);fill-opacity:1;" d="M 810 405 C 810 411.628906 809.835938 418.253906 809.511719 424.871094 C 809.1875 431.492188 808.699219 438.101562 808.050781 444.695312 C 807.398438 451.292969 806.589844 457.871094 805.617188 464.425781 C 804.644531 470.980469 803.511719 477.511719 802.21875 484.011719 C 800.925781 490.511719 799.472656 496.976562 797.863281 503.40625 C 796.253906 509.835938 794.484375 516.222656 792.5625 522.566406 C 790.636719 528.90625 788.558594 535.199219 786.324219 541.441406 C 784.09375 547.679688 781.707031 553.863281 779.171875 559.988281 C 776.632812 566.109375 773.949219 572.167969 771.117188 578.160156 C 768.28125 584.152344 765.300781 590.070312 762.179688 595.914062 C 759.054688 601.761719 755.789062 607.527344 752.378906 613.210938 C 748.972656 618.898438 745.425781 624.496094 741.746094 630.007812 C 738.0625 635.515625 734.246094 640.933594 730.300781 646.257812 C 726.351562 651.582031 722.273438 656.804688 718.070312 661.929688 C 713.863281 667.054688 709.535156 672.070312 705.085938 676.980469 C 700.632812 681.890625 696.066406 686.691406 691.378906 691.378906 C 686.691406 696.066406 681.890625 700.632812 676.980469 705.085938 C 672.070312 709.535156 667.054688 713.863281 661.929688 718.070312 C 656.804688 722.273438 651.582031 726.351562 646.257812 730.300781 C 640.933594 734.246094 635.515625 738.0625 630.003906 741.746094 C 624.496094 745.425781 618.898438 748.972656 613.210938 752.378906 C 607.527344 755.789062 601.761719 759.054688 595.914062 762.179688 C 590.070312 765.300781 584.152344 768.28125 578.160156 771.117188 C 572.167969 773.949219 566.109375 776.632812 559.988281 779.171875 C 553.863281 781.707031 547.679688 784.09375 541.441406 786.324219 C 535.199219 788.558594 528.90625 790.636719 522.566406 792.5625 C 516.222656 794.484375 509.835938 796.253906 503.40625 797.863281 C 496.976562 799.472656 490.511719 800.925781 484.011719 802.21875 C 477.511719 803.511719 470.980469 804.644531 464.425781 805.617188 C 457.871094 806.589844 451.292969 807.398438 444.695312 808.050781 C 438.101562 808.699219 431.492188 809.1875 424.871094 809.511719 C 418.253906 809.835938 411.628906 810 405 810 C 398.371094 810 391.746094 809.835938 385.128906 809.511719 C 378.507812 809.1875 371.898438 808.699219 365.304688 808.050781 C 358.707031 807.398438 352.128906 806.589844 345.574219 805.617188 C 339.019531 804.644531 332.488281 803.511719 325.988281 802.21875 C 319.488281 800.925781 313.023438 799.472656 306.59375 797.863281 C 300.164062 796.253906 293.777344 794.484375 287.433594 792.5625 C 281.09375 790.636719 274.800781 788.558594 268.558594 786.324219 C 262.320312 784.09375 256.136719 781.707031 250.011719 779.171875 C 243.890625 776.632812 237.832031 773.949219 231.839844 771.117188 C 225.847656 768.28125 219.929688 765.300781 214.085938 762.179688 C 208.238281 759.054688 202.472656 755.789062 196.789062 752.378906 C 191.101562 748.972656 185.503906 745.425781 179.992188 741.746094 C 174.484375 738.0625 169.066406 734.246094 163.742188 730.300781 C 158.417969 726.351562 153.195312 722.273438 148.070312 718.070312 C 142.945312 713.863281 137.929688 709.535156 133.019531 705.085938 C 128.109375 700.632812 123.308594 696.066406 118.621094 691.378906 C 113.933594 686.691406 109.367188 681.890625 104.914062 676.980469 C 100.464844 672.070312 96.136719 667.054688 91.929688 661.929688 C 87.726562 656.804688 83.648438 651.582031 79.699219 646.257812 C 75.753906 640.933594 71.9375 635.515625 68.253906 630.007812 C 64.574219 624.496094 61.027344 618.898438 57.621094 613.210938 C 54.210938 607.527344 50.945312 601.761719 47.820312 595.914062 C 44.699219 590.070312 41.71875 584.152344 38.882812 578.160156 C 36.050781 572.167969 33.367188 566.109375 30.828125 559.988281 C 28.292969 553.863281 25.90625 547.679688 23.675781 541.441406 C 21.441406 535.199219 19.363281 528.90625 17.4375 522.566406 C 15.515625 516.222656 13.746094 509.835938 12.136719 503.40625 C 10.527344 496.976562 9.074219 490.511719 7.78125 484.011719 C 6.488281 477.511719 5.355469 470.980469 4.382812 464.425781 C 3.410156 457.871094 2.601562 451.292969 1.949219 444.695312 C 1.300781 438.101562 0.8125 431.492188 0.488281 424.871094 C 0.164062 418.253906 0 411.628906 0 405 C 0 398.371094 0.164062 391.746094 0.488281 385.128906 C 0.8125 378.507812 1.300781 371.898438 1.949219 365.304688 C 2.601562 358.707031 3.410156 352.128906 4.382812 345.574219 C 5.355469 339.019531 6.488281 332.488281 7.78125 325.988281 C 9.074219 319.488281 10.527344 313.023438 12.136719 306.59375 C 13.746094 300.164062 15.515625 293.777344 17.4375 287.433594 C 19.363281 281.09375 21.441406 274.800781 23.675781 268.558594 C 25.90625 262.320312 28.292969 256.136719 30.828125 250.011719 C 33.367188 243.890625 36.050781 237.832031 38.882812 231.839844 C 41.71875 225.847656 44.699219 219.929688 47.820312 214.085938 C 50.945312 208.238281 54.210938 202.472656 57.621094 196.789062 C 61.027344 191.101562 64.574219 185.503906 68.253906 179.992188 C 71.9375 174.484375 75.753906 169.066406 79.699219 163.742188 C 83.648438 158.417969 87.726562 153.195312 91.929688 148.070312 C 96.136719 142.945312 100.464844 137.929688 104.914062 133.019531 C 109.367188 128.109375 113.933594 123.308594 118.621094 118.621094 C 123.308594 113.933594 128.109375 109.367188 133.019531 104.914062 C 137.929688 100.464844 142.945312 96.136719 148.070312 91.929688 C 153.195312 87.726562 158.417969 83.648438 163.742188 79.699219 C 169.066406 75.753906 174.484375 71.9375 179.992188 68.253906 C 185.503906 64.574219 191.101562 61.027344 196.789062 57.621094 C 202.472656 54.210938 208.238281 50.945312 214.085938 47.820312 C 219.929688 44.699219 225.847656 41.71875 231.839844 38.882812 C 237.832031 36.050781 243.890625 33.367188 250.011719 30.828125 C 256.136719 28.292969 262.320312 25.90625 268.558594 23.675781 C 274.800781 21.441406 281.09375 19.363281 287.433594 17.4375 C 293.777344 15.515625 300.164062 13.746094 306.59375 12.136719 C 313.023438 10.527344 319.488281 9.074219 325.988281 7.78125 C 332.488281 6.488281 339.019531 5.355469 345.574219 4.382812 C 352.128906 3.410156 358.707031 2.601562 365.304688 1.949219 C 371.898438 1.300781 378.507812 0.8125 385.128906 0.488281 C 391.746094 0.164062 398.371094 0 405 0 C 411.628906 0 418.253906 0.164062 424.871094 0.488281 C 431.492188 0.8125 438.101562 1.300781 444.695312 1.949219 C 451.292969 2.601562 457.871094 3.410156 464.425781 4.382812 C 470.980469 5.355469 477.511719 6.488281 484.011719 7.78125 C 490.511719 9.074219 496.976562 10.527344 503.40625 12.136719 C 509.835938 13.746094 516.222656 15.515625 522.566406 17.4375 C 528.90625 19.363281 535.199219 21.441406 541.441406 23.675781 C 547.679688 25.90625 553.863281 28.292969 559.988281 30.828125 C 566.109375 33.367188 572.167969 36.050781 578.160156 38.882812 C 584.152344 41.71875 590.070312 44.699219 595.914062 47.820312 C 601.761719 50.945312 607.527344 54.210938 613.210938 57.621094 C 618.898438 61.027344 624.496094 64.574219 630.003906 68.253906 C 635.515625 71.9375 640.933594 75.753906 646.257812 79.699219 C 651.582031 83.648438 656.804688 87.726562 661.929688 91.929688 C 667.054688 96.136719 672.070312 100.464844 676.980469 104.914062 C 681.890625 109.367188 686.691406 113.933594 691.378906 118.621094 C 696.066406 123.308594 700.632812 128.109375 705.085938 133.019531 C 709.535156 137.929688 713.863281 142.945312 718.070312 148.070312 C 722.273438 153.195312 726.351562 158.417969 730.300781 163.742188 C 734.246094 169.066406 738.0625 174.484375 741.746094 179.992188 C 745.425781 185.503906 748.972656 191.101562 752.378906 196.789062 C 755.789062 202.472656 759.054688 208.238281 762.179688 214.085938 C 765.300781 219.929688 768.28125 225.847656 771.117188 231.839844 C 773.949219 237.832031 776.632812 243.890625 779.171875 250.011719 C 781.707031 256.136719 784.09375 262.320312 786.324219 268.558594 C 788.558594 274.800781 790.636719 281.09375 792.5625 287.433594 C 794.484375 293.777344 796.253906 300.164062 797.863281 306.59375 C 799.472656 313.023438 800.925781 319.488281 802.21875 325.988281 C 803.511719 332.488281 804.644531 339.019531 805.617188 345.574219 C 806.589844 352.128906 807.398438 358.707031 808.050781 365.304688 C 808.699219 371.898438 809.1875 378.507812 809.511719 385.128906 C 809.835938 391.746094 810 398.371094 810 405 Z M 810 405 "/>
<path style=" stroke:none;fill-rule:nonzero;fill:rgb(100%,100%,100%);fill-opacity:1;" d="M 277.105469 450.472656 C 267.15625 463.738281 254.367188 477.949219 237.316406 488.84375 C 220.738281 499.261719 201.789062 507.789062 179.527344 507.789062 C 159.15625 507.789062 141.632812 496.894531 132.15625 487.894531 C 117.949219 474.632812 110.367188 454.738281 108 436.738281 C 100.894531 379.894531 135.949219 305.050781 189.949219 272.367188 C 202.261719 264.789062 216 261 228.789062 261 C 254.84375 261 274.261719 279.472656 276.632812 301.738281 C 279 321.632812 270.949219 338.683594 249.15625 350.050781 C 237.789062 355.738281 232.105469 355.261719 230.683594 352.894531 C 229.738281 351 230.210938 348.15625 232.578125 346.261719 C 253.421875 328.738281 253.894531 314.527344 251.527344 294.632812 C 250.105469 281.84375 241.578125 273.316406 232.105469 273.316406 C 191.367188 273.316406 132.632812 364.738281 140.683594 431.050781 C 144 457.105469 159.632812 486.949219 192.789062 486.949219 C 203.683594 486.949219 215.050781 484.105469 225.472656 478.894531 C 248.210938 467.527344 258.632812 459 272.367188 440.050781 C 274.261719 437.683594 275.683594 434.84375 278.050781 432 C 279.472656 429.632812 281.367188 429.15625 283.261719 429.15625 C 285.15625 429.15625 287.050781 431.050781 287.527344 433.421875 C 288 435.316406 287.050781 438.632812 284.683594 441.472656 C 281.367188 444.789062 279.472656 447.632812 277.105469 450.472656 Z M 277.105469 450.472656 "/>
<path style=" stroke:none;fill-rule:nonzero;fill:rgb(100%,100%,100%);fill-opacity:1;" d="M 339.15625 483.632812 C 328.738281 483.632812 323.050781 477.949219 321.15625 469.894531 C 314.527344 478.894531 305.527344 483.632812 296.050781 483.632812 C 280.421875 483.632812 265.261719 470.367188 263.367188 452.367188 C 259.578125 421.105469 286.105469 381.316406 326.367188 381.316406 C 343.421875 381.316406 357.632812 387.949219 359.050781 401.683594 C 360.949219 418.738281 346.738281 422.050781 341.050781 422.050781 C 336.316406 422.050781 328.738281 420.632812 328.261719 416.367188 C 327.789062 411.632812 338.683594 414.472656 337.261719 403.578125 C 336.316406 396.949219 329.210938 394.578125 322.578125 394.578125 C 297.949219 394.578125 284.683594 428.683594 287.050781 450 C 288 459.472656 293.210938 468.949219 302.210938 468.949219 C 309.316406 468.949219 319.738281 458.527344 323.527344 443.84375 C 325.894531 433.421875 335.84375 426.789062 342.949219 426.789062 C 346.738281 426.789062 349.105469 428.683594 349.578125 432.472656 C 349.578125 433.894531 349.578125 435.316406 349.105469 437.683594 C 348.15625 441.949219 344.84375 457.105469 344.84375 459.949219 C 344.84375 462.789062 346.738281 466.105469 351 466.105469 C 356.210938 466.105469 380.367188 451.894531 394.105469 432.949219 C 395.050781 431.050781 397.421875 430.105469 399.789062 430.105469 C 401.683594 430.105469 403.578125 431.050781 404.050781 433.421875 C 404.527344 435.789062 403.578125 439.105469 400.261719 442.894531 C 384.632812 464.683594 351 483.632812 339.15625 483.632812 Z M 339.15625 483.632812 "/>
<path style=" stroke:none;fill-rule:nonzero;fill:rgb(100%,100%,100%);fill-opacity:1;" d="M 677.84375 472.261719 C 679.261719 482.210938 683.527344 488.84375 687.789062 492.15625 C 689.210938 493.578125 690.15625 495 690.15625 496.421875 C 690.632812 499.261719 688.261719 501.632812 684.949219 501.632812 C 684 501.632812 682.578125 501.632812 681.632812 501.15625 C 664.105469 494.050781 657 482.210938 654.632812 470.84375 C 648 479.367188 639 484.105469 629.527344 484.105469 C 613.894531 484.105469 598.738281 470.367188 596.367188 452.84375 C 592.578125 422.050781 620.527344 381.789062 659.84375 381.789062 C 676.421875 381.789062 691.105469 388.421875 692.527344 401.683594 C 694.894531 419.210938 679.738281 422.527344 674.527344 422.527344 C 669.316406 422.527344 661.738281 421.105469 661.261719 416.84375 C 660.789062 412.578125 671.683594 414.949219 670.738281 404.050781 C 669.789062 397.421875 662.683594 394.578125 656.050781 394.578125 C 633.316406 394.578125 617.683594 424.894531 620.527344 449.527344 C 621.949219 459.472656 626.210938 468.949219 635.210938 468.949219 C 642.316406 468.949219 653.210938 458.527344 657 443.84375 C 659.367188 433.894531 669.316406 426.789062 676.421875 426.789062 C 679.738281 426.789062 682.578125 428.683594 683.050781 432.472656 C 683.527344 434.367188 682.578125 439.105469 678.789062 455.210938 C 677.367188 461.84375 677.367188 467.527344 677.84375 472.261719 Z M 677.84375 472.261719 "/>
<path style=" stroke:none;fill-rule:nonzero;fill:rgb(100%,100%,100%);fill-opacity:1;" d="M 465.632812 466.105469 C 471.316406 466.105469 488.84375 459.472656 503.050781 440.050781 C 504.472656 438.15625 506.367188 437.210938 508.738281 437.210938 C 511.105469 437.210938 513 438.15625 513.472656 441 C 513.949219 442.894531 512.527344 446.210938 509.683594 450 C 493.578125 472.261719 466.578125 483.632812 454.738281 483.632812 C 442.421875 483.632812 435.789062 476.050781 434.367188 464.683594 C 433.894531 460.894531 433.894531 456.632812 434.84375 451.894531 C 439.105469 426.789062 448.105469 411.15625 447.632812 406.421875 C 447.632812 405 446.683594 404.527344 445.738281 404.527344 C 437.683594 404.527344 410.210938 432.949219 405.949219 451.421875 L 402.632812 466.578125 C 400.738281 477 390.316406 484.105469 382.738281 484.105469 C 379.421875 484.105469 376.578125 482.210938 376.105469 478.421875 C 376.105469 477 376.105469 475.578125 376.578125 473.210938 C 376.578125 473.210938 390.316406 403.105469 390.789062 399.789062 C 392.210938 391.738281 395.050781 383.210938 412.105469 383.210938 C 415.421875 383.210938 418.261719 385.105469 418.738281 388.894531 C 418.738281 390.316406 418.738281 391.738281 418.261719 394.105469 L 413.527344 414.949219 C 428.210938 395.527344 450.949219 381.316406 464.683594 381.316406 C 470.367188 381.316406 475.105469 384.15625 475.578125 390.316406 C 476.050781 393.632812 475.105469 399.316406 472.738281 405.949219 C 468 419.210938 462.316406 439.105469 459 456.632812 C 457.578125 460.421875 459 466.105469 465.632812 466.105469 Z M 465.632812 466.105469 "/>
<path style=" stroke:none;fill-rule:nonzero;fill:rgb(100%,100%,100%);fill-opacity:1;" d="M 579.789062 435.789062 C 577.894531 435.789062 576 435.789062 574.105469 435.316406 C 558.949219 457.578125 542.84375 472.738281 530.527344 479.84375 C 525.316406 482.683594 520.578125 484.105469 517.261719 484.105469 C 514.421875 484.105469 511.578125 483.632812 510.15625 481.261719 C 504.472656 472.261719 502.105469 453.316406 502.105469 433.894531 C 502.105469 419.683594 503.050781 407.84375 505.894531 399.316406 C 508.738281 390.316406 520.105469 381.789062 527.210938 381.789062 C 531 381.789062 533.84375 383.683594 533.84375 387.949219 C 533.84375 389.367188 533.367188 390.789062 532.894531 392.683594 C 527.683594 407.84375 524.84375 421.578125 524.84375 435.789062 C 524.84375 443.84375 526.738281 456.15625 528.15625 462.789062 C 528.632812 464.210938 528.632812 465.632812 530.050781 465.632812 C 532.421875 465.632812 548.527344 450 559.894531 431.050781 C 549.472656 424.421875 543.789062 412.578125 543.789062 397.894531 C 543.789062 373.261719 558.472656 360.949219 572.683594 360.949219 C 584.050781 360.949219 594 369 594 385.578125 C 594 396 589.738281 407.367188 584.050781 418.738281 C 584.050781 418.738281 586.421875 419.210938 587.367188 419.210938 C 596.367188 419.210938 603 414.949219 606.789062 410.683594 C 609.632812 407.84375 612 405.472656 614.367188 405.472656 C 616.261719 405.472656 616.738281 406.894531 616.738281 408.316406 C 616.738281 409.261719 616.261719 411.15625 615.316406 412.578125 C 607.738281 426.316406 592.105469 435.789062 579.789062 435.789062 Z M 558.949219 384.632812 C 558.949219 394.105469 563.683594 404.050781 569.84375 410.683594 C 572.210938 404.050781 573.632812 397.894531 573.632812 391.261719 C 573.632812 378.949219 568.894531 373.738281 565.105469 373.738281 C 560.367188 373.261719 558.949219 379.421875 558.949219 384.632812 Z M 558.949219 384.632812 "/>
</g>
</svg>
