<?xml version="1.0" encoding="UTF-8"?>
<svg xmlns="http://www.w3.org/2000/svg" xmlns:xlink="http://www.w3.org/1999/xlink" width="810pt" height="809.999993pt" viewBox="0 0 810 809.999993" version="1.2">
<defs>
<clipPath id="clip1">
  <path d="M 118 159 L 692.316406 159 L 692.316406 810 L 118 810 Z M 118 159 "/>
</clipPath>
</defs>
<g id="surface1">
<g clip-path="url(#clip1)" clip-rule="nonzero">
<path style=" stroke:none;fill-rule:nonzero;fill:rgb(14.898682%,30.198669%,89.408875%);fill-opacity:1;" d="M 404.890625 809.976562 L 170.4375 744.925781 L 118.191406 159.1875 L 692.289062 159.179688 L 640.007812 744.828125 L 404.902344 809.96875 Z M 404.890625 809.976562 "/>
</g>
<path style=" stroke:none;fill-rule:nonzero;fill:rgb(16.079712%,39.608765%,94.509888%);fill-opacity:1;" d="M 595.234375 707.539062 L 639.929688 207.078125 L 405.25 207.070312 L 405.25 760.167969 L 595.234375 707.535156 Z M 595.234375 707.539062 "/>
<path style=" stroke:none;fill-rule:nonzero;fill:rgb(92.158508%,92.158508%,92.158508%);fill-opacity:1;" d="M 237.972656 424.320312 L 244.410156 496.144531 L 405.25 496.144531 L 405.25 424.320312 Z M 237.972656 424.320312 "/>
<path style=" stroke:none;fill-rule:nonzero;fill:rgb(92.158508%,92.158508%,92.158508%);fill-opacity:1;" d="M 225.027344 278.898438 L 231.558594 350.746094 L 405.25 350.746094 L 405.25 278.898438 Z M 225.027344 278.898438 "/>
<path style=" stroke:none;fill-rule:nonzero;fill:rgb(92.158508%,92.158508%,92.158508%);fill-opacity:1;" d="M 405.25 610.886719 L 404.9375 610.976562 L 324.890625 589.359375 L 319.773438 532.066406 L 247.625 532.066406 L 257.691406 644.875 L 404.914062 685.722656 L 405.25 685.632812 Z M 405.25 610.886719 "/>
<path style=" stroke:none;fill-rule:nonzero;fill:rgb(0%,0%,0%);fill-opacity:1;" d="M 253.308594 0 L 340.359375 0 L 340.359375 36.386719 L 289.710938 36.386719 L 289.710938 72.773438 L 340.359375 72.773438 L 340.359375 109.15625 L 253.308594 109.15625 Z M 253.308594 0 "/>
<path style=" stroke:none;fill-rule:nonzero;fill:rgb(0%,0%,0%);fill-opacity:1;" d="M 357.765625 0 L 444.8125 0 L 444.8125 31.640625 L 394.179688 31.640625 L 394.179688 37.96875 L 444.8125 37.96875 L 444.8125 110.738281 L 357.765625 110.738281 L 357.765625 77.519531 L 408.425781 77.519531 L 408.425781 71.1875 L 357.765625 71.1875 Z M 357.765625 0 "/>
<path style=" stroke:none;fill-rule:nonzero;fill:rgb(0%,0%,0%);fill-opacity:1;" d="M 462.234375 0 L 549.28125 0 L 549.28125 31.640625 L 498.625 31.640625 L 498.625 37.96875 L 549.28125 37.96875 L 549.28125 110.738281 L 462.234375 110.738281 L 462.234375 77.519531 L 512.867188 77.519531 L 512.867188 71.1875 L 462.234375 71.1875 Z M 462.234375 0 "/>
<path style=" stroke:none;fill-rule:nonzero;fill:rgb(100%,100%,100%);fill-opacity:1;" d="M 572.078125 424.320312 L 585.042969 278.898438 L 405.003906 278.898438 L 405.003906 350.746094 L 506.273438 350.746094 L 499.75 424.320312 L 405.003906 424.320312 L 405.003906 496.144531 L 493.515625 496.144531 L 485.164062 589.3125 L 405.003906 610.953125 L 405.003906 685.675781 L 552.34375 644.875 L 553.421875 632.726562 L 570.324219 443.597656 Z M 572.078125 424.320312 "/>
</g>
</svg>
