<svg width="400" height="275" viewBox="0 0 400 275" fill="none" xmlns="http://www.w3.org/2000/svg">
<g clip-path="url(#clip0)">
<rect y="16" width="400" height="235" rx="4" fill="#92D7FB"/>
<path d="M400 47.7134V221.361L265.151 136.333L400 47.7134Z" fill="#141414"/>
<path d="M134.85 136.333L0 221.361V47.7134L134.85 136.333Z" fill="#141414"/>
<path d="M399.249 18.3637C397.374 6.42014 387.475 -2.85645 375 -2.85645H24.9998C12.5249 -2.85645 2.62518 6.42014 0.750183 18.3637L200 149.297L399.249 18.3637Z" fill="#141414"/>
<path d="M206.875 174.632C204.774 176.002 202.4 176.676 200 176.676C197.6 176.676 195.226 176.002 193.125 174.632L157.751 151.367L0.800598 250.383C2.72575 262.227 12.5753 271.429 25.0001 271.429H375C387.425 271.429 397.274 262.227 399.199 250.383L242.249 151.392L206.875 174.632Z" fill="#141414"/>
</g>
<defs>
<clipPath id="clip0">
<rect width="400" height="274.286" fill="white"/>
</clipPath>
</defs>
</svg>
