<?xml version="1.0" encoding="UTF-8"?>
<svg xmlns="http://www.w3.org/2000/svg" xmlns:xlink="http://www.w3.org/1999/xlink" width="810pt" height="809.999993pt" viewBox="0 0 810 809.999993" version="1.2">
<defs>
<clipPath id="clip1">
  <path d="M 4 322 L 806 322 L 806 500.324219 L 4 500.324219 Z M 4 322 "/>
</clipPath>
</defs>
<g id="surface1">
<g clip-path="url(#clip1)" clip-rule="nonzero">
<path style=" stroke:none;fill-rule:nonzero;fill:rgb(0%,0%,0%);fill-opacity:1;" d="M 253.054688 500.726562 L 253.054688 326.011719 L 262.550781 326.011719 L 262.550781 353.496094 C 263.675781 352.273438 264.707031 350.984375 265.652344 349.621094 C 273.582031 333.199219 290.3125 322.835938 308.578125 323.039062 C 330.226562 322.394531 347.824219 330.394531 358.164062 349.621094 C 359.800781 352.597656 361.257812 355.660156 362.53125 358.808594 C 363.804688 361.957031 364.886719 365.167969 365.777344 368.445312 C 366.664062 371.722656 367.355469 375.042969 367.847656 378.402344 C 368.34375 381.761719 368.632812 385.136719 368.722656 388.53125 C 368.8125 391.925781 368.699219 395.3125 368.386719 398.695312 C 368.070312 402.074219 367.554688 405.425781 366.839844 408.746094 C 366.125 412.066406 365.214844 415.332031 364.109375 418.542969 C 363.003906 421.753906 361.710938 424.886719 360.230469 427.945312 C 350.597656 449.492188 326.800781 460.203125 301.328125 456.269531 C 299.355469 456.101562 297.398438 455.8125 295.460938 455.402344 C 293.523438 454.988281 291.617188 454.460938 289.746094 453.8125 C 287.875 453.164062 286.050781 452.402344 284.273438 451.527344 C 282.496094 450.652344 280.78125 449.667969 279.128906 448.578125 C 277.472656 447.492188 275.894531 446.304688 274.390625 445.019531 C 272.882812 443.730469 271.464844 442.359375 270.132812 440.894531 C 268.796875 439.433594 267.5625 437.894531 266.421875 436.277344 C 265.277344 434.660156 264.242188 432.980469 263.3125 431.234375 L 263.3125 500.71875 Z M 262.550781 387.816406 L 264.679688 408.332031 C 268.433594 431.683594 282.265625 445.480469 303.988281 448.074219 C 305.25 448.28125 306.519531 448.433594 307.796875 448.53125 C 309.074219 448.628906 310.351562 448.671875 311.632812 448.660156 C 312.910156 448.648438 314.1875 448.585938 315.464844 448.464844 C 316.738281 448.34375 318.003906 448.167969 319.265625 447.9375 C 320.523438 447.707031 321.769531 447.425781 323.003906 447.089844 C 324.242188 446.75 325.457031 446.363281 326.660156 445.921875 C 327.863281 445.480469 329.042969 444.988281 330.199219 444.445312 C 331.359375 443.902344 332.492188 443.3125 333.601562 442.671875 C 334.710938 442.035156 335.789062 441.347656 336.835938 440.617188 C 337.886719 439.882812 338.902344 439.109375 339.882812 438.289062 C 340.867188 437.46875 341.8125 436.609375 342.71875 435.707031 C 343.628906 434.808594 344.496094 433.871094 345.324219 432.894531 C 346.152344 431.921875 346.933594 430.914062 347.675781 429.871094 C 348.414062 428.828125 349.109375 427.757812 349.757812 426.65625 C 350.40625 425.554688 351.003906 424.425781 351.558594 423.273438 C 352.109375 422.121094 352.609375 420.945312 353.058594 419.75 C 361.507812 399.65625 360.882812 376.914062 351.386719 357.292969 C 350.90625 356.21875 350.382812 355.167969 349.816406 354.136719 C 349.25 353.105469 348.644531 352.097656 347.996094 351.117188 C 347.351562 350.132812 346.664062 349.179688 345.941406 348.253906 C 345.214844 347.324219 344.453125 346.429688 343.65625 345.5625 C 342.859375 344.699219 342.03125 343.867188 341.164062 343.066406 C 340.300781 342.269531 339.40625 341.503906 338.480469 340.777344 C 337.554688 340.050781 336.597656 339.363281 335.617188 338.714844 C 334.636719 338.066406 333.628906 337.457031 332.597656 336.886719 C 331.566406 336.316406 330.515625 335.792969 329.441406 335.308594 C 328.367188 334.824219 327.277344 334.386719 326.167969 333.988281 C 325.058594 333.59375 323.933594 333.242188 322.796875 332.9375 C 321.660156 332.632812 320.511719 332.375 319.351562 332.160156 C 318.191406 331.949219 317.027344 331.78125 315.855469 331.664062 C 314.683594 331.542969 313.507812 331.472656 312.332031 331.449219 C 311.152344 331.425781 309.976562 331.449219 308.800781 331.519531 C 307.625 331.589844 306.453125 331.707031 305.285156 331.871094 C 303.09375 332.03125 300.921875 332.359375 298.78125 332.855469 C 296.636719 333.347656 294.542969 334.003906 292.5 334.824219 C 290.460938 335.640625 288.492188 336.609375 286.601562 337.730469 C 284.710938 338.855469 282.917969 340.113281 281.222656 341.515625 C 279.523438 342.914062 277.949219 344.433594 276.488281 346.078125 C 275.027344 347.71875 273.703125 349.464844 272.515625 351.3125 C 271.328125 353.160156 270.289062 355.089844 269.398438 357.097656 C 268.507812 359.105469 267.777344 361.167969 267.210938 363.289062 C 265.1875 371.375 263.632812 379.546875 262.550781 387.808594 Z M 562.625 411.5625 C 562.449219 413.082031 562.203125 414.59375 561.886719 416.09375 C 561.574219 417.59375 561.191406 419.078125 560.742188 420.542969 C 560.296875 422.007812 559.78125 423.449219 559.203125 424.871094 C 558.625 426.289062 557.984375 427.679688 557.28125 429.042969 C 556.578125 430.40625 555.816406 431.734375 554.992188 433.027344 C 554.167969 434.320312 553.289062 435.574219 552.351562 436.789062 C 551.414062 438.003906 550.425781 439.171875 549.382812 440.300781 C 548.34375 441.425781 547.253906 442.503906 546.113281 443.53125 C 544.972656 444.558594 543.792969 445.53125 542.5625 446.453125 C 541.335938 447.375 540.070312 448.242188 538.765625 449.050781 C 537.460938 449.855469 536.125 450.605469 534.75 451.292969 C 533.378906 451.980469 531.980469 452.605469 530.550781 453.167969 C 529.121094 453.730469 527.671875 454.226562 526.195312 454.660156 C 524.722656 455.089844 523.234375 455.457031 521.726562 455.753906 C 520.222656 456.050781 518.703125 456.28125 517.175781 456.445312 C 515.652344 456.605469 514.121094 456.699219 512.582031 456.722656 C 472.757812 458.722656 454.070312 432.332031 451.101562 401.878906 C 450.585938 397.765625 450.363281 393.636719 450.4375 389.492188 C 450.507812 385.347656 450.871094 381.226562 451.527344 377.132812 C 452.183594 373.039062 453.125 369.011719 454.355469 365.050781 C 455.582031 361.089844 457.082031 357.234375 458.855469 353.488281 C 459.472656 352.207031 460.136719 350.949219 460.851562 349.71875 C 461.566406 348.488281 462.332031 347.289062 463.140625 346.121094 C 463.949219 344.949219 464.804688 343.816406 465.707031 342.714844 C 466.605469 341.609375 467.546875 340.546875 468.53125 339.519531 C 469.515625 338.492188 470.539062 337.503906 471.601562 336.554688 C 472.664062 335.609375 473.761719 334.703125 474.898438 333.84375 C 476.03125 332.984375 477.199219 332.167969 478.394531 331.402344 C 479.59375 330.632812 480.820312 329.910156 482.078125 329.238281 C 483.332031 328.566406 484.613281 327.945312 485.917969 327.375 C 487.222656 326.804688 488.546875 326.285156 489.894531 325.820312 C 491.242188 325.355469 492.601562 324.941406 493.980469 324.582031 C 495.359375 324.222656 496.75 323.917969 498.152344 323.667969 C 499.554688 323.421875 500.964844 323.226562 502.382812 323.089844 C 503.800781 322.949219 505.222656 322.867188 506.648438 322.84375 C 508.070312 322.816406 509.496094 322.847656 510.917969 322.933594 C 512.339844 323.019531 513.757812 323.160156 515.167969 323.359375 C 516.507812 323.472656 517.84375 323.636719 519.171875 323.855469 C 520.5 324.074219 521.820312 324.34375 523.125 324.664062 C 524.433594 324.984375 525.726562 325.355469 527.003906 325.777344 C 528.285156 326.199219 529.542969 326.667969 530.785156 327.1875 C 532.027344 327.707031 533.246094 328.273438 534.445312 328.886719 C 535.640625 329.503906 536.8125 330.160156 537.957031 330.867188 C 539.105469 331.574219 540.21875 332.324219 541.308594 333.113281 C 542.394531 333.90625 543.449219 334.742188 544.46875 335.617188 C 545.492188 336.492188 546.480469 337.402344 547.429688 338.355469 C 548.378906 339.308594 549.292969 340.292969 550.164062 341.316406 C 551.039062 342.339844 551.871094 343.394531 552.660156 344.480469 C 553.449219 345.570312 554.199219 346.6875 554.902344 347.832031 C 555.605469 348.976562 556.261719 350.148438 556.875 351.34375 C 557.484375 352.542969 558.050781 353.761719 558.566406 355 C 559.082031 356.242188 559.550781 357.5 559.96875 358.777344 C 560.386719 360.054688 560.753906 361.347656 561.070312 362.652344 C 563.09375 372.25 564.582031 381.929688 565.527344 391.691406 L 460.9375 391.691406 C 459 419.300781 473.867188 441.5 494.941406 446.851562 C 521.191406 453.296875 543.625 441.945312 551.769531 417.042969 C 553.578125 410.652344 556.875 409.75 562.695312 411.5625 Z M 460.863281 382.851562 L 554.414062 382.851562 C 553.828125 353.433594 535.472656 332.054688 510.578125 331.8125 C 482.46875 331.355469 462.085938 351.878906 460.863281 382.851562 Z M 581.960938 412.207031 L 591.132812 412.207031 C 591.214844 413.882812 591.414062 415.546875 591.726562 417.195312 C 592.039062 418.847656 592.464844 420.46875 593 422.058594 C 593.535156 423.652344 594.175781 425.199219 594.925781 426.703125 C 595.675781 428.207031 596.523438 429.65625 597.472656 431.042969 C 598.417969 432.429688 599.457031 433.746094 600.585938 434.992188 C 601.714844 436.238281 602.925781 437.402344 604.214844 438.480469 C 605.503906 439.5625 606.859375 440.546875 608.285156 441.441406 C 609.710938 442.335938 611.1875 443.128906 612.722656 443.820312 C 614.652344 444.6875 616.621094 445.441406 618.636719 446.085938 C 620.652344 446.730469 622.695312 447.261719 624.769531 447.679688 C 626.84375 448.09375 628.933594 448.390625 631.042969 448.574219 C 633.148438 448.753906 635.261719 448.816406 637.375 448.761719 C 639.488281 448.707031 641.59375 448.53125 643.6875 448.242188 C 645.785156 447.949219 647.855469 447.542969 649.90625 447.015625 C 651.953125 446.492188 653.96875 445.855469 655.945312 445.105469 C 657.921875 444.355469 659.851562 443.496094 661.730469 442.53125 C 662.753906 442.070312 663.734375 441.539062 664.675781 440.929688 C 665.617188 440.320312 666.507812 439.644531 667.34375 438.898438 C 668.179688 438.152344 668.957031 437.351562 669.671875 436.488281 C 670.382812 435.625 671.027344 434.714844 671.605469 433.753906 C 672.179688 432.792969 672.675781 431.792969 673.097656 430.757812 C 673.519531 429.71875 673.863281 428.65625 674.121094 427.570312 C 674.378906 426.480469 674.554688 425.378906 674.644531 424.261719 C 674.738281 423.148438 674.742188 422.03125 674.664062 420.917969 C 674.722656 419.839844 674.691406 418.765625 674.578125 417.695312 C 674.460938 416.625 674.261719 415.570312 673.972656 414.53125 C 673.6875 413.492188 673.316406 412.484375 672.867188 411.507812 C 672.417969 410.527344 671.890625 409.589844 671.289062 408.699219 C 670.683594 407.804688 670.015625 406.964844 669.273438 406.179688 C 668.535156 405.394531 667.738281 404.671875 666.882812 404.015625 C 666.027344 403.363281 665.121094 402.777344 664.171875 402.269531 C 663.222656 401.757812 662.234375 401.328125 661.214844 400.976562 C 651.125 397.230469 640.398438 395.167969 630.121094 391.878906 C 619.410156 388.835938 608.980469 385.03125 598.828125 380.460938 C 582.265625 372.394531 581.238281 340.976562 599.988281 331.03125 C 602.378906 329.683594 604.84375 328.492188 607.386719 327.453125 C 609.925781 326.414062 612.519531 325.535156 615.171875 324.820312 C 617.820312 324.101562 620.503906 323.554688 623.222656 323.171875 C 625.941406 322.789062 628.671875 322.578125 631.417969 322.535156 C 634.160156 322.492188 636.898438 322.621094 639.628906 322.917969 C 642.355469 323.21875 645.054688 323.683594 647.726562 324.320312 C 650.398438 324.953125 653.019531 325.75 655.589844 326.710938 C 658.160156 327.671875 660.660156 328.789062 663.089844 330.0625 C 675.203125 336.734375 681.894531 350.203125 679.90625 363.875 L 672.042969 363.875 C 672.042969 363.496094 671.328125 363.160156 671.328125 362.773438 C 670.355469 337.757812 649.28125 329.933594 626.65625 332.128906 C 619.816406 332.890625 613.335938 334.949219 607.261719 338 C 606.351562 338.414062 605.480469 338.894531 604.648438 339.441406 C 603.8125 339.988281 603.027344 340.597656 602.289062 341.265625 C 601.550781 341.9375 600.867188 342.660156 600.238281 343.433594 C 599.613281 344.207031 599.046875 345.027344 598.546875 345.886719 C 598.046875 346.75 597.617188 347.644531 597.253906 348.574219 C 596.890625 349.5 596.601562 350.453125 596.386719 351.425781 C 596.171875 352.398438 596.035156 353.378906 595.972656 354.375 C 595.910156 355.367188 595.925781 356.363281 596.015625 357.355469 C 596.019531 358.347656 596.097656 359.332031 596.25 360.3125 C 596.40625 361.292969 596.632812 362.257812 596.9375 363.203125 C 597.238281 364.148438 597.613281 365.066406 598.058594 365.953125 C 598.5 366.839844 599.011719 367.691406 599.585938 368.5 C 600.160156 369.308594 600.796875 370.070312 601.488281 370.78125 C 602.183594 371.496094 602.925781 372.152344 603.71875 372.75 C 604.511719 373.347656 605.347656 373.878906 606.226562 374.351562 C 607.101562 374.820312 608.007812 375.21875 608.945312 375.550781 C 618.824219 379.164062 629.308594 381.484375 639.523438 384.320312 L 664.214844 390.765625 C 665.609375 391.222656 666.964844 391.78125 668.273438 392.441406 C 669.585938 393.101562 670.839844 393.859375 672.035156 394.707031 C 673.230469 395.554688 674.355469 396.492188 675.410156 397.511719 C 676.464844 398.53125 677.4375 399.621094 678.328125 400.789062 C 679.214844 401.953125 680.011719 403.179688 680.71875 404.464844 C 681.421875 405.75 682.023438 407.082031 682.527344 408.457031 C 683.03125 409.835938 683.425781 411.242188 683.714844 412.675781 C 684.007812 414.113281 684.1875 415.5625 684.257812 417.027344 C 686.234375 430.257812 679.472656 443.257812 667.511719 449.285156 C 645.921875 461.476562 610.359375 458.253906 594.519531 442.839844 C 586.414062 434.707031 581.894531 423.660156 581.984375 412.199219 Z M 800.609375 363.882812 L 792.007812 363.882812 C 792.007812 362.722656 791.550781 361.605469 791.421875 360.71875 C 791.390625 359.125 791.21875 357.542969 790.914062 355.972656 C 790.609375 354.40625 790.175781 352.875 789.609375 351.382812 C 789.039062 349.890625 788.351562 348.453125 787.539062 347.078125 C 786.726562 345.703125 785.804688 344.40625 784.769531 343.1875 C 783.734375 341.96875 782.605469 340.847656 781.378906 339.820312 C 780.152344 338.792969 778.847656 337.878906 777.464844 337.078125 C 776.082031 336.273438 774.640625 335.59375 773.140625 335.035156 C 771.640625 334.476562 770.105469 334.050781 768.53125 333.753906 C 765.566406 332.902344 762.546875 332.300781 759.480469 331.945312 C 756.414062 331.589844 753.339844 331.488281 750.253906 331.636719 C 747.171875 331.785156 744.117188 332.179688 741.101562 332.828125 C 738.082031 333.476562 735.136719 334.367188 732.265625 335.496094 C 731.128906 335.820312 730.023438 336.234375 728.957031 336.734375 C 727.886719 337.238281 726.863281 337.820312 725.886719 338.488281 C 724.914062 339.152344 723.996094 339.890625 723.140625 340.703125 C 722.285156 341.515625 721.5 342.390625 720.785156 343.332031 C 720.070312 344.269531 719.433594 345.261719 718.878906 346.300781 C 718.324219 347.34375 717.855469 348.421875 717.472656 349.535156 C 717.09375 350.652344 716.800781 351.792969 716.605469 352.953125 C 716.40625 354.117188 716.304688 355.289062 716.292969 356.46875 C 716.253906 357.625 716.3125 358.777344 716.46875 359.921875 C 716.628906 361.070312 716.882812 362.195312 717.230469 363.296875 C 717.582031 364.402344 718.023438 365.464844 718.558594 366.492188 C 719.09375 367.519531 719.710938 368.496094 720.414062 369.417969 C 721.113281 370.339844 721.890625 371.195312 722.738281 371.984375 C 723.585938 372.773438 724.496094 373.484375 725.464844 374.117188 C 726.4375 374.75 727.453125 375.296875 728.519531 375.757812 C 729.585938 376.214844 730.679688 376.582031 731.808594 376.851562 L 771.117188 386.921875 C 775.371094 387.941406 779.550781 389.207031 783.652344 390.726562 C 796.1875 395.277344 804.695312 406.890625 805.074219 420.164062 C 805.121094 421.78125 805.046875 423.390625 804.851562 424.996094 C 804.65625 426.597656 804.339844 428.179688 803.90625 429.734375 C 803.472656 431.292969 802.921875 432.808594 802.261719 434.28125 C 801.597656 435.757812 800.828125 437.171875 799.953125 438.53125 C 799.074219 439.890625 798.101562 441.175781 797.03125 442.390625 C 795.960938 443.601562 794.808594 444.730469 793.566406 445.769531 C 792.328125 446.808594 791.015625 447.75 789.632812 448.589844 C 788.253906 449.433594 786.816406 450.167969 785.324219 450.792969 C 783.046875 451.824219 780.726562 452.734375 778.355469 453.527344 C 775.988281 454.316406 773.582031 454.980469 771.144531 455.519531 C 768.703125 456.058594 766.242188 456.472656 763.761719 456.753906 C 761.28125 457.039062 758.789062 457.195312 756.292969 457.21875 C 753.792969 457.242188 751.300781 457.140625 748.8125 456.90625 C 746.324219 456.671875 743.859375 456.308594 741.40625 455.816406 C 738.957031 455.328125 736.542969 454.710938 734.15625 453.96875 C 731.769531 453.226562 729.429688 452.363281 727.136719 451.378906 C 725.253906 450.570312 723.445312 449.621094 721.707031 448.535156 C 719.972656 447.453125 718.328125 446.242188 716.773438 444.90625 C 715.222656 443.574219 713.78125 442.128906 712.449219 440.574219 C 711.117188 439.019531 709.910156 437.375 708.832031 435.636719 C 707.75 433.898438 706.808594 432.089844 706.003906 430.210938 C 705.199219 428.328125 704.542969 426.398438 704.035156 424.417969 C 703.527344 422.4375 703.167969 420.429688 702.964844 418.394531 C 702.765625 416.359375 702.714844 414.324219 702.824219 412.28125 L 711.226562 412.28125 C 714.386719 427.480469 724.847656 440.144531 739.199219 446.132812 C 753.550781 452.121094 769.9375 450.652344 782.992188 442.21875 C 783.964844 441.714844 784.898438 441.140625 785.789062 440.503906 C 786.683594 439.867188 787.523438 439.167969 788.316406 438.410156 C 789.109375 437.652344 789.84375 436.839844 790.519531 435.976562 C 791.199219 435.117188 791.808594 434.210938 792.355469 433.257812 C 792.90625 432.308594 793.382812 431.324219 793.789062 430.308594 C 794.195312 429.289062 794.527344 428.25 794.785156 427.183594 C 795.042969 426.121094 795.222656 425.042969 795.328125 423.949219 C 795.429688 422.859375 795.457031 421.769531 795.40625 420.671875 C 795.453125 419.597656 795.414062 418.523438 795.289062 417.453125 C 795.164062 416.382812 794.949219 415.332031 794.652344 414.296875 C 794.355469 413.257812 793.976562 412.253906 793.519531 411.28125 C 793.058594 410.304688 792.523438 409.375 791.910156 408.484375 C 791.296875 407.597656 790.621094 406.765625 789.871094 405.988281 C 789.125 405.210938 788.320312 404.496094 787.457031 403.847656 C 786.59375 403.199219 785.6875 402.625 784.730469 402.125 C 783.773438 401.625 782.785156 401.203125 781.761719 400.863281 C 771.671875 397.117188 760.945312 395.125 750.664062 391.765625 C 739.894531 388.769531 729.398438 385.007812 719.183594 380.476562 C 703.015625 372.539062 701.722656 341.378906 720.15625 331.441406 C 722.574219 330.039062 725.074219 328.796875 727.652344 327.714844 C 730.234375 326.636719 732.875 325.722656 735.570312 324.984375 C 738.269531 324.242188 741.003906 323.675781 743.773438 323.289062 C 746.546875 322.898438 749.328125 322.6875 752.128906 322.65625 C 754.925781 322.625 757.714844 322.773438 760.492188 323.101562 C 763.273438 323.429688 766.019531 323.933594 768.734375 324.613281 C 771.445312 325.296875 774.105469 326.148438 776.707031 327.171875 C 779.3125 328.195312 781.839844 329.378906 784.289062 330.726562 C 785.691406 331.5625 787.023438 332.492188 788.289062 333.519531 C 789.554688 334.542969 790.738281 335.65625 791.839844 336.851562 C 792.945312 338.050781 793.957031 339.320312 794.878906 340.664062 C 795.796875 342.007812 796.617188 343.410156 797.332031 344.871094 C 798.046875 346.332031 798.65625 347.839844 799.15625 349.386719 C 799.652344 350.9375 800.035156 352.515625 800.304688 354.117188 C 800.574219 355.722656 800.726562 357.339844 800.765625 358.964844 C 800.800781 360.59375 800.71875 362.214844 800.515625 363.828125 Z M 237.429688 453.570312 C 236.589844 453.886719 235.726562 454.125 234.84375 454.285156 C 233.960938 454.445312 233.074219 454.527344 232.175781 454.523438 C 231.277344 454.523438 230.386719 454.441406 229.503906 454.28125 C 228.625 454.117188 227.761719 453.878906 226.925781 453.558594 C 226.085938 453.242188 225.28125 452.851562 224.515625 452.386719 C 223.746094 451.921875 223.027344 451.394531 222.355469 450.800781 C 221.683594 450.203125 221.074219 449.554688 220.519531 448.851562 C 219.96875 448.144531 219.484375 447.394531 219.066406 446.601562 L 185.640625 400.46875 L 180.792969 394.023438 L 142 446.671875 C 141.609375 447.429688 141.152344 448.148438 140.628906 448.824219 C 140.105469 449.5 139.527344 450.125 138.894531 450.699219 C 138.257812 451.269531 137.578125 451.78125 136.847656 452.230469 C 136.121094 452.679688 135.359375 453.0625 134.5625 453.371094 C 133.765625 453.683594 132.949219 453.921875 132.109375 454.085938 C 131.269531 454.253906 130.421875 454.339844 129.566406 454.351562 C 128.710938 454.363281 127.859375 454.296875 127.015625 454.15625 C 126.171875 454.015625 125.347656 453.800781 124.542969 453.507812 L 174.515625 386.601562 L 128.023438 326.148438 C 134.917969 323.664062 142.609375 326.359375 146.445312 332.59375 L 181.089844 379.292969 L 215.9375 332.773438 C 216.332031 332.027344 216.789062 331.324219 217.3125 330.664062 C 217.835938 330 218.417969 329.390625 219.050781 328.832031 C 219.6875 328.277344 220.367188 327.78125 221.09375 327.347656 C 221.820312 326.914062 222.578125 326.550781 223.371094 326.257812 C 224.160156 325.960938 224.972656 325.742188 225.808594 325.59375 C 226.640625 325.445312 227.476562 325.375 228.324219 325.382812 C 229.167969 325.386719 230.007812 325.46875 230.835938 325.628906 C 231.667969 325.785156 232.476562 326.019531 233.265625 326.324219 L 215.246094 350.210938 L 190.804688 381.957031 C 190.464844 382.257812 190.160156 382.59375 189.894531 382.957031 C 189.625 383.324219 189.398438 383.714844 189.210938 384.128906 C 189.027344 384.542969 188.886719 384.972656 188.789062 385.414062 C 188.695312 385.859375 188.648438 386.308594 188.648438 386.761719 C 188.648438 387.214844 188.695312 387.664062 188.789062 388.109375 C 188.886719 388.550781 189.027344 388.980469 189.210938 389.394531 C 189.398438 389.808594 189.625 390.199219 189.894531 390.566406 C 190.160156 390.933594 190.464844 391.265625 190.804688 391.570312 L 237.351562 453.570312 Z M 449.617188 325.503906 L 449.617188 334.601562 C 447.988281 334.496094 446.355469 334.472656 444.722656 334.539062 C 443.089844 334.601562 441.464844 334.75 439.847656 334.980469 C 438.234375 335.214844 436.632812 335.53125 435.046875 335.933594 C 433.464844 336.332031 431.90625 336.8125 430.371094 337.375 C 428.839844 337.9375 427.339844 338.578125 425.871094 339.300781 C 424.40625 340.019531 422.980469 340.8125 421.597656 341.679688 C 420.214844 342.546875 418.882812 343.484375 417.597656 344.492188 C 416.3125 345.5 415.082031 346.570312 413.910156 347.707031 C 412.738281 348.839844 411.628906 350.035156 410.582031 351.285156 C 409.53125 352.535156 408.554688 353.839844 407.640625 355.191406 C 406.730469 356.546875 405.894531 357.941406 405.128906 359.382812 C 404.363281 360.824219 403.675781 362.300781 403.066406 363.8125 C 402.457031 365.324219 401.925781 366.867188 401.476562 368.433594 C 401.027344 370 400.664062 371.585938 400.382812 373.195312 C 400.097656 374.800781 399.902344 376.414062 399.789062 378.042969 C 399.675781 379.667969 399.648438 381.296875 399.703125 382.925781 C 399.703125 404.175781 399.703125 425.421875 399.703125 446.671875 L 399.703125 453.894531 L 390.457031 453.894531 L 390.457031 326.074219 L 399.574219 326.074219 L 399.574219 352.265625 C 410.757812 333.160156 428.019531 326.074219 449.679688 325.558594 Z M 4.902344 385.769531 L 8.972656 365.699219 C 20.15625 326.019531 65.738281 309.507812 97.101562 334.085938 C 115.464844 348.476562 120.042969 368.863281 119.148438 391.835938 L 15.695312 391.835938 C 14.027344 432.863281 43.691406 457.640625 81.640625 444.996094 C 94.144531 440.445312 103.558594 430.074219 106.660156 417.1875 C 108.664062 410.742188 111.976562 409.636719 118.039062 411.5 C 117.785156 413.457031 117.425781 415.394531 116.953125 417.3125 C 116.484375 419.226562 115.90625 421.113281 115.21875 422.964844 C 114.535156 424.816406 113.746094 426.621094 112.859375 428.386719 C 111.96875 430.148438 110.984375 431.855469 109.898438 433.507812 C 108.816406 435.160156 107.644531 436.746094 106.382812 438.261719 C 105.121094 439.78125 103.777344 441.226562 102.351562 442.59375 C 100.925781 443.960938 99.425781 445.246094 97.855469 446.445312 C 96.285156 447.640625 94.648438 448.75 92.953125 449.761719 C 91.558594 450.523438 90.136719 451.230469 88.683594 451.878906 C 87.234375 452.53125 85.761719 453.121094 84.261719 453.65625 C 82.765625 454.191406 81.25 454.667969 79.714844 455.082031 C 78.179688 455.496094 76.632812 455.851562 75.070312 456.148438 C 73.507812 456.441406 71.9375 456.675781 70.355469 456.847656 C 68.773438 457.019531 67.191406 457.128906 65.601562 457.175781 C 64.011719 457.222656 62.421875 457.207031 60.832031 457.128906 C 59.246094 457.050781 57.664062 456.914062 56.085938 456.710938 C 54.507812 456.511719 52.941406 456.25 51.386719 455.925781 C 49.828125 455.601562 48.285156 455.214844 46.761719 454.773438 C 45.234375 454.328125 43.726562 453.824219 42.242188 453.261719 C 40.753906 452.699219 39.292969 452.078125 37.855469 451.402344 C 36.414062 450.722656 35.007812 449.992188 33.625 449.203125 C 32.246094 448.417969 30.898438 447.578125 29.585938 446.683594 C 28.269531 445.789062 26.992188 444.847656 25.753906 443.855469 C 24.511719 442.859375 23.3125 441.820312 22.15625 440.734375 C 12.917969 430.371094 7.339844 417.269531 6.253906 403.433594 C 6.253906 401.160156 5.492188 399.035156 4.960938 396.988281 C 4.910156 393.164062 4.886719 389.421875 4.886719 385.769531 Z M 15.828125 382.992188 L 109.378906 382.992188 C 108.792969 353.253906 89.984375 332.152344 64.898438 331.957031 C 36.96875 331.578125 16.988281 352.214844 15.757812 382.863281 Z M 15.828125 382.992188 "/>
</g>
</g>
</svg>
