<svg width="400" height="400" viewBox="0 0 400 400" fill="none" xmlns="http://www.w3.org/2000/svg">
<circle cx="200" cy="200" r="200" fill="black"/>
<ellipse cx="206.852" cy="207.593" rx="141.667" ry="141.667" fill="white"/>
<path d="M200 41.6667C108.1 41.6667 33.3334 116.43 33.3334 208.333C33.3334 300.236 108.1 375 200 375C291.9 375 366.667 300.236 366.667 208.333C366.667 116.43 291.9 41.6667 200 41.6667ZM258.928 135.958C254.286 134.531 248.571 133.458 241.43 133.458C223.572 133.458 216.072 147.387 216.072 164.53V173.457H251.069V213.458H216.429V326.061H161.786V213.459H138.929V173.459H161.786V166.673C161.786 145.603 168.216 122.386 183.93 108.104C197.502 95.2472 216.427 90.6043 232.144 90.6043C244.288 90.6043 253.572 92.0319 261.071 94.1749L258.928 135.958Z" fill="black"/>
</svg>
