<?xml version="1.0" encoding="UTF-8"?>
<svg xmlns="http://www.w3.org/2000/svg" xmlns:xlink="http://www.w3.org/1999/xlink" width="810pt" height="809.999993pt" viewBox="0 0 810 809.999993" version="1.2">
<defs>
<clipPath id="clip1">
  <path d="M 3 1.5 L 809.25 1.5 L 809.25 807.75 L 3 807.75 Z M 3 1.5 "/>
</clipPath>
</defs>
<g id="surface1">
<g clip-path="url(#clip1)" clip-rule="nonzero">
<path style=" stroke:none;fill-rule:nonzero;fill:rgb(0%,0%,0%);fill-opacity:1;" d="M 406.136719 1.5 C 183.847656 1.5 3 182.339844 3 404.636719 C 3 626.933594 183.847656 807.773438 406.136719 807.773438 C 628.425781 807.773438 809.273438 626.933594 809.273438 404.636719 C 809.273438 182.339844 628.425781 1.5 406.136719 1.5 Z M 548.671875 229.574219 C 537.445312 226.121094 523.621094 223.527344 506.347656 223.527344 C 463.152344 223.527344 445.011719 257.21875 445.011719 298.683594 L 445.011719 320.277344 L 529.664062 320.277344 L 529.664062 417.03125 L 445.875 417.03125 L 445.875 689.398438 L 313.703125 689.398438 L 313.703125 417.035156 L 258.417969 417.035156 L 258.417969 320.28125 L 313.703125 320.28125 L 313.703125 303.867188 C 313.703125 252.902344 329.257812 196.746094 367.265625 162.199219 C 400.09375 131.101562 445.871094 119.871094 483.886719 119.871094 C 513.261719 119.871094 535.71875 123.324219 553.855469 128.507812 Z M 548.671875 229.574219 "/>
</g>
</g>
</svg>
