<svg xmlns="http://www.w3.org/2000/svg" width="810" viewBox="0 0 810 810" height="810" version="1.0"><defs><clipPath id="a"><path d="M 114 170 L 696.96875 170 L 696.96875 809.804688 L 114 809.804688 Z M 114 170"/></clipPath></defs><path fill="#FFA000" d="M 497.566406 293.203125 L 416.644531 368.511719 L 341.558594 217.007812 L 380.414062 129.871094 C 390.519531 112.179688 406.285156 112.382812 416.136719 129.871094 Z M 497.566406 293.203125"/><path fill="#F57F17" d="M 341.558594 217.007812 L 416.644531 368.511719 L 114.230469 649.914062 Z M 341.558594 217.007812"/><g clip-path="url(#a)"><path fill="#FFCA28" d="M 586.066406 178.089844 C 600.519531 164.1875 615.472656 168.941406 619.289062 188.628906 L 698.011719 646.171875 L 437.082031 802.855469 C 427.988281 807.910156 403.734375 810.085938 403.734375 810.085938 C 403.734375 810.085938 381.652344 807.457031 373.238281 802.503906 L 114.230469 649.910156 Z M 586.066406 178.089844"/></g><path fill="#FFA000" d="M 341.558594 217.007812 L 114.253906 649.914062 L 215.488281 17.234375 C 219.226562 -2.476562 230.445312 -4.375 240.449219 13.015625 Z M 341.558594 217.007812"/></svg>