<?xml version="1.0" encoding="utf-8"?>
<!-- Generator: Adobe Illustrator 24.1.1, SVG Export Plug-In . SVG Version: 6.00 Build 0)  -->
<svg version="1.1" id="Layer_1" xmlns="http://www.w3.org/2000/svg" xmlns:xlink="http://www.w3.org/1999/xlink" x="0px" y="0px"
	 viewBox="0 0 512 512" style="enable-background:new 0 0 512 512;" xml:space="preserve">
<style type="text/css">
	.st0{fill:#744C9E;}
</style>
<g>
	<path class="st0" d="M256,0C114.6,0,0,114.6,0,256s114.6,256,256,256c141.4,0,256-114.6,256-256S397.4,0,256,0z M55,258.7
		L253.3,457C144.4,455.6,56.4,367.6,55,258.7z M301,452L60,211C80.5,121.6,160.4,55,256,55c66.8,0,126,32.6,162.5,82.7l-27.8,24.6
		C361,119.7,311.8,91.9,256,91.9c-71,0-131.5,45.1-154.3,108.2l210.2,210.2c51.1-18.5,90.3-61.6,103.5-115h-87.1V256h91.9H457
		C457,351.6,390.4,431.5,301,452z"/>
</g>
</svg>
