<?xml version="1.0" encoding="UTF-8"?>
<svg xmlns="http://www.w3.org/2000/svg" xmlns:xlink="http://www.w3.org/1999/xlink" width="810pt" height="809.999993pt" viewBox="0 0 810 809.999993" version="1.2">
<g id="surface1">
<path style=" stroke:none;fill-rule:nonzero;fill:rgb(100%,100%,100%);fill-opacity:1;" d="M 405 29.433594 C 398.851562 29.433594 392.710938 29.582031 386.570312 29.882812 C 380.433594 30.1875 374.304688 30.636719 368.1875 31.238281 C 362.070312 31.84375 355.972656 32.59375 349.894531 33.496094 C 343.8125 34.398438 337.757812 35.449219 331.730469 36.648438 C 325.703125 37.847656 319.707031 39.195312 313.746094 40.6875 C 307.78125 42.179688 301.859375 43.820312 295.976562 45.605469 C 290.097656 47.386719 284.261719 49.316406 278.476562 51.386719 C 272.6875 53.457031 266.953125 55.667969 261.277344 58.019531 C 255.597656 60.371094 249.980469 62.863281 244.421875 65.492188 C 238.867188 68.117188 233.378906 70.882812 227.957031 73.777344 C 222.539062 76.675781 217.191406 79.703125 211.917969 82.863281 C 206.648438 86.023438 201.457031 89.3125 196.34375 92.726562 C 191.234375 96.140625 186.210938 99.679688 181.273438 103.339844 C 176.335938 107.003906 171.492188 110.78125 166.742188 114.683594 C 161.992188 118.582031 157.339844 122.59375 152.785156 126.722656 C 148.230469 130.851562 143.777344 135.085938 139.433594 139.433594 C 135.085938 143.777344 130.851562 148.230469 126.722656 152.785156 C 122.59375 157.339844 118.582031 161.992188 114.683594 166.742188 C 110.78125 171.492188 107.003906 176.335938 103.339844 181.273438 C 99.679688 186.210938 96.140625 191.234375 92.726562 196.34375 C 89.3125 201.457031 86.023438 206.648438 82.863281 211.917969 C 79.703125 217.191406 76.675781 222.539062 73.777344 227.957031 C 70.882812 233.378906 68.117188 238.867188 65.492188 244.421875 C 62.863281 249.980469 60.371094 255.597656 58.019531 261.277344 C 55.667969 266.953125 53.457031 272.6875 51.386719 278.476562 C 49.316406 284.261719 47.386719 290.097656 45.605469 295.976562 C 43.820312 301.859375 42.179688 307.78125 40.6875 313.746094 C 39.195312 319.707031 37.847656 325.703125 36.648438 331.730469 C 35.449219 337.757812 34.398438 343.8125 33.496094 349.894531 C 32.59375 355.972656 31.84375 362.070312 31.238281 368.1875 C 30.636719 374.304688 30.1875 380.433594 29.882812 386.570312 C 29.582031 392.710938 29.433594 398.851562 29.433594 405 C 29.433594 411.144531 29.582031 417.289062 29.882812 423.429688 C 30.1875 429.566406 30.636719 435.695312 31.238281 441.8125 C 31.84375 447.929688 32.59375 454.027344 33.496094 460.105469 C 34.398438 466.1875 35.449219 472.242188 36.648438 478.269531 C 37.847656 484.296875 39.195312 490.292969 40.6875 496.253906 C 42.179688 502.21875 43.820312 508.140625 45.605469 514.023438 C 47.386719 519.902344 49.316406 525.738281 51.386719 531.523438 C 53.457031 537.3125 55.667969 543.046875 58.019531 548.722656 C 60.371094 554.402344 62.863281 560.019531 65.492188 565.574219 C 68.117188 571.132812 70.882812 576.621094 73.777344 582.042969 C 76.675781 587.460938 79.703125 592.808594 82.863281 598.082031 C 86.023438 603.351562 89.3125 608.542969 92.726562 613.65625 C 96.140625 618.765625 99.679688 623.789062 103.339844 628.726562 C 107.003906 633.664062 110.78125 638.507812 114.683594 643.257812 C 118.582031 648.007812 122.59375 652.660156 126.722656 657.214844 C 130.851562 661.769531 135.085938 666.21875 139.433594 670.566406 C 143.777344 674.914062 148.230469 679.148438 152.785156 683.277344 C 157.339844 687.40625 161.992188 691.417969 166.742188 695.316406 C 171.492188 699.21875 176.335938 702.996094 181.273438 706.660156 C 186.210938 710.320312 191.234375 713.859375 196.34375 717.273438 C 201.457031 720.6875 206.648438 723.976562 211.917969 727.136719 C 217.191406 730.296875 222.539062 733.324219 227.957031 736.222656 C 233.378906 739.117188 238.867188 741.882812 244.421875 744.507812 C 249.980469 747.136719 255.597656 749.628906 261.277344 751.980469 C 266.953125 754.332031 272.6875 756.542969 278.476562 758.613281 C 284.261719 760.683594 290.097656 762.613281 295.976562 764.394531 C 301.859375 766.179688 307.78125 767.820312 313.746094 769.3125 C 319.707031 770.804688 325.703125 772.152344 331.730469 773.351562 C 337.757812 774.550781 343.8125 775.601562 349.894531 776.503906 C 355.972656 777.40625 362.070312 778.15625 368.1875 778.761719 C 374.304688 779.363281 380.433594 779.8125 386.570312 780.117188 C 392.710938 780.417969 398.851562 780.566406 405 780.566406 C 411.144531 780.566406 417.289062 780.417969 423.429688 780.117188 C 429.566406 779.8125 435.695312 779.363281 441.8125 778.761719 C 447.929688 778.15625 454.027344 777.40625 460.105469 776.503906 C 466.1875 775.601562 472.242188 774.550781 478.269531 773.351562 C 484.296875 772.152344 490.292969 770.804688 496.253906 769.3125 C 502.21875 767.820312 508.140625 766.179688 514.023438 764.394531 C 519.902344 762.613281 525.738281 760.683594 531.523438 758.613281 C 537.3125 756.542969 543.046875 754.332031 548.722656 751.980469 C 554.402344 749.628906 560.019531 747.136719 565.574219 744.507812 C 571.132812 741.882812 576.621094 739.117188 582.042969 736.222656 C 587.460938 733.324219 592.808594 730.296875 598.082031 727.136719 C 603.351562 723.976562 608.542969 720.6875 613.65625 717.273438 C 618.765625 713.859375 623.789062 710.320312 628.726562 706.660156 C 633.664062 702.996094 638.507812 699.21875 643.257812 695.316406 C 648.007812 691.417969 652.660156 687.40625 657.214844 683.277344 C 661.769531 679.148438 666.21875 674.914062 670.566406 670.566406 C 674.914062 666.21875 679.148438 661.769531 683.277344 657.214844 C 687.40625 652.660156 691.417969 648.007812 695.316406 643.257812 C 699.21875 638.507812 702.996094 633.664062 706.660156 628.726562 C 710.320312 623.789062 713.859375 618.765625 717.273438 613.65625 C 720.6875 608.542969 723.976562 603.351562 727.136719 598.082031 C 730.296875 592.808594 733.324219 587.460938 736.222656 582.042969 C 739.117188 576.621094 741.882812 571.132812 744.507812 565.574219 C 747.136719 560.019531 749.628906 554.402344 751.980469 548.722656 C 754.332031 543.046875 756.542969 537.3125 758.613281 531.523438 C 760.683594 525.738281 762.613281 519.902344 764.394531 514.023438 C 766.179688 508.140625 767.820312 502.21875 769.3125 496.253906 C 770.804688 490.292969 772.152344 484.296875 773.351562 478.269531 C 774.550781 472.242188 775.601562 466.1875 776.503906 460.105469 C 777.40625 454.027344 778.15625 447.929688 778.761719 441.8125 C 779.363281 435.695312 779.8125 429.566406 780.117188 423.429688 C 780.417969 417.289062 780.566406 411.144531 780.566406 405 C 780.566406 398.851562 780.417969 392.710938 780.117188 386.570312 C 779.8125 380.433594 779.363281 374.304688 778.761719 368.1875 C 778.15625 362.070312 777.40625 355.972656 776.503906 349.894531 C 775.601562 343.8125 774.550781 337.757812 773.351562 331.730469 C 772.152344 325.703125 770.804688 319.707031 769.3125 313.746094 C 767.820312 307.78125 766.179688 301.859375 764.394531 295.976562 C 762.613281 290.097656 760.683594 284.261719 758.613281 278.476562 C 756.542969 272.6875 754.332031 266.953125 751.980469 261.277344 C 749.628906 255.597656 747.136719 249.980469 744.507812 244.421875 C 741.882812 238.867188 739.117188 233.378906 736.222656 227.957031 C 733.324219 222.539062 730.296875 217.191406 727.136719 211.917969 C 723.976562 206.648438 720.6875 201.457031 717.273438 196.34375 C 713.859375 191.234375 710.320312 186.210938 706.660156 181.273438 C 702.996094 176.335938 699.21875 171.492188 695.316406 166.742188 C 691.417969 161.992188 687.40625 157.339844 683.277344 152.785156 C 679.148438 148.230469 674.914062 143.777344 670.566406 139.433594 C 666.21875 135.085938 661.769531 130.851562 657.214844 126.722656 C 652.660156 122.59375 648.007812 118.582031 643.257812 114.683594 C 638.507812 110.78125 633.664062 107.003906 628.726562 103.339844 C 623.789062 99.679688 618.765625 96.140625 613.65625 92.726562 C 608.542969 89.3125 603.351562 86.023438 598.082031 82.863281 C 592.808594 79.703125 587.460938 76.675781 582.042969 73.777344 C 576.621094 70.882812 571.132812 68.117188 565.574219 65.492188 C 560.019531 62.863281 554.402344 60.371094 548.722656 58.019531 C 543.046875 55.667969 537.3125 53.457031 531.523438 51.386719 C 525.738281 49.316406 519.902344 47.386719 514.023438 45.605469 C 508.140625 43.820312 502.21875 42.179688 496.253906 40.6875 C 490.292969 39.195312 484.296875 37.847656 478.269531 36.648438 C 472.242188 35.449219 466.1875 34.398438 460.105469 33.496094 C 454.027344 32.59375 447.929688 31.84375 441.8125 31.238281 C 435.695312 30.636719 429.566406 30.1875 423.429688 29.882812 C 417.289062 29.582031 411.144531 29.433594 405 29.433594 Z M 405 29.433594 "/>
<path style=" stroke:none;fill-rule:nonzero;fill:rgb(45.489502%,29.798889%,61.959839%);fill-opacity:1;" d="M 404.765625 809.796875 C 630.144531 809.796875 809.796875 630.179688 809.796875 404.796875 C 809.796875 179.414062 630.214844 -0.203125 404.796875 -0.203125 C 179.382812 -0.203125 -0.203125 179.414062 -0.203125 404.765625 C -0.203125 630.113281 179.382812 809.796875 404.765625 809.796875 Z M 87.816406 408.308594 L 401.289062 721.777344 C 228.691406 721.777344 87.816406 580.90625 87.816406 408.308594 Z M 404.765625 87.816406 C 509.894531 88.019531 603.078125 138.914062 661.265625 217.316406 L 661.871094 218.160156 L 616.105469 256.871094 C 568.890625 188.460938 490.925781 144.179688 402.636719 144.179688 C 402.199219 144.179688 401.726562 144.179688 401.289062 144.179688 C 401.253906 144.179688 401.253906 144.179688 401.21875 144.179688 C 400.746094 144.179688 400.207031 144.179688 399.632812 144.179688 C 288.292969 144.179688 193.625 215.492188 158.792969 314.953125 L 158.253906 316.742188 L 489.308594 647.832031 C 570.339844 619.648438 633.691406 549.246094 651.308594 464.671875 L 513.945312 464.671875 L 513.945312 404.796875 L 721.742188 404.796875 C 721.742188 556.234375 616.074219 683.03125 475.199219 714.722656 L 94.871094 334.359375 C 126.496094 193.488281 253.359375 87.816406 404.765625 87.816406 Z M 404.765625 87.816406 "/>
</g>
</svg>
