<svg width="400" height="400" viewBox="0 0 400 400" fill="none" xmlns="http://www.w3.org/2000/svg">
<ellipse cx="192" cy="200" rx="192" ry="200" fill="black"/>
<ellipse cx="196" cy="195.833" rx="148" ry="154.167" fill="white"/>
<path fill-rule="evenodd" clip-rule="evenodd" d="M195.831 33.3333C109.78 33.3333 40.0004 106.02 40.0004 195.685C40.0004 267.398 84.6493 328.247 146.586 349.717C154.378 351.206 157.222 346.2 157.222 341.897C157.222 338.042 157.091 327.829 157.013 314.287C113.663 324.094 104.521 292.519 104.521 292.519C97.4289 273.769 87.2211 268.778 87.2211 268.778C73.0662 258.699 88.2868 258.915 88.2868 258.915C103.922 260.066 112.156 275.65 112.156 275.65C126.053 300.461 148.637 293.291 157.507 289.137C158.923 278.653 162.949 271.498 167.402 267.439C132.793 263.34 96.4157 249.419 96.4157 187.203C96.4157 169.481 102.494 154.993 112.456 143.642C110.858 139.529 105.507 123.026 113.987 100.676C113.987 100.676 127.078 96.308 156.844 117.317C169.274 113.718 182.611 111.919 195.858 111.851C209.092 111.919 222.429 113.718 234.87 117.317C264.625 96.308 277.688 100.676 277.688 100.676C286.196 123.026 280.845 139.529 279.235 143.642C289.222 154.993 295.248 169.481 295.248 187.203C295.248 249.568 258.806 263.285 224.091 267.303C229.689 272.309 234.676 282.225 234.676 297.362C234.676 319.062 234.481 336.567 234.481 341.897C234.481 346.241 237.286 351.285 245.195 349.702C307.079 328.18 351.689 267.384 351.689 195.685C351.689 106.02 281.909 33.3333 195.831 33.3333Z" fill="black"/>
</svg>
