<?xml version="1.0" encoding="UTF-8"?>
<svg xmlns="http://www.w3.org/2000/svg" xmlns:xlink="http://www.w3.org/1999/xlink" width="810pt" height="809.999993pt" viewBox="0 0 810 809.999993" version="1.2">
<g id="surface1">
<path style=" stroke:none;fill-rule:nonzero;fill:rgb(87.059021%,29.798889%,21.179199%);fill-opacity:1;" d="M 789.6875 369.359375 L 442.089844 21.792969 C 422.09375 1.765625 389.625 1.765625 369.597656 21.785156 L 297.402344 93.96875 L 388.972656 185.535156 C 410.246094 178.34375 434.65625 183.167969 451.605469 200.128906 C 468.648438 217.199219 473.4375 241.808594 466.070312 263.15625 L 554.328125 351.414062 C 575.664062 344.046875 600.292969 348.804688 617.367188 365.878906 C 641.191406 389.699219 641.191406 428.324219 617.367188 452.148438 C 593.515625 476 554.917969 476 531.066406 452.148438 C 513.121094 434.203125 508.707031 407.890625 517.785156 385.8125 L 435.496094 303.507812 L 435.464844 520.066406 C 441.28125 522.960938 446.757812 526.785156 451.605469 531.605469 C 475.429688 555.429688 475.429688 594.054688 451.605469 617.90625 C 427.785156 641.730469 389.128906 641.730469 365.335938 617.90625 C 341.515625 594.054688 341.515625 555.429688 365.335938 531.605469 C 371.214844 525.726562 378.027344 521.28125 385.304688 518.296875 L 385.304688 299.714844 C 378.027344 296.746094 371.246094 292.324219 365.335938 286.402344 C 347.269531 268.371094 342.945312 241.878906 352.183594 219.707031 L 261.933594 129.433594 L 23.589844 367.773438 C 3.558594 387.800781 3.558594 420.269531 23.589844 440.296875 L 371.1875 787.898438 C 391.214844 807.894531 423.683594 807.894531 443.710938 787.898438 L 789.695312 441.914062 C 809.722656 421.886719 809.722656 389.386719 789.695312 369.359375 "/>
</g>
</svg>
