<?xml version="1.0" encoding="UTF-8"?>
<svg xmlns="http://www.w3.org/2000/svg" xmlns:xlink="http://www.w3.org/1999/xlink" width="810pt" height="809.999993pt" viewBox="0 0 810 809.999993" version="1.2">
<defs>
<clipPath id="clip1">
  <path d="M 0.644531 18 L 809.894531 18 L 809.894531 800.171875 L 0.644531 800.171875 Z M 0.644531 18 "/>
</clipPath>
</defs>
<g id="surface1">
<g clip-path="url(#clip1)" clip-rule="nonzero">
<path style=" stroke:none;fill-rule:evenodd;fill:rgb(0%,0%,0%);fill-opacity:1;" d="M 405.609375 18.109375 C 181.984375 18.109375 0.644531 199.449219 0.644531 423.144531 C 0.644531 602.054688 116.675781 753.859375 277.632812 807.421875 C 297.882812 811.136719 305.273438 798.648438 305.273438 787.914062 C 305.273438 778.296875 304.933594 752.816406 304.730469 719.03125 C 192.074219 743.5 168.316406 664.726562 168.316406 664.726562 C 149.886719 617.949219 123.359375 605.496094 123.359375 605.496094 C 86.574219 580.351562 126.128906 580.890625 126.128906 580.890625 C 166.761719 583.761719 188.160156 622.640625 188.160156 622.640625 C 224.273438 684.539062 282.964844 666.652344 306.015625 656.289062 C 309.695312 630.132812 320.15625 612.28125 331.730469 602.15625 C 241.789062 591.929688 147.253906 557.199219 147.253906 401.984375 C 147.253906 357.769531 163.050781 321.625 188.9375 293.308594 C 184.785156 283.046875 170.878906 241.875 192.917969 186.117188 C 192.917969 186.117188 226.9375 175.21875 304.292969 227.632812 C 336.59375 218.652344 371.253906 214.164062 405.679688 213.996094 C 440.070312 214.164062 474.730469 218.652344 507.0625 227.632812 C 584.386719 175.21875 618.335938 186.117188 618.335938 186.117188 C 640.445312 241.875 626.539062 283.046875 622.355469 293.308594 C 648.308594 321.625 663.96875 357.769531 663.96875 401.984375 C 663.96875 557.570312 569.265625 591.792969 479.050781 601.816406 C 493.597656 614.304688 506.558594 639.042969 506.558594 676.808594 C 506.558594 730.945312 506.050781 774.617188 506.050781 787.914062 C 506.050781 798.75 513.339844 811.335938 533.894531 807.386719 C 694.714844 753.691406 810.644531 602.019531 810.644531 423.144531 C 810.644531 199.449219 629.304688 18.109375 405.609375 18.109375 Z M 405.609375 18.109375 "/>
</g>
</g>
</svg>
