<svg width="400" height="400" viewBox="0 0 400 400" fill="none" xmlns="http://www.w3.org/2000/svg">
<ellipse cx="192" cy="200" rx="192" ry="200" fill="#141414"/>
<ellipse cx="198" cy="195.833" rx="148" ry="154.167" fill="#92D7FB"/>
<path fill-rule="evenodd" clip-rule="evenodd" d="M195.657 25C106.02 25 33.3333 97.6872 33.3333 187.352C33.3333 259.065 79.8426 319.914 144.36 341.383C152.477 342.872 155.439 337.867 155.439 333.564C155.439 329.709 155.303 319.496 155.221 305.953C110.065 315.761 100.542 284.186 100.542 284.186C93.1547 265.436 82.5216 260.445 82.5216 260.445C67.7769 250.366 83.6317 250.582 83.6317 250.582C99.9187 251.733 108.496 267.317 108.496 267.317C122.971 292.128 146.497 284.958 155.736 280.804C157.211 270.32 161.404 263.164 166.044 259.106C129.992 255.007 92.0993 241.086 92.0993 178.87C92.0993 161.147 98.4313 146.659 108.808 135.309C107.143 131.196 101.569 114.693 110.403 92.3432C110.403 92.3432 124.039 87.9748 155.046 108.984C167.993 105.384 181.886 103.585 195.685 103.518C209.47 103.585 223.363 105.384 236.323 108.984C267.317 87.9748 280.925 92.3432 280.925 92.3432C289.787 114.693 284.213 131.196 282.536 135.309C292.939 146.659 299.216 161.147 299.216 178.87C299.216 241.234 261.256 254.952 225.095 258.97C230.926 263.975 236.121 273.891 236.121 289.029C236.121 310.729 235.917 328.234 235.917 333.564C235.917 337.907 238.839 342.952 247.078 341.369C311.54 319.846 358.009 259.051 358.009 187.352C358.009 97.6872 285.322 25 195.657 25Z" fill="#141414"/>
</svg>
