<svg width="169" height="62" viewBox="0 0 169 62" fill="none" xmlns="http://www.w3.org/2000/svg">
<rect x="26.6403" y="1.18945" width="5.81434" height="33.4325" transform="rotate(45 26.6403 1.18945)" fill="#834ADF"/>
<rect x="22.9547" y="5.36768" width="5.81434" height="33.4325" transform="rotate(-45 22.9547 5.36768)" fill="#834ADF"/>
<rect x="40.2643" y="10.8359" width="5.81434" height="11.3644" fill="#834ADF"/>
<rect x="40.2643" y="5.41797" width="5.81434" height="3.70003" fill="#834ADF"/>
<rect x="40.2643" width="5.81434" height="3.70003" fill="#834ADF"/>
<path d="M15.5186 43.864H26.928V59.7323C25.3834 60.286 23.7369 60.7086 21.9883 61C20.2689 61.2914 18.3746 61.4371 16.3054 61.4371C13.362 61.4371 10.8411 60.8106 8.74286 59.5574C6.67371 58.3043 5.08543 56.4829 3.978 54.0931C2.87057 51.7034 2.31686 48.7891 2.31686 45.3503C2.31686 42.0863 2.91429 39.2594 4.10914 36.8697C5.304 34.48 7.038 32.6294 9.31114 31.318C11.5843 30.0066 14.3674 29.3509 17.6606 29.3509C19.3217 29.3509 20.91 29.5257 22.4254 29.8754C23.97 30.196 25.3689 30.6477 26.622 31.2306L24.6549 35.8206C23.6349 35.3251 22.5274 34.9171 21.3326 34.5966C20.1669 34.2469 18.9137 34.072 17.5731 34.072C15.5914 34.072 13.9157 34.5383 12.546 35.4709C11.2054 36.4034 10.1709 37.7294 9.44229 39.4489C8.74286 41.1391 8.39314 43.1354 8.39314 45.4377C8.39314 47.6526 8.69914 49.6197 9.31114 51.3391C9.92314 53.0294 10.8411 54.3554 12.0651 55.3171C13.3183 56.2497 14.9357 56.716 16.9174 56.716C17.5294 56.716 18.0977 56.6869 18.6223 56.6286C19.1469 56.5703 19.6277 56.4974 20.0649 56.41C20.5311 56.3226 20.9391 56.2351 21.2889 56.1477V48.6289H15.5186V43.864ZM51.3008 49.1097C51.3008 51.0914 51.0531 52.84 50.5576 54.3554C50.0622 55.8709 49.3336 57.1677 48.3719 58.246C47.4393 59.2951 46.3028 60.0966 44.9622 60.6503C43.6216 61.1749 42.1208 61.4371 40.4596 61.4371C38.9151 61.4371 37.4725 61.1749 36.1319 60.6503C34.8205 60.0966 33.6839 59.2951 32.7222 58.246C31.7896 57.1677 31.061 55.8709 30.5365 54.3554C30.0119 52.84 29.7496 51.0914 29.7496 49.1097C29.7496 46.4869 30.1722 44.272 31.0173 42.4651C31.8916 40.6291 33.1448 39.2449 34.7768 38.3123C36.4088 37.3506 38.3468 36.8697 40.5908 36.8697C42.6891 36.8697 44.5396 37.3506 46.1425 38.3123C47.7453 39.2449 48.9985 40.6291 49.9019 42.4651C50.8345 44.272 51.3008 46.4869 51.3008 49.1097ZM35.6511 49.1097C35.6511 50.7709 35.8259 52.1989 36.1756 53.3937C36.5253 54.5594 37.0499 55.4483 37.7493 56.0603C38.4779 56.6723 39.4105 56.9783 40.5471 56.9783C41.6836 56.9783 42.6016 56.6723 43.3011 56.0603C44.0296 55.4483 44.5542 54.5594 44.8748 53.3937C45.2245 52.1989 45.3993 50.7709 45.3993 49.1097C45.3993 47.4194 45.2245 46.006 44.8748 44.8694C44.5251 43.7037 43.9859 42.8294 43.2573 42.2466C42.5579 41.6346 41.6399 41.3286 40.5033 41.3286C38.7839 41.3286 37.5453 41.9989 36.7876 43.3394C36.0299 44.68 35.6511 46.6034 35.6511 49.1097Z" fill="#834ADF"/>
<path d="M70.3491 61L62.7429 35.4271H62.568C62.5971 36.01 62.6409 36.8406 62.6991 37.9189C62.7574 38.968 62.8011 40.1191 62.8303 41.3723C62.8886 42.5963 62.9177 43.7474 62.9177 44.8257V61H57.672V29.788H65.7154L73.1469 54.3117H73.278L80.8406 29.788H88.9277V61H83.4197V44.5634C83.4197 43.5726 83.4343 42.4943 83.4634 41.3286C83.4926 40.1337 83.5363 39.0117 83.5946 37.9626C83.6529 36.8843 83.6966 36.0537 83.7257 35.4709H83.5509L75.726 61H70.3491ZM102.427 36.8697C104.467 36.8697 106.216 37.3069 107.673 38.1811C109.159 39.0263 110.31 40.2503 111.126 41.8531C111.942 43.4269 112.35 45.3503 112.35 47.6234V50.4211H97.8372C97.8955 52.5777 98.4201 54.2534 99.4109 55.4483C100.431 56.614 101.859 57.1969 103.695 57.1969C105.152 57.1969 106.449 57.0511 107.586 56.7597C108.722 56.4391 109.902 55.9874 111.126 55.4046V59.8197C110.019 60.3734 108.868 60.7814 107.673 61.0437C106.478 61.306 105.006 61.4371 103.258 61.4371C101.043 61.4371 99.0758 61 97.3564 60.1257C95.6661 59.2223 94.3401 57.8671 93.3784 56.0603C92.4167 54.2534 91.9358 52.0094 91.9358 49.3283C91.9358 46.618 92.3729 44.3449 93.2472 42.5089C94.1215 40.6437 95.3455 39.2449 96.9192 38.3123C98.5221 37.3506 100.358 36.8697 102.427 36.8697ZM102.515 40.9351C101.203 40.9351 100.14 41.416 99.3235 42.3777C98.5367 43.3103 98.0704 44.7091 97.9247 46.5743H106.842C106.842 45.4669 106.682 44.4906 106.362 43.6454C106.041 42.8003 105.56 42.1446 104.919 41.6783C104.307 41.1829 103.506 40.9351 102.515 40.9351ZM123.791 61.4371C121.255 61.4371 119.201 60.4171 117.627 58.3771C116.053 56.308 115.267 53.248 115.267 49.1971C115.267 45.1463 116.068 42.0863 117.671 40.0171C119.274 37.9189 121.372 36.8697 123.966 36.8697C125.044 36.8697 125.977 37.03 126.763 37.3506C127.579 37.642 128.279 38.05 128.862 38.5746C129.445 39.0991 129.955 39.682 130.392 40.3231H130.567C130.508 39.9151 130.435 39.2886 130.348 38.4434C130.261 37.5983 130.217 36.8114 130.217 36.0829V27.7771H136.031V61H131.572L130.479 57.8963H130.217C129.838 58.5374 129.357 59.1349 128.774 59.6886C128.191 60.2131 127.492 60.6357 126.676 60.9563C125.86 61.2769 124.898 61.4371 123.791 61.4371ZM125.714 56.9783C127.492 56.9783 128.745 56.3954 129.474 55.2297C130.202 54.064 130.567 52.3009 130.567 49.9403V49.2409C130.567 46.6763 130.217 44.7237 129.517 43.3831C128.818 42.0426 127.536 41.3723 125.671 41.3723C124.213 41.3723 123.091 42.0717 122.305 43.4706C121.547 44.8403 121.168 46.7783 121.168 49.2846C121.168 51.7909 121.561 53.6997 122.348 55.0111C123.135 56.3226 124.257 56.9783 125.714 56.9783ZM144.852 37.3069V61H139.082V37.3069H144.852ZM142.011 28.1706C142.856 28.1706 143.585 28.3891 144.197 28.8263C144.809 29.2343 145.115 29.9774 145.115 31.0557C145.115 32.1049 144.809 32.8626 144.197 33.3289C143.585 33.766 142.856 33.9846 142.011 33.9846C141.107 33.9846 140.35 33.766 139.738 33.3289C139.126 32.8626 138.82 32.1049 138.82 31.0557C138.82 29.9774 139.126 29.2343 139.738 28.8263C140.35 28.3891 141.107 28.1706 142.011 28.1706ZM159.118 36.8697C161.974 36.8697 164.16 37.54 165.675 38.8806C167.191 40.192 167.948 42.2611 167.948 45.088V61H163.883L162.746 57.7214H162.572C161.93 58.5666 161.275 59.2806 160.604 59.8634C159.934 60.4171 159.162 60.8106 158.288 61.0437C157.413 61.306 156.364 61.4371 155.14 61.4371C153.829 61.4371 152.648 61.1749 151.599 60.6503C150.55 60.1257 149.72 59.3243 149.108 58.246C148.496 57.1386 148.19 55.7543 148.19 54.0931C148.19 51.6451 149.035 49.8091 150.725 48.5851C152.415 47.332 154.951 46.6471 158.331 46.5306L162.134 46.3994V45.2191C162.134 43.7037 161.814 42.6254 161.173 41.9843C160.532 41.3431 159.657 41.0226 158.55 41.0226C157.501 41.0226 156.437 41.1974 155.359 41.5471C154.31 41.8969 153.275 42.3049 152.255 42.7711L150.463 38.9243C151.658 38.3123 152.984 37.8169 154.441 37.438C155.898 37.0591 157.457 36.8697 159.118 36.8697ZM159.686 49.8966C157.617 49.984 156.175 50.4066 155.359 51.1643C154.543 51.8929 154.135 52.8837 154.135 54.1369C154.135 55.2443 154.412 56.0457 154.965 56.5411C155.548 57.0366 156.306 57.2843 157.238 57.2843C158.608 57.2843 159.774 56.8326 160.736 55.9291C161.697 54.9966 162.178 53.6269 162.178 51.82V49.8091L159.686 49.8966Z" fill="white"/>
</svg>
