<?xml version="1.0" encoding="UTF-8"?>
<svg xmlns="http://www.w3.org/2000/svg" xmlns:xlink="http://www.w3.org/1999/xlink" width="810pt" height="809.999993pt" viewBox="0 0 810 809.999993" version="1.2">
<g id="surface1">
<path style=" stroke:none;fill-rule:evenodd;fill:rgb(89.7995%,20.779419%,67.059326%);fill-opacity:1;" d="M 474.109375 93.789062 L 640.253906 189.671875 C 644.945312 184.71875 650.394531 180.347656 656.601562 176.75 C 691.074219 156.949219 735.011719 168.703125 755.042969 203.148438 C 774.847656 237.589844 763.078125 281.519531 728.605469 301.53125 C 722.453125 305.070312 715.992188 307.597656 709.417969 309.167969 L 709.417969 501 C 715.9375 502.570312 722.3125 505.097656 728.410156 508.609375 C 763.078125 528.601562 774.847656 572.542969 754.816406 606.96875 C 735.011719 641.417969 690.847656 653.183594 656.40625 633.359375 C 649.523438 629.429688 643.566406 624.515625 638.59375 618.929688 L 473.433594 714.226562 C 475.792969 721.359375 477.085938 728.96875 477.085938 736.914062 C 477.085938 776.503906 444.890625 808.878906 405.054688 808.878906 C 365.21875 808.878906 333.023438 776.699219 333.023438 736.914062 C 333.023438 729.835938 334.0625 722.988281 335.945312 716.554688 L 169.832031 620.695312 C 165.203125 625.527344 159.8125 629.824219 153.714844 633.359375 C 119.046875 653.183594 75.09375 641.417969 55.28125 606.96875 C 35.472656 572.542969 47.234375 528.601562 81.695312 508.609375 C 87.789062 505.097656 94.179688 502.570312 100.679688 501 L 100.679688 309.167969 C 94.101562 307.597656 87.640625 305.070312 81.488281 301.53125 C 47.027344 281.726562 35.265625 237.589844 55.074219 203.148438 C 74.886719 168.703125 119.046875 156.949219 153.507812 176.75 C 159.671875 180.328125 165.113281 184.671875 169.773438 189.59375 L 335.972656 93.683594 C 334.0625 87.195312 333.023438 80.328125 333.023438 73.214844 C 333.023438 33.410156 365.21875 1.234375 405.054688 1.234375 C 444.890625 1.234375 477.085938 33.410156 477.085938 73.214844 C 477.085938 80.367188 476.046875 87.273438 474.109375 93.789062 Z M 456.773438 123.332031 L 623.339844 219.445312 C 618.199219 237.519531 620.082031 257.558594 630.195312 275.125 C 640.335938 292.742188 656.855469 304.453125 675.171875 309 L 675.171875 501.082031 C 674.246094 501.308594 673.320312 501.5625 672.390625 501.8125 L 454.863281 125.257812 C 455.511719 124.625 456.15625 123.984375 456.773438 123.332031 Z M 355.300781 125.296875 L 137.769531 501.882812 C 136.832031 501.601562 135.886719 501.347656 134.933594 501.09375 L 134.933594 309.011719 C 153.265625 304.464844 169.78125 292.753906 179.917969 275.136719 C 190.046875 257.53125 191.925781 237.449219 186.738281 219.347656 L 353.25 123.261719 C 353.925781 123.960938 354.597656 124.636719 355.300781 125.308594 Z M 425.167969 142.355469 L 642.667969 518.828125 C 637.78125 523.460938 633.511719 528.882812 629.96875 535.003906 C 626.488281 541.066406 623.957031 547.46875 622.386719 553.984375 L 187.722656 553.984375 C 186.144531 547.46875 183.628906 541.09375 180.128906 535.003906 C 176.59375 528.910156 172.3125 523.546875 167.46875 518.914062 L 384.996094 142.382812 C 391.34375 144.210938 398.085938 145.191406 405.054688 145.191406 C 412.050781 145.191406 418.792969 144.203125 425.167969 142.355469 Z M 458.320312 688.421875 L 623.789062 592.929688 C 623.285156 591.355469 622.863281 589.78125 622.46875 588.210938 L 187.640625 588.210938 C 187.402344 589.136719 187.152344 590.0625 186.882812 590.992188 L 353.167969 686.960938 C 366.257812 673.371094 384.660156 664.921875 405.054688 664.921875 C 426.179688 664.921875 445.144531 673.988281 458.320312 688.421875 Z M 458.320312 688.421875 "/>
</g>
</svg>
