<?xml version="1.0" encoding="UTF-8"?>
<svg xmlns="http://www.w3.org/2000/svg" xmlns:xlink="http://www.w3.org/1999/xlink" width="810pt" height="809.999993pt" viewBox="0 0 810 809.999993" version="1.2">
<defs>
<clipPath id="clip1">
  <path d="M 118 159 L 692.316406 159 L 692.316406 810 L 118 810 Z M 118 159 "/>
</clipPath>
</defs>
<g id="surface1">
<g clip-path="url(#clip1)" clip-rule="nonzero">
<path style=" stroke:none;fill-rule:nonzero;fill:rgb(89.408875%,30.198669%,14.898682%);fill-opacity:1;" d="M 692.300781 159.179688 L 640 744.828125 L 404.890625 809.96875 L 170.4375 744.917969 L 118.191406 159.179688 L 692.289062 159.171875 L 692.308594 159.171875 Z M 692.300781 159.179688 "/>
</g>
<path style=" stroke:none;fill-rule:nonzero;fill:rgb(94.509888%,39.608765%,16.079712%);fill-opacity:1;" d="M 405.25 760.175781 L 595.234375 707.539062 L 639.929688 207.078125 L 405.25 207.070312 Z M 405.25 760.175781 "/>
<path style=" stroke:none;fill-rule:nonzero;fill:rgb(92.158508%,92.158508%,92.158508%);fill-opacity:1;" d="M 303.574219 350.746094 L 405.25 350.746094 L 405.25 278.898438 L 225.027344 278.898438 L 226.746094 298.175781 L 244.410156 496.144531 L 405.25 496.144531 L 405.25 424.320312 L 310.144531 424.320312 Z M 303.574219 350.746094 "/>
<path style=" stroke:none;fill-rule:nonzero;fill:rgb(92.158508%,92.158508%,92.158508%);fill-opacity:1;" d="M 319.773438 532.066406 L 247.625 532.066406 L 257.691406 644.875 L 404.914062 685.722656 L 405.25 685.632812 L 405.25 610.886719 L 404.9375 610.976562 L 324.890625 589.359375 Z M 319.773438 532.066406 "/>
<path style=" stroke:none;fill-rule:nonzero;fill:rgb(0%,0%,0%);fill-opacity:1;" d="M 171.609375 0 L 208.132812 0 L 208.132812 36.070312 L 241.542969 36.070312 L 241.542969 0 L 278.070312 0 L 278.070312 109.226562 L 241.546875 109.226562 L 241.546875 72.648438 L 208.132812 72.648438 L 208.132812 109.226562 L 171.609375 109.226562 Z M 171.609375 0 "/>
<path style=" stroke:none;fill-rule:nonzero;fill:rgb(0%,0%,0%);fill-opacity:1;" d="M 326.105469 36.222656 L 293.949219 36.222656 L 293.949219 0 L 394.808594 0 L 394.808594 36.222656 L 362.628906 36.222656 L 362.628906 109.226562 L 326.105469 109.226562 Z M 326.105469 36.222656 "/>
<path style=" stroke:none;fill-rule:nonzero;fill:rgb(0%,0%,0%);fill-opacity:1;" d="M 410.808594 0 L 448.886719 0 L 472.316406 38.378906 L 495.71875 0 L 533.820312 0 L 533.820312 109.226562 L 497.453125 109.226562 L 497.453125 55.085938 L 472.316406 93.921875 L 471.683594 93.921875 L 446.546875 55.085938 L 446.546875 109.226562 L 410.808594 109.226562 Z M 410.808594 0 "/>
<path style=" stroke:none;fill-rule:nonzero;fill:rgb(0%,0%,0%);fill-opacity:1;" d="M 552.003906 0 L 588.53125 0 L 588.53125 73.121094 L 639.910156 73.121094 L 639.910156 109.226562 L 552.003906 109.226562 Z M 552.003906 0 "/>
<path style=" stroke:none;fill-rule:nonzero;fill:rgb(100%,100%,100%);fill-opacity:1;" d="M 405.003906 496.144531 L 493.515625 496.144531 L 485.164062 589.3125 L 405.003906 610.953125 L 405.003906 685.675781 L 552.34375 644.875 L 553.421875 632.726562 L 570.324219 443.597656 L 572.078125 424.320312 L 405.003906 424.320312 Z M 405.003906 496.144531 "/>
<path style=" stroke:none;fill-rule:nonzero;fill:rgb(100%,100%,100%);fill-opacity:1;" d="M 405.003906 350.566406 L 405.003906 350.746094 L 578.605469 350.746094 L 580.046875 334.59375 L 583.332031 298.175781 L 585.042969 278.898438 L 405.003906 278.898438 Z M 405.003906 350.566406 "/>
</g>
</svg>
