<?xml version="1.0" encoding="UTF-8"?>
<svg xmlns="http://www.w3.org/2000/svg" xmlns:xlink="http://www.w3.org/1999/xlink" width="810pt" height="809.999993pt" viewBox="0 0 810 809.999993" version="1.2">
<g id="surface1">
<path style=" stroke:none;fill-rule:nonzero;fill:rgb(14.898682%,7.058716%,0%);fill-opacity:1;" d="M 742.5 0 L 67.5 0 C 30.238281 0 0 30.207031 0 67.5 L 0 742.5 C 0 779.792969 30.238281 810 67.5 810 L 742.5 810 C 779.761719 810 810 779.792969 810 742.5 L 810 67.5 C 810 30.207031 779.761719 0 742.5 0 Z M 742.5 0 "/>
<path style=" stroke:none;fill-rule:nonzero;fill:rgb(100%,48.629761%,0%);fill-opacity:1;" d="M 742.5 33.75 C 761.097656 33.75 776.25 48.902344 776.25 67.5 L 776.25 742.5 C 776.25 761.097656 761.097656 776.25 742.5 776.25 L 67.5 776.25 C 48.902344 776.25 33.75 761.097656 33.75 742.5 L 33.75 67.5 C 33.75 48.902344 48.902344 33.75 67.5 33.75 Z M 742.5 0 L 67.5 0 C 30.238281 0 0 30.207031 0 67.5 L 0 742.5 C 0 779.792969 30.238281 810 67.5 810 L 742.5 810 C 779.761719 810 810 779.792969 810 742.5 L 810 67.5 C 810 30.207031 779.761719 0 742.5 0 Z M 742.5 0 "/>
<path style=" stroke:none;fill-rule:nonzero;fill:rgb(100%,48.629761%,0%);fill-opacity:1;" d="M 591.671875 548.167969 C 591.671875 550.96875 591.132812 552.082031 587.789062 552.082031 L 535.476562 552.082031 C 532.101562 552.082031 530.988281 550.394531 530.988281 547.695312 L 530.988281 281.476562 L 530.71875 281.507812 C 530.71875 278.808594 531.832031 277.796875 534.632812 277.796875 L 587.621094 277.796875 C 590.589844 277.796875 591.671875 278.910156 591.671875 281.710938 Z M 591.671875 548.167969 "/>
<path style=" stroke:none;fill-rule:nonzero;fill:rgb(100%,48.629761%,0%);fill-opacity:1;" d="M 560.890625 239.289062 C 540.640625 239.289062 526.804688 227.035156 526.804688 204.761719 L 526.9375 204.761719 C 526.9375 183.058594 541.957031 170.234375 561.464844 170.234375 C 582.050781 170.234375 595.992188 184.140625 595.992188 204.761719 C 595.992188 227.035156 581.480469 239.289062 560.890625 239.289062 Z M 560.890625 239.289062 "/>
<path style=" stroke:none;fill-rule:nonzero;fill:rgb(100%,48.629761%,0%);fill-opacity:1;" d="M 372.9375 183.058594 C 372.398438 180.292969 371.25 179.683594 369.023438 179.683594 L 298.28125 179.683594 C 296.59375 179.683594 295.480469 180.832031 295.480469 183.058594 C 294.941406 199.765625 293.859375 205.097656 292.171875 211.171875 L 196.324219 546.816406 C 195.816406 550.699219 196.324219 551.8125 199.699219 551.8125 L 249.242188 551.8125 C 252.550781 551.8125 253.664062 551.171875 254.238281 548.371094 L 280.96875 447.1875 L 280.867188 447.152344 L 389.105469 447.152344 L 416.949219 548.910156 C 417.488281 551.136719 419.140625 551.8125 421.941406 551.8125 L 477.628906 551.8125 C 480.429688 551.8125 481.003906 550.160156 480.429688 547.359375 Z M 295.414062 392.34375 C 309.351562 340.03125 327.171875 273.207031 334.394531 233.71875 L 334.96875 233.71875 C 343.339844 273.273438 365.613281 355.015625 375.0625 392.34375 Z M 295.414062 392.34375 "/>
</g>
</svg>
