<?xml version="1.0" encoding="UTF-8"?>
<svg xmlns="http://www.w3.org/2000/svg" xmlns:xlink="http://www.w3.org/1999/xlink" width="810pt" height="809.999993pt" viewBox="0 0 810 809.999993" version="1.2">
<g id="surface1">
<path style=" stroke:none;fill-rule:nonzero;fill:rgb(0%,0%,0%);fill-opacity:1;" d="M 405 320.542969 C 358.4375 320.542969 320.542969 358.4375 320.542969 405 C 320.542969 451.5625 358.4375 489.457031 405 489.457031 C 451.5625 489.457031 489.457031 451.566406 489.457031 405 C 489.457031 358.433594 451.566406 320.542969 405 320.542969 Z M 405 320.542969 "/>
<path style=" stroke:none;fill-rule:nonzero;fill:rgb(0%,0%,0%);fill-opacity:1;" d="M 526.496094 272.585938 C 520.472656 272.585938 515.566406 277.480469 515.566406 283.503906 C 515.566406 289.527344 520.472656 294.425781 526.496094 294.425781 C 532.519531 294.425781 537.421875 289.527344 537.421875 283.503906 C 537.421875 277.480469 532.519531 272.585938 526.496094 272.585938 Z M 526.496094 272.585938 "/>
<path style=" stroke:none;fill-rule:nonzero;fill:rgb(0%,0%,0%);fill-opacity:1;" d="M 405 0 C 181.710938 0 0 181.710938 0 405 C 0 628.289062 181.710938 810 405 810 C 628.289062 810 810 628.289062 810 405 C 810 181.710938 628.289062 0 405 0 Z M 636.429688 477.894531 C 636.429688 565.308594 565.304688 636.429688 477.894531 636.429688 L 332.101562 636.429688 C 244.691406 636.429688 173.570312 565.304688 173.570312 477.894531 L 173.570312 332.105469 C 173.570312 244.691406 244.691406 173.570312 332.101562 173.570312 L 477.894531 173.570312 C 565.304688 173.570312 636.429688 244.691406 636.429688 332.105469 Z M 636.429688 477.894531 "/>
<path style=" stroke:none;fill-rule:nonzero;fill:rgb(0%,0%,0%);fill-opacity:1;" d="M 477.894531 206.726562 L 332.101562 206.726562 C 262.972656 206.726562 206.722656 262.976562 206.722656 332.105469 L 206.722656 477.894531 C 206.722656 547.027344 262.972656 603.273438 332.101562 603.273438 L 477.894531 603.273438 C 547.023438 603.273438 603.273438 547.023438 603.273438 477.894531 L 603.273438 332.105469 C 603.273438 262.976562 547.027344 206.726562 477.894531 206.726562 Z M 405 522.609375 C 340.152344 522.609375 287.390625 469.847656 287.390625 405 C 287.390625 340.152344 340.152344 287.390625 405 287.390625 C 469.847656 287.390625 522.609375 340.152344 522.609375 405 C 522.609375 469.847656 469.847656 522.609375 405 522.609375 Z M 526.496094 327.574219 C 502.1875 327.574219 482.421875 307.808594 482.421875 283.503906 C 482.421875 259.199219 502.1875 239.433594 526.496094 239.433594 C 550.796875 239.433594 570.5625 259.199219 570.5625 283.503906 C 570.566406 307.8125 550.800781 327.574219 526.496094 327.574219 Z M 526.496094 327.574219 "/>
</g>
</svg>
