<svg width="400" height="400" viewBox="0 0 400 400" fill="none" xmlns="http://www.w3.org/2000/svg">
<ellipse cx="200" cy="200" rx="183.333" ry="183.333" fill="#92D7FB"/>
<path d="M200 158.292C177.006 158.292 158.293 177.006 158.293 200C158.293 222.993 177.006 241.707 200 241.707C222.994 241.707 241.707 222.995 241.707 200C241.707 177.004 222.996 158.292 200 158.292Z" fill="#141414"/>
<path d="M259.998 134.611C257.023 134.611 254.601 137.028 254.601 140.002C254.601 142.977 257.023 145.396 259.998 145.396C262.973 145.396 265.393 142.977 265.393 140.002C265.393 137.028 262.973 134.611 259.998 134.611Z" fill="#141414"/>
<path d="M200 0C89.7338 0 0 89.7338 0 200C0 310.266 89.7338 400 200 400C310.266 400 400 310.266 400 200C400 89.7338 310.266 0 200 0ZM314.286 235.997C314.286 279.165 279.163 314.286 235.997 314.286H164.001C120.835 314.286 85.7137 279.163 85.7137 235.997V164.003C85.7137 120.835 120.835 85.7137 164.001 85.7137H235.997C279.163 85.7137 314.286 120.835 314.286 164.003V235.997Z" fill="#141414"/>
<path d="M235.997 102.087H164.001C129.863 102.087 102.085 129.865 102.085 164.003V235.998C102.085 270.137 129.863 297.913 164.001 297.913H235.997C270.135 297.913 297.913 270.135 297.913 235.998V164.003C297.913 129.865 270.137 102.087 235.997 102.087ZM200 258.079C167.977 258.079 141.921 232.024 141.921 200C141.921 167.977 167.977 141.922 200 141.922C232.024 141.922 258.079 167.977 258.079 200C258.079 232.024 232.024 258.079 200 258.079ZM259.998 161.765C247.994 161.765 238.233 152.004 238.233 140.002C238.233 128 247.994 118.239 259.998 118.239C271.999 118.239 281.759 128 281.759 140.002C281.761 152.006 272 161.765 259.998 161.765Z" fill="#141414"/>
</svg>
