<svg width="400" height="400" viewBox="0 0 400 400" fill="none" xmlns="http://www.w3.org/2000/svg">
<path d="M199.423 1.2041C196.176 1.2041 192.932 1.28319 189.689 1.4433C186.447 1.60148 183.21 1.84068 179.979 2.15896C176.747 2.47725 173.526 2.87463 170.314 3.35109C167.102 3.82756 163.904 4.38119 160.719 5.01583C157.536 5.64855 154.369 6.36035 151.219 7.14932C148.071 7.93828 144.942 8.80441 141.834 9.74577C138.729 10.6891 135.646 11.7076 132.589 12.8013C129.533 13.8951 126.504 15.0621 123.505 16.3044C120.505 17.5486 117.538 18.8623 114.602 20.2512C111.668 21.6401 108.769 23.0984 105.904 24.63C103.042 26.1597 100.218 27.7589 97.4323 29.4294C94.6487 31.098 91.9057 32.8341 89.207 34.6377C86.5063 36.4433 83.852 38.3106 81.2459 40.2454C78.6379 42.1802 76.0781 44.1767 73.5685 46.2369C71.0588 48.2971 68.6013 50.4171 66.1958 52.5968C63.7903 54.7766 61.4388 57.0162 59.1433 59.3117C56.8478 61.6073 54.6101 63.9587 52.4284 66.3642C50.2486 68.7697 48.1286 71.2273 46.0685 73.7369C44.0102 76.2465 42.0117 78.8063 40.0789 81.4144C38.1441 84.0224 36.2749 86.6748 34.4712 89.3754C32.6676 92.0741 30.9315 94.8171 29.2629 97.6026C27.5924 100.386 25.9932 103.21 24.4635 106.075C22.9319 108.938 21.4736 111.837 20.0847 114.773C18.6958 117.707 17.3821 120.676 16.1379 123.675C14.8956 126.675 13.7286 129.703 12.6348 132.759C11.5411 135.816 10.5226 138.899 9.57926 142.007C8.63791 145.112 7.77178 148.241 6.98281 151.391C6.19385 154.539 5.48204 157.707 4.84933 160.892C4.21661 164.076 3.66105 167.275 3.18459 170.487C2.70812 173.698 2.31075 176.92 1.99246 180.151C1.67417 183.382 1.43497 186.619 1.2768 189.862C1.11669 193.104 1.0376 196.349 1.0376 199.597C1.0376 202.844 1.11669 206.088 1.2768 209.331C1.43497 212.574 1.67417 215.811 1.99246 219.042C2.31075 222.273 2.70812 225.494 3.18459 228.706C3.66105 231.918 4.21661 235.116 4.84933 238.301C5.48204 241.486 6.19385 244.653 6.98281 247.801C7.77178 250.951 8.63791 254.08 9.57926 257.186C10.5226 260.294 11.5411 263.376 12.6348 266.434C13.7286 269.489 14.8956 272.518 16.1379 275.517C17.3821 278.517 18.6958 281.486 20.0847 284.42C21.4736 287.356 22.9319 290.255 24.4635 293.118C25.9932 295.982 27.5924 298.806 29.2629 301.59C30.9315 304.375 32.6676 307.118 34.4712 309.817C36.2749 312.518 38.1441 315.17 40.0789 317.778C42.0117 320.386 44.0102 322.946 46.0685 325.456C48.1286 327.965 50.2486 330.423 52.4284 332.828C54.6101 335.234 56.8478 337.585 59.1433 339.881C61.4388 342.176 63.7903 344.416 66.1958 346.596C68.6013 348.775 71.0588 350.895 73.5685 352.956C76.0781 355.016 78.6379 357.012 81.2459 358.947C83.852 360.882 86.5063 362.749 89.207 364.555C91.9057 366.358 94.6487 368.095 97.4323 369.763C100.218 371.434 103.042 373.033 105.904 374.563C108.769 376.094 111.668 377.552 114.602 378.941C117.538 380.33 120.505 381.644 123.505 382.888C126.504 384.13 129.533 385.297 132.589 386.391C135.646 387.485 138.729 388.503 141.834 389.447C144.942 390.388 148.071 391.254 151.219 392.043C154.369 392.832 157.536 393.544 160.719 394.177C163.904 394.811 167.102 395.365 170.314 395.841C173.526 396.318 176.747 396.715 179.979 397.034C183.21 397.352 186.447 397.591 189.689 397.751C192.932 397.909 196.176 397.988 199.423 397.988C202.67 397.988 205.914 397.909 209.157 397.751C212.399 397.591 215.638 397.352 218.869 397.034C222.1 396.715 225.32 396.318 228.532 395.841C231.744 395.365 234.942 394.811 238.127 394.177C241.312 393.544 244.477 392.832 247.627 392.043C250.777 391.254 253.904 390.388 257.012 389.447C260.119 388.503 263.2 387.485 266.258 386.391C269.315 385.297 272.342 384.13 275.341 382.888C278.341 381.644 281.31 380.33 284.244 378.941C287.18 377.552 290.079 376.094 292.942 374.563C295.804 373.033 298.628 371.434 301.414 369.763C304.199 368.095 306.94 366.358 309.641 364.555C312.34 362.749 314.994 360.882 317.602 358.947C320.21 357.012 322.768 355.016 325.278 352.956C327.787 350.895 330.245 348.775 332.65 346.596C335.056 344.416 337.407 342.176 339.703 339.881C341.998 337.585 344.238 335.234 346.418 332.828C348.597 330.423 350.717 327.965 352.778 325.456C354.838 322.946 356.834 320.386 358.767 317.778C360.702 315.17 362.571 312.518 364.375 309.817C366.178 307.118 367.915 304.375 369.585 301.59C371.254 298.806 372.853 295.982 374.384 293.118C375.914 290.255 377.374 287.356 378.761 284.42C380.15 281.486 381.466 278.517 382.708 275.517C383.95 272.518 385.117 269.489 386.211 266.434C387.305 263.376 388.323 260.294 389.267 257.186C390.208 254.08 391.074 250.951 391.863 247.801C392.652 244.653 393.364 241.486 393.997 238.301C394.629 235.116 395.185 231.918 395.661 228.706C396.138 225.494 396.535 222.273 396.854 219.042C397.172 215.811 397.411 212.574 397.569 209.331C397.729 206.088 397.808 202.844 397.808 199.597C397.808 196.349 397.729 193.104 397.569 189.862C397.411 186.619 397.172 183.382 396.854 180.151C396.535 176.92 396.138 173.698 395.661 170.487C395.185 167.275 394.629 164.076 393.997 160.892C393.364 157.707 392.652 154.539 391.863 151.391C391.074 148.241 390.208 145.112 389.267 142.007C388.323 138.899 387.305 135.816 386.211 132.759C385.117 129.703 383.95 126.675 382.708 123.675C381.466 120.676 380.15 117.707 378.761 114.773C377.374 111.837 375.914 108.938 374.384 106.075C372.853 103.21 371.254 100.386 369.585 97.6026C367.915 94.8171 366.178 92.0741 364.375 89.3754C362.571 86.6748 360.702 84.0224 358.767 81.4144C356.834 78.8063 354.838 76.2465 352.778 73.7369C350.717 71.2273 348.597 68.7697 346.418 66.3642C344.238 63.9587 341.998 61.6073 339.703 59.3117C337.407 57.0162 335.056 54.7766 332.65 52.5968C330.245 50.4171 327.787 48.2971 325.278 46.2369C322.768 44.1767 320.21 42.1802 317.602 40.2454C314.994 38.3106 312.34 36.4433 309.641 34.6377C306.94 32.8341 304.199 31.098 301.414 29.4294C298.628 27.7589 295.804 26.1597 292.942 24.63C290.079 23.0984 287.18 21.6401 284.244 20.2512C281.31 18.8623 278.341 17.5486 275.341 16.3044C272.342 15.0621 269.315 13.8951 266.258 12.8013C263.2 11.7076 260.119 10.6891 257.012 9.74577C253.904 8.80441 250.777 7.93828 247.627 7.14932C244.477 6.36035 241.312 5.64855 238.127 5.01583C234.942 4.38119 231.744 3.82756 228.532 3.35109C225.32 2.87463 222.1 2.47725 218.869 2.15896C215.638 1.84068 212.399 1.60148 209.157 1.4433C205.914 1.28319 202.67 1.2041 199.423 1.2041Z" fill="#141414"/>
<path d="M100.231 150H139.907V298.794H100.231V150ZM119.95 130.16H119.732C107.888 130.16 100.231 121.331 100.231 110.31C100.231 99.0525 108.127 90.4819 120.177 90.4819C132.249 90.4819 139.68 99.0525 139.907 110.31C139.907 121.331 132.249 130.16 119.95 130.16ZM308.536 204.558C308.536 174.421 284.114 150 253.979 150C235.509 150 219.213 159.205 209.342 173.25V150H169.666V298.794H209.342V219.436C209.342 202.999 222.664 189.678 239.101 189.678C255.536 189.678 268.858 202.999 268.858 219.436V298.794H308.536C308.536 298.794 308.536 208.734 308.536 204.558Z" fill="#92D7FB"/>
</svg>
