<svg width="400" height="400" viewBox="0 0 400 400" fill="none" xmlns="http://www.w3.org/2000/svg">
<path d="M199.423 1.20435C196.176 1.20435 192.932 1.28344 189.689 1.44354C186.447 1.60172 183.21 1.84092 179.979 2.15921C176.747 2.47749 173.526 2.87487 170.314 3.35134C167.102 3.8278 163.904 4.38143 160.719 5.01607C157.536 5.64879 154.369 6.3606 151.219 7.14956C148.071 7.93853 144.942 8.80465 141.834 9.74601C138.729 10.6893 135.646 11.7078 132.589 12.8016C129.533 13.8953 126.504 15.0624 123.505 16.3047C120.505 17.5489 117.538 18.8625 114.602 20.2514C111.668 21.6403 108.769 23.0986 105.904 24.6303C103.042 26.16 100.218 27.7591 97.4323 29.4297C94.6487 31.0983 91.9057 32.8344 89.207 34.638C86.5063 36.4435 83.852 38.3108 81.2459 40.2456C78.6379 42.1804 76.0781 44.177 73.5685 46.2371C71.0588 48.2973 68.6013 50.4173 66.1958 52.5971C63.7903 54.7769 61.4388 57.0165 59.1433 59.312C56.8478 61.6075 54.6101 63.959 52.4284 66.3645C50.2486 68.7699 48.1286 71.2275 46.0685 73.7371C44.0102 76.2468 42.0117 78.8066 40.0789 81.4146C38.1441 84.0226 36.2749 86.675 34.4712 89.3756C32.6676 92.0743 30.9315 94.8174 29.2629 97.6029C27.5924 100.386 25.9932 103.211 24.4635 106.075C22.9319 108.938 21.4736 111.837 20.0847 114.773C18.6958 117.707 17.3821 120.676 16.1379 123.675C14.8956 126.675 13.7286 129.704 12.6348 132.759C11.5411 135.817 10.5226 138.899 9.57926 142.007C8.63791 145.113 7.77178 148.241 6.98281 151.391C6.19385 154.54 5.48204 157.707 4.84933 160.892C4.21661 164.077 3.66105 167.275 3.18459 170.487C2.70812 173.699 2.31075 176.92 1.99246 180.151C1.67417 183.382 1.43497 186.619 1.2768 189.862C1.11669 193.104 1.0376 196.349 1.0376 199.597C1.0376 202.844 1.11669 206.089 1.2768 209.331C1.43497 212.574 1.67417 215.811 1.99246 219.042C2.31075 222.273 2.70812 225.494 3.18459 228.706C3.66105 231.918 4.21661 235.116 4.84933 238.301C5.48204 241.486 6.19385 244.653 6.98281 247.802C7.77178 250.952 8.63791 254.081 9.57926 257.186C10.5226 260.294 11.5411 263.376 12.6348 266.434C13.7286 269.489 14.8956 272.518 16.1379 275.518C17.3821 278.517 18.6958 281.486 20.0847 284.42C21.4736 287.356 22.9319 290.255 24.4635 293.118C25.9932 295.983 27.5924 298.807 29.2629 301.59C30.9315 304.376 32.6676 307.119 34.4712 309.817C36.2749 312.518 38.1441 315.17 40.0789 317.778C42.0117 320.386 44.0102 322.946 46.0685 325.456C48.1286 327.966 50.2486 330.423 52.4284 332.829C54.6101 335.234 56.8478 337.586 59.1433 339.881C61.4388 342.177 63.7903 344.416 66.1958 346.596C68.6013 348.776 71.0588 350.896 73.5685 352.956C76.0781 355.016 78.6379 357.013 81.2459 358.947C83.852 360.882 86.5063 362.749 89.207 364.555C91.9057 366.359 94.6487 368.095 97.4323 369.763C100.218 371.434 103.042 373.033 105.904 374.563C108.769 376.094 111.668 377.553 114.602 378.942C117.538 380.331 120.505 381.644 123.505 382.888C126.504 384.131 129.533 385.298 132.589 386.391C135.646 387.485 138.729 388.504 141.834 389.447C144.942 390.388 148.071 391.255 151.219 392.043C154.369 392.832 157.536 393.544 160.719 394.177C163.904 394.812 167.102 395.365 170.314 395.842C173.526 396.318 176.747 396.716 179.979 397.034C183.21 397.352 186.447 397.591 189.689 397.751C192.932 397.91 196.176 397.989 199.423 397.989C202.67 397.989 205.914 397.91 209.157 397.751C212.399 397.591 215.638 397.352 218.869 397.034C222.1 396.716 225.32 396.318 228.532 395.842C231.744 395.365 234.942 394.812 238.127 394.177C241.312 393.544 244.477 392.832 247.627 392.043C250.777 391.255 253.904 390.388 257.012 389.447C260.119 388.504 263.2 387.485 266.258 386.391C269.315 385.298 272.342 384.131 275.341 382.888C278.341 381.644 281.31 380.331 284.244 378.942C287.18 377.553 290.079 376.094 292.942 374.563C295.804 373.033 298.628 371.434 301.414 369.763C304.199 368.095 306.94 366.359 309.641 364.555C312.34 362.749 314.994 360.882 317.602 358.947C320.21 357.013 322.768 355.016 325.278 352.956C327.787 350.896 330.245 348.776 332.65 346.596C335.056 344.416 337.407 342.177 339.703 339.881C341.998 337.586 344.238 335.234 346.418 332.829C348.597 330.423 350.717 327.966 352.778 325.456C354.838 322.946 356.834 320.386 358.767 317.778C360.702 315.17 362.571 312.518 364.375 309.817C366.178 307.119 367.915 304.376 369.585 301.59C371.254 298.807 372.853 295.983 374.384 293.118C375.914 290.255 377.374 287.356 378.761 284.42C380.15 281.486 381.466 278.517 382.708 275.518C383.95 272.518 385.117 269.489 386.211 266.434C387.305 263.376 388.323 260.294 389.267 257.186C390.208 254.081 391.074 250.952 391.863 247.802C392.652 244.653 393.364 241.486 393.997 238.301C394.629 235.116 395.185 231.918 395.661 228.706C396.138 225.494 396.535 222.273 396.854 219.042C397.172 215.811 397.411 212.574 397.569 209.331C397.729 206.089 397.808 202.844 397.808 199.597C397.808 196.349 397.729 193.104 397.569 189.862C397.411 186.619 397.172 183.382 396.854 180.151C396.535 176.92 396.138 173.699 395.661 170.487C395.185 167.275 394.629 164.077 393.997 160.892C393.364 157.707 392.652 154.54 391.863 151.391C391.074 148.241 390.208 145.113 389.267 142.007C388.323 138.899 387.305 135.817 386.211 132.759C385.117 129.704 383.95 126.675 382.708 123.675C381.466 120.676 380.15 117.707 378.761 114.773C377.374 111.837 375.914 108.938 374.384 106.075C372.853 103.211 371.254 100.386 369.585 97.6029C367.915 94.8174 366.178 92.0743 364.375 89.3756C362.571 86.675 360.702 84.0226 358.767 81.4146C356.834 78.8066 354.838 76.2468 352.778 73.7371C350.717 71.2275 348.597 68.7699 346.418 66.3645C344.238 63.959 341.998 61.6075 339.703 59.312C337.407 57.0165 335.056 54.7769 332.65 52.5971C330.245 50.4173 327.787 48.2973 325.278 46.2371C322.768 44.177 320.21 42.1804 317.602 40.2456C314.994 38.3108 312.34 36.4435 309.641 34.638C306.94 32.8344 304.199 31.0983 301.414 29.4297C298.628 27.7591 295.804 26.16 292.942 24.6303C290.079 23.0986 287.18 21.6403 284.244 20.2514C281.31 18.8625 278.341 17.5489 275.341 16.3047C272.342 15.0624 269.315 13.8953 266.258 12.8016C263.2 11.7078 260.119 10.6893 257.012 9.74601C253.904 8.80465 250.777 7.93853 247.627 7.14956C244.477 6.3606 241.312 5.64879 238.127 5.01607C234.942 4.38143 231.744 3.8278 228.532 3.35134C225.32 2.87487 222.1 2.47749 218.869 2.15921C215.638 1.84092 212.399 1.60172 209.157 1.44354C205.914 1.28344 202.67 1.20435 199.423 1.20435Z" fill="black"/>
<path d="M100.231 149.998H139.907V298.793H100.231V149.998ZM119.949 130.158H119.731C107.887 130.158 100.231 121.329 100.231 110.309C100.231 99.0511 108.126 90.4805 120.177 90.4805C132.249 90.4805 139.679 99.0511 139.907 110.309C139.907 121.329 132.249 130.158 119.949 130.158ZM308.535 204.556C308.535 174.42 284.114 149.998 253.979 149.998C235.509 149.998 219.212 159.203 209.342 173.249V149.998H169.666V298.793H209.342V219.435C209.342 202.998 222.663 189.676 239.101 189.676C255.536 189.676 268.858 202.998 268.858 219.435V298.793H308.535C308.535 298.793 308.535 208.733 308.535 204.556Z" fill="#FAFAFA"/>
</svg>
