<?xml version="1.0" encoding="UTF-8"?>
<svg xmlns="http://www.w3.org/2000/svg" xmlns:xlink="http://www.w3.org/1999/xlink" width="810pt" height="809.999993pt" viewBox="0 0 810 809.999993" version="1.2">
<defs>
<clipPath id="clip1">
  <path d="M 2 2.4375 L 806 2.4375 L 806 806 L 2 806 Z M 2 2.4375 "/>
</clipPath>
</defs>
<g id="surface1">
<g clip-path="url(#clip1)" clip-rule="nonzero">
<path style=" stroke:none;fill-rule:nonzero;fill:rgb(0%,0%,0%);fill-opacity:1;" d="M 403.832031 2.4375 C 397.257812 2.4375 390.6875 2.597656 384.121094 2.921875 C 377.554688 3.242188 371 3.726562 364.457031 4.371094 C 357.914062 5.015625 351.390625 5.820312 344.886719 6.785156 C 338.382812 7.75 331.90625 8.871094 325.457031 10.15625 C 319.011719 11.4375 312.597656 12.878906 306.21875 14.476562 C 299.84375 16.074219 293.507812 17.828125 287.214844 19.734375 C 280.925781 21.644531 274.683594 23.707031 268.492188 25.921875 C 262.304688 28.136719 256.171875 30.5 250.097656 33.015625 C 244.023438 35.535156 238.015625 38.195312 232.070312 41.007812 C 226.128906 43.820312 220.257812 46.773438 214.457031 49.875 C 208.660156 52.972656 202.941406 56.210938 197.300781 59.59375 C 191.664062 62.972656 186.109375 66.488281 180.644531 70.140625 C 175.175781 73.796875 169.800781 77.578125 164.523438 81.496094 C 159.242188 85.414062 154.058594 89.457031 148.976562 93.628906 C 143.894531 97.800781 138.917969 102.09375 134.046875 106.507812 C 129.175781 110.921875 124.414062 115.457031 119.765625 120.105469 C 115.117188 124.753906 110.585938 129.515625 106.167969 134.386719 C 101.753906 139.257812 97.460938 144.234375 93.289062 149.316406 C 89.121094 154.398438 85.074219 159.582031 81.160156 164.863281 C 77.242188 170.144531 73.457031 175.515625 69.804688 180.984375 C 66.152344 186.449219 62.636719 192.003906 59.257812 197.644531 C 55.875 203.28125 52.636719 209 49.539062 214.800781 C 46.4375 220.597656 43.484375 226.46875 40.671875 232.414062 C 37.859375 238.355469 35.199219 244.367188 32.679688 250.441406 C 30.164062 256.515625 27.800781 262.648438 25.585938 268.835938 C 23.371094 275.027344 21.308594 281.269531 19.398438 287.5625 C 17.492188 293.851562 15.738281 300.1875 14.140625 306.566406 C 12.542969 312.941406 11.101562 319.355469 9.820312 325.804688 C 8.539062 332.253906 7.414062 338.730469 6.449219 345.234375 C 5.484375 351.738281 4.679688 358.261719 4.035156 364.804688 C 3.390625 371.347656 2.90625 377.902344 2.585938 384.46875 C 2.261719 391.035156 2.101562 397.605469 2.101562 404.183594 C 2.101562 410.757812 2.261719 417.328125 2.585938 423.894531 C 2.90625 430.460938 3.390625 437.015625 4.035156 443.558594 C 4.679688 450.101562 5.484375 456.625 6.449219 463.128906 C 7.414062 469.632812 8.539062 476.109375 9.820312 482.558594 C 11.101562 489.007812 12.542969 495.421875 14.140625 501.796875 C 15.738281 508.175781 17.492188 514.511719 19.398438 520.800781 C 21.308594 527.09375 23.371094 533.335938 25.585938 539.527344 C 27.800781 545.714844 30.164062 551.847656 32.679688 557.921875 C 35.199219 563.996094 37.859375 570.007812 40.671875 575.949219 C 43.484375 581.894531 46.4375 587.765625 49.539062 593.5625 C 52.636719 599.363281 55.875 605.082031 59.257812 610.71875 C 62.636719 616.359375 66.152344 621.914062 69.804688 627.378906 C 73.457031 632.847656 77.242188 638.21875 81.160156 643.5 C 85.074219 648.78125 89.121094 653.964844 93.289062 659.046875 C 97.460938 664.128906 101.753906 669.105469 106.167969 673.976562 C 110.585938 678.847656 115.117188 683.609375 119.765625 688.257812 C 124.414062 692.90625 129.175781 697.441406 134.046875 701.855469 C 138.917969 706.269531 143.894531 710.5625 148.976562 714.734375 C 154.058594 718.90625 159.242188 722.949219 164.523438 726.867188 C 169.800781 730.785156 175.175781 734.566406 180.644531 738.222656 C 186.109375 741.875 191.664062 745.390625 197.300781 748.769531 C 202.941406 752.152344 208.660156 755.390625 214.457031 758.488281 C 220.257812 761.589844 226.128906 764.542969 232.070312 767.355469 C 238.015625 770.167969 244.023438 772.828125 250.097656 775.347656 C 256.171875 777.863281 262.304688 780.226562 268.492188 782.441406 C 274.683594 784.65625 280.925781 786.71875 287.214844 788.628906 C 293.507812 790.535156 299.84375 792.289062 306.21875 793.886719 C 312.597656 795.484375 319.011719 796.925781 325.457031 798.207031 C 331.90625 799.492188 338.382812 800.613281 344.886719 801.578125 C 351.390625 802.542969 357.914062 803.347656 364.457031 803.992188 C 371 804.636719 377.554688 805.121094 384.121094 805.445312 C 390.6875 805.765625 397.257812 805.925781 403.832031 805.925781 C 410.40625 805.925781 416.976562 805.765625 423.542969 805.445312 C 430.109375 805.121094 436.667969 804.636719 443.210938 803.992188 C 449.753906 803.347656 456.273438 802.542969 462.777344 801.578125 C 469.28125 800.613281 475.757812 799.492188 482.207031 798.207031 C 488.65625 796.925781 495.066406 795.484375 501.445312 793.886719 C 507.824219 792.289062 514.15625 790.535156 520.449219 788.628906 C 526.742188 786.71875 532.980469 784.65625 539.171875 782.441406 C 545.363281 780.226562 551.492188 777.863281 557.566406 775.347656 C 563.640625 772.828125 569.652344 770.167969 575.59375 767.355469 C 581.539062 764.542969 587.410156 761.589844 593.207031 758.488281 C 599.003906 755.390625 604.722656 752.152344 610.363281 748.769531 C 616.003906 745.390625 621.554688 741.875 627.023438 738.222656 C 632.488281 734.566406 637.863281 730.785156 643.144531 726.867188 C 648.425781 722.949219 653.605469 718.90625 658.6875 714.734375 C 663.769531 710.5625 668.746094 706.269531 673.617188 701.855469 C 678.488281 697.441406 683.25 692.90625 687.898438 688.257812 C 692.546875 683.609375 697.082031 678.847656 701.496094 673.976562 C 705.910156 669.105469 710.203125 664.128906 714.375 659.046875 C 718.546875 653.964844 722.589844 648.78125 726.503906 643.5 C 730.421875 638.21875 734.207031 632.847656 737.859375 627.378906 C 741.511719 621.914062 745.027344 616.359375 748.410156 610.71875 C 751.789062 605.082031 755.027344 599.363281 758.128906 593.5625 C 761.226562 587.765625 764.183594 581.894531 766.992188 575.949219 C 769.804688 570.007812 772.46875 563.996094 774.984375 557.921875 C 777.5 551.847656 779.863281 545.714844 782.078125 539.527344 C 784.292969 533.335938 786.355469 527.09375 788.265625 520.800781 C 790.171875 514.511719 791.925781 508.175781 793.523438 501.796875 C 795.121094 495.421875 796.5625 489.007812 797.84375 482.558594 C 799.125 476.109375 800.25 469.632812 801.214844 463.128906 C 802.179688 456.625 802.984375 450.101562 803.628906 443.558594 C 804.273438 437.015625 804.757812 430.460938 805.078125 423.894531 C 805.402344 417.328125 805.5625 410.757812 805.5625 404.183594 C 805.5625 397.605469 805.402344 391.035156 805.078125 384.46875 C 804.757812 377.902344 804.273438 371.347656 803.628906 364.804688 C 802.984375 358.261719 802.179688 351.738281 801.214844 345.234375 C 800.25 338.730469 799.125 332.253906 797.84375 325.804688 C 796.5625 319.355469 795.121094 312.941406 793.523438 306.566406 C 791.925781 300.1875 790.171875 293.851562 788.265625 287.5625 C 786.355469 281.269531 784.292969 275.027344 782.078125 268.835938 C 779.863281 262.648438 777.5 256.515625 774.984375 250.441406 C 772.46875 244.367188 769.804688 238.355469 766.992188 232.414062 C 764.183594 226.46875 761.226562 220.597656 758.128906 214.800781 C 755.027344 209 751.789062 203.28125 748.410156 197.644531 C 745.027344 192.003906 741.511719 186.449219 737.859375 180.984375 C 734.207031 175.515625 730.421875 170.144531 726.503906 164.863281 C 722.589844 159.582031 718.546875 154.398438 714.375 149.316406 C 710.203125 144.234375 705.910156 139.257812 701.496094 134.386719 C 697.082031 129.515625 692.546875 124.753906 687.898438 120.105469 C 683.25 115.457031 678.488281 110.921875 673.617188 106.507812 C 668.746094 102.09375 663.769531 97.800781 658.6875 93.628906 C 653.605469 89.457031 648.425781 85.414062 643.144531 81.496094 C 637.863281 77.578125 632.488281 73.796875 627.023438 70.140625 C 621.554688 66.488281 616.003906 62.972656 610.363281 59.59375 C 604.722656 56.210938 599.003906 52.972656 593.207031 49.875 C 587.410156 46.773438 581.539062 43.820312 575.59375 41.007812 C 569.652344 38.195312 563.640625 35.535156 557.566406 33.015625 C 551.492188 30.5 545.363281 28.136719 539.171875 25.921875 C 532.980469 23.707031 526.742188 21.644531 520.449219 19.734375 C 514.15625 17.828125 507.824219 16.074219 501.445312 14.476562 C 495.066406 12.878906 488.65625 11.4375 482.207031 10.15625 C 475.757812 8.871094 469.28125 7.75 462.777344 6.785156 C 456.273438 5.820312 449.753906 5.015625 443.210938 4.371094 C 436.667969 3.726562 430.109375 3.242188 423.542969 2.921875 C 416.976562 2.597656 410.40625 2.4375 403.832031 2.4375 Z M 403.832031 2.4375 "/>
</g>
<path style=" stroke:none;fill-rule:nonzero;fill:rgb(100%,100%,100%);fill-opacity:1;" d="M 202.96875 303.746094 L 283.3125 303.746094 L 283.3125 605.054688 L 202.96875 605.054688 Z M 242.898438 263.570312 L 242.457031 263.570312 C 218.472656 263.570312 202.96875 245.691406 202.96875 223.375 C 202.96875 200.578125 218.957031 183.222656 243.359375 183.222656 C 267.804688 183.222656 282.851562 200.578125 283.3125 223.375 C 283.3125 245.691406 267.804688 263.570312 242.898438 263.570312 Z M 624.785156 414.226562 C 624.785156 353.199219 575.332031 303.746094 514.308594 303.746094 C 476.90625 303.746094 443.90625 322.386719 423.917969 350.828125 L 423.917969 303.746094 L 343.574219 303.746094 L 343.574219 605.054688 L 423.917969 605.054688 L 423.917969 444.355469 C 423.917969 411.070312 450.894531 384.09375 484.179688 384.09375 C 517.460938 384.09375 544.4375 411.070312 544.4375 444.355469 L 544.4375 605.054688 L 624.785156 605.054688 C 624.785156 605.054688 624.785156 422.683594 624.785156 414.226562 Z M 624.785156 414.226562 "/>
</g>
</svg>
