<svg width="400" height="400" viewBox="0 0 400 400" fill="none" xmlns="http://www.w3.org/2000/svg">
<ellipse cx="200" cy="95.8335" rx="66.6667" ry="62.5" fill="#92D7FB"/>
<ellipse cx="204.167" cy="308.333" rx="179.167" ry="66.6667" fill="#92D7FB"/>
<path d="M260.993 242.875C257.78 249.144 254.705 255.392 251.709 261.623C314.003 268.348 358.819 286.739 358.819 308.481C358.819 335.878 287.757 358.079 200.108 358.079C112.46 358.079 41.3966 335.878 41.3966 308.481C41.3966 286.739 86.2134 268.348 148.488 261.642C145.511 255.414 142.398 249.164 139.203 242.935C59.4503 253.191 1.7207 283.108 1.7207 318.402C1.7207 362.225 90.5382 397.757 200.108 397.757C309.659 397.757 398.497 362.225 398.497 318.402C398.497 283.108 340.766 253.191 260.993 242.875Z" fill="#141414"/>
<path d="M210.027 318.401C221.416 261.602 267.44 196.195 288.312 143.641C295.315 130.249 299.302 115.053 299.302 98.9434C299.302 44.8038 254.863 0.980469 200.089 0.980469C145.313 0.980469 100.915 44.8038 100.915 98.9434C100.915 115.053 104.861 130.249 111.866 143.641C132.736 196.195 178.822 261.602 190.189 318.401C192.689 318.401 207.568 318.401 210.027 318.401ZM200.089 50.5773C227.487 50.5773 249.705 72.8169 249.705 100.174C249.705 127.572 227.487 149.771 200.089 149.771C172.691 149.771 150.511 127.572 150.511 100.174C150.511 72.8169 172.691 50.5773 200.089 50.5773Z" fill="#141414"/>
</svg>
