<?xml version="1.0" encoding="UTF-8"?>
<svg xmlns="http://www.w3.org/2000/svg" xmlns:xlink="http://www.w3.org/1999/xlink" width="810pt" height="809.999993pt" viewBox="0 0 810 809.999993" version="1.2">
<defs>
<clipPath id="clip1">
  <path d="M 3.484375 491 L 806.734375 491 L 806.734375 805.234375 L 3.484375 805.234375 Z M 3.484375 491 "/>
</clipPath>
<clipPath id="clip2">
  <path d="M 204 1.984375 L 607 1.984375 L 607 645 L 204 645 Z M 204 1.984375 "/>
</clipPath>
</defs>
<g id="surface1">
<g clip-path="url(#clip1)" clip-rule="nonzero">
<path style=" stroke:none;fill-rule:nonzero;fill:rgb(0%,0%,0%);fill-opacity:1;" d="M 528.511719 491.820312 C 522.003906 504.515625 515.777344 517.167969 509.710938 529.785156 C 635.855469 543.402344 726.609375 580.644531 726.609375 624.671875 C 726.609375 680.152344 582.707031 725.109375 405.21875 725.109375 C 227.730469 725.109375 83.828125 680.152344 83.828125 624.671875 C 83.828125 580.644531 174.582031 543.402344 300.6875 529.824219 C 294.660156 517.210938 288.355469 504.554688 281.886719 491.941406 C 120.386719 512.710938 3.484375 573.292969 3.484375 644.761719 C 3.484375 733.503906 183.339844 805.457031 405.21875 805.457031 C 627.058594 805.457031 806.957031 733.503906 806.957031 644.761719 C 806.957031 573.292969 690.050781 512.710938 528.511719 491.820312 Z M 528.511719 491.820312 "/>
</g>
<g clip-path="url(#clip2)" clip-rule="nonzero">
<path style=" stroke:none;fill-rule:nonzero;fill:rgb(0%,0%,0%);fill-opacity:1;" d="M 425.304688 644.761719 C 448.367188 529.742188 541.566406 397.292969 583.832031 290.871094 C 598.011719 263.753906 606.085938 232.980469 606.085938 200.359375 C 606.085938 90.726562 516.097656 1.984375 405.179688 1.984375 C 294.257812 1.984375 204.351562 90.726562 204.351562 200.359375 C 204.351562 232.980469 212.34375 263.753906 226.527344 290.871094 C 268.789062 397.292969 362.113281 529.742188 385.132812 644.761719 C 390.195312 644.761719 420.324219 644.761719 425.304688 644.761719 Z M 405.179688 102.417969 C 460.660156 102.417969 505.652344 147.453125 505.652344 202.851562 C 505.652344 258.332031 460.660156 303.285156 405.179688 303.285156 C 349.699219 303.285156 304.785156 258.332031 304.785156 202.851562 C 304.785156 147.453125 349.699219 102.417969 405.179688 102.417969 Z M 405.179688 102.417969 "/>
</g>
</g>
</svg>
