<svg xmlns="http://www.w3.org/2000/svg" xmlns:xlink="http://www.w3.org/1999/xlink" width="1000" zoomAndPan="magnify" viewBox="0 0 750 749.999995" height="1000" preserveAspectRatio="xMidYMid meet" version="1.0"><defs><clipPath id="0064901105"><path d="M 0 49.21875 L 99 49.21875 L 99 441 L 0 441 Z M 0 49.21875 " clip-rule="nonzero"/></clipPath><clipPath id="78b3d33d1d"><path d="M 456 49.21875 L 555 49.21875 L 555 441 L 456 441 Z M 456 49.21875 " clip-rule="nonzero"/></clipPath><clipPath id="0905de753c"><path d="M 0 49.21875 L 278 49.21875 L 278 343 L 0 343 Z M 0 49.21875 " clip-rule="nonzero"/></clipPath><clipPath id="aedad57e5e"><path d="M 277 49.21875 L 555 49.21875 L 555 343 L 277 343 Z M 277 49.21875 " clip-rule="nonzero"/></clipPath><clipPath id="019272a992"><path d="M 472 407 L 750 407 L 750 700.96875 L 472 700.96875 Z M 472 407 " clip-rule="nonzero"/></clipPath></defs><g clip-path="url(#0064901105)"><path fill="#29b6f6" d="M 0.351562 49.21875 L 98.085938 114.394531 L 98.085938 440.269531 L 0.351562 375.09375 Z M 0.351562 49.21875 " fill-opacity="1" fill-rule="nonzero"/></g><path fill="#0288d1" d="M 749.648438 293.625 L 651.914062 358.800781 L 651.914062 570.617188 L 749.648438 505.445312 Z M 749.648438 293.625 " fill-opacity="1" fill-rule="nonzero"/><path fill="#0288d1" d="M 749.648438 65.511719 L 651.914062 130.6875 L 651.914062 244.742188 L 749.648438 179.570312 Z M 749.648438 65.511719 " fill-opacity="1" fill-rule="nonzero"/><g clip-path="url(#78b3d33d1d)"><path fill="#0288d1" d="M 554.179688 49.21875 L 456.445312 114.394531 L 456.445312 440.269531 L 554.179688 375.09375 Z M 554.179688 49.21875 " fill-opacity="1" fill-rule="nonzero"/></g><g clip-path="url(#0905de753c)"><path fill="#29b6f6" d="M 0.351562 163.273438 L 277.265625 342.507812 L 277.265625 228.449219 L 0.351562 49.21875 Z M 0.351562 163.273438 " fill-opacity="1" fill-rule="nonzero"/></g><g clip-path="url(#aedad57e5e)"><path fill="#0288d1" d="M 554.179688 163.273438 L 277.265625 342.507812 L 277.265625 228.449219 L 554.179688 49.21875 Z M 554.179688 163.273438 " fill-opacity="1" fill-rule="nonzero"/></g><path fill="#0288d1" d="M 554.179688 391.386719 L 277.265625 570.617188 L 277.265625 456.5625 L 554.179688 277.332031 Z M 554.179688 391.386719 " fill-opacity="1" fill-rule="nonzero"/><g clip-path="url(#019272a992)"><path fill="#0288d1" d="M 749.648438 521.738281 L 472.734375 700.96875 L 472.734375 586.914062 L 749.648438 407.679688 Z M 749.648438 521.738281 " fill-opacity="1" fill-rule="nonzero"/></g><path fill="#29b6f6" d="M 472.734375 583.082031 L 277.265625 456.5625 L 277.265625 570.617188 L 472.734375 697.140625 Z M 472.734375 583.082031 " fill-opacity="1" fill-rule="nonzero"/></svg>