<?xml version="1.0" encoding="UTF-8"?>
<svg xmlns="http://www.w3.org/2000/svg" xmlns:xlink="http://www.w3.org/1999/xlink" width="810pt" height="809.999993pt" viewBox="0 0 810 809.999993" version="1.2">
<defs>
<clipPath id="clip1">
  <path d="M 202.5 2.019531 L 607.5 2.019531 L 607.5 809 L 202.5 809 Z M 202.5 2.019531 "/>
</clipPath>
</defs>
<g id="surface1">
<path style=" stroke:none;fill-rule:nonzero;fill:rgb(6.269836%,5.879211%,5.099487%);fill-opacity:1;" d="M 405 710.585938 C 389.40625 710.585938 376.722656 723.257812 376.722656 738.84375 C 376.722656 754.421875 389.40625 767.089844 405 767.089844 C 420.585938 767.089844 433.277344 754.421875 433.277344 738.84375 C 433.277344 723.257812 420.585938 710.585938 405 710.585938 "/>
<g clip-path="url(#clip1)" clip-rule="nonzero">
<path style=" stroke:none;fill-rule:nonzero;fill:rgb(6.269836%,5.879211%,5.099487%);fill-opacity:1;" d="M 583.570312 661.214844 C 583.570312 664.957031 580.496094 668.042969 576.730469 668.042969 L 233.265625 668.042969 C 229.511719 668.042969 226.429688 664.957031 226.429688 661.214844 L 226.429688 150.554688 C 226.429688 146.796875 229.511719 143.71875 233.265625 143.71875 L 576.730469 143.71875 C 580.496094 143.71875 583.570312 146.796875 583.570312 150.554688 Z M 405 782.28125 C 381.035156 782.28125 361.53125 762.789062 361.53125 738.835938 C 361.53125 714.886719 381.035156 695.398438 405 695.398438 C 428.972656 695.398438 448.46875 714.886719 448.46875 738.835938 C 448.46875 762.789062 428.972656 782.28125 405 782.28125 M 357.152344 59.046875 C 357.152344 55.285156 360.234375 52.210938 363.984375 52.210938 L 446.007812 52.210938 C 449.765625 52.210938 452.847656 55.285156 452.847656 59.046875 L 452.847656 68.15625 C 452.847656 71.910156 449.765625 74.984375 446.007812 74.984375 L 363.984375 74.984375 C 360.234375 74.984375 357.152344 71.910156 357.152344 68.15625 Z M 545.976562 2.828125 L 264.023438 2.828125 C 230.191406 2.828125 202.511719 30.496094 202.511719 64.3125 L 202.511719 747.441406 C 202.511719 781.269531 230.191406 808.925781 264.023438 808.925781 L 545.976562 808.925781 C 579.816406 808.925781 607.488281 781.269531 607.488281 747.441406 L 607.488281 64.3125 C 607.488281 30.496094 579.816406 2.828125 545.976562 2.828125 "/>
</g>
</g>
</svg>
