<svg width="400" height="400" viewBox="0 0 400 400" fill="none" xmlns="http://www.w3.org/2000/svg">
<rect x="108" y="11" width="186" height="377" rx="10" fill="#92D7FB"/>
<path d="M200 350.907C192.3 350.907 186.036 357.165 186.036 364.862C186.036 372.555 192.3 378.81 200 378.81C207.697 378.81 213.964 372.555 213.964 364.862C213.964 357.165 207.697 350.907 200 350.907Z" fill="#141414"/>
<path d="M288.183 326.525C288.183 328.373 286.665 329.897 284.805 329.897H115.193C113.339 329.897 111.817 328.373 111.817 326.525V74.3469C111.817 72.4912 113.339 70.9711 115.193 70.9711H284.805C286.665 70.9711 288.183 72.4912 288.183 74.3469V326.525ZM200 386.311C188.166 386.311 178.534 376.685 178.534 364.856C178.534 353.029 188.166 343.406 200 343.406C211.839 343.406 221.466 353.029 221.466 364.856C221.466 376.685 211.839 386.311 200 386.311ZM176.372 29.1579C176.372 27.3002 177.894 25.7821 179.746 25.7821H220.251C222.107 25.7821 223.629 27.3002 223.629 29.1579V33.6563C223.629 35.5101 222.107 37.0282 220.251 37.0282H179.746C177.894 37.0282 176.372 35.5101 176.372 33.6563V29.1579ZM269.618 1.39551H130.382C113.675 1.39551 100.006 15.0587 100.006 31.7582V369.106C100.006 385.811 113.675 399.468 130.382 399.468H269.618C286.329 399.468 299.994 385.811 299.994 369.106V31.7582C299.994 15.0587 286.329 1.39551 269.618 1.39551Z" fill="#141414"/>
</svg>
