<?xml version="1.0" encoding="UTF-8"?>
<svg xmlns="http://www.w3.org/2000/svg" xmlns:xlink="http://www.w3.org/1999/xlink" width="810pt" height="809.999993pt" viewBox="0 0 810 809.999993" version="1.2">
<defs>
<clipPath id="clip1">
  <path d="M 1.832031 161.839844 L 808 161.839844 L 808 647.523438 L 1.832031 647.523438 Z M 1.832031 161.839844 "/>
</clipPath>
</defs>
<g id="surface1">
<rect x="0" y="0" width="810" height="809.999993" style="fill:rgb(100%,100%,100%);fill-opacity:1;stroke:none;"/>
<rect x="0" y="0" width="810" height="809.999993" style="fill:rgb(100%,100%,100%);fill-opacity:1;stroke:none;"/>
<rect x="0" y="0" width="810" height="809.999993" style="fill:rgb(100%,100%,100%);fill-opacity:1;stroke:none;"/>
<g clip-path="url(#clip1)" clip-rule="nonzero">
<path style=" stroke:none;fill-rule:nonzero;fill:rgb(0%,0%,0%);fill-opacity:1;" d="M 192.125 288.503906 L 344.128906 288.503906 L 344.128906 300.574219 L 206.054688 300.574219 L 206.054688 391.394531 L 335.894531 391.394531 L 335.894531 403.472656 L 206.054688 403.472656 L 206.054688 503.1875 L 345.703125 503.1875 L 345.703125 515.261719 L 192.125 515.261719 Z M 357.742188 288.503906 L 373.890625 288.503906 L 445.464844 388.21875 L 518.609375 288.503906 L 618.101562 161.839844 L 454.640625 398.707031 L 538.882812 515.261719 L 522.085938 515.261719 L 445.464844 409.179688 L 368.507812 515.261719 L 352.042969 515.261719 L 436.902344 398.707031 Z M 544.894531 300.574219 L 544.894531 288.503906 L 718.117188 288.503906 L 718.117188 300.574219 L 638.3125 300.574219 L 638.3125 515.257812 L 624.382812 515.257812 L 624.382812 300.574219 L 544.894531 300.570312 Z M 1.964844 288.503906 L 19.382812 288.503906 L 259.546875 647.492188 L 160.304688 515.261719 L 16.539062 305.660156 L 15.90625 515.261719 L 1.972656 515.261719 L 1.972656 288.503906 Z M 716.699219 499.554688 C 713.867188 499.554688 711.726562 497.339844 711.726562 494.492188 C 711.726562 491.648438 713.867188 489.445312 716.699219 489.445312 C 719.582031 489.445312 721.691406 491.648438 721.691406 494.492188 C 721.691406 497.339844 719.582031 499.554688 716.699219 499.554688 Z M 730.394531 486.253906 L 737.855469 486.253906 C 737.949219 490.292969 740.910156 493 745.238281 493 C 750.085938 493 752.824219 490.089844 752.824219 484.632812 L 752.824219 450.058594 L 760.425781 450.058594 L 760.425781 484.664062 C 760.425781 494.492188 754.730469 500.152344 745.316406 500.152344 C 736.46875 500.152344 730.394531 494.664062 730.394531 486.253906 Z M 770.359375 485.8125 L 777.882812 485.8125 C 778.511719 490.46875 783.0625 493.40625 789.609375 493.40625 C 795.699219 493.40625 800.171875 490.261719 800.171875 485.925781 C 800.171875 482.199219 797.320312 479.949219 790.851562 478.425781 L 784.554688 476.898438 C 775.710938 474.839844 771.679688 470.5625 771.679688 463.378906 C 771.679688 454.667969 778.796875 448.878906 789.46875 448.878906 C 799.398438 448.878906 806.640625 454.667969 807.082031 462.90625 L 799.699219 462.90625 C 798.992188 458.394531 795.054688 455.578125 789.355469 455.578125 C 783.359375 455.578125 779.363281 458.472656 779.363281 462.875 C 779.363281 466.363281 781.945312 468.359375 788.316406 469.855469 L 793.703125 471.175781 C 803.726562 473.519531 807.867188 477.589844 807.867188 484.933594 C 807.867188 494.289062 800.613281 500.152344 789.027344 500.152344 C 778.179688 500.152344 770.894531 494.570312 770.359375 485.8125 Z M 770.359375 485.8125 "/>
</g>
</g>
</svg>
