<?xml version="1.0" encoding="UTF-8"?><svg xmlns="http://www.w3.org/2000/svg" xmlns:xlink="http://www.w3.org/1999/xlink" contentScriptType="text/ecmascript" width="810" zoomAndPan="magnify" contentStyleType="text/css" viewBox="0 0 810 809.999993" height="809.999993" preserveAspectRatio="xMidYMid meet" version="1.0"><defs><clipPath id="clip-0"><path d="M 0 143.125 L 810 143.125 L 810 631.375 L 0 631.375 Z M 0 143.125 " clip-rule="nonzero"/></clipPath></defs><g clip-path="url(#clip-0)"><path fill="rgb(0%, 0%, 0%)" d="M 191.195312 270.460938 L 343.921875 270.460938 L 343.921875 282.59375 L 205.191406 282.59375 L 205.191406 373.894531 L 335.648438 373.894531 L 335.648438 386.035156 L 205.191406 386.035156 L 205.191406 486.277344 L 345.503906 486.277344 L 345.503906 498.414062 L 191.195312 498.414062 Z M 357.601562 270.460938 L 373.828125 270.460938 L 445.738281 370.703125 L 519.234375 270.460938 L 619.199219 143.125 L 454.960938 381.246094 L 539.601562 498.414062 L 522.726562 498.414062 L 445.738281 391.769531 L 368.417969 498.414062 L 351.875 498.414062 L 437.136719 381.246094 Z M 545.644531 282.59375 L 545.644531 270.460938 L 719.691406 270.460938 L 719.691406 282.59375 L 639.507812 282.59375 L 639.507812 498.410156 L 625.511719 498.410156 L 625.511719 282.59375 L 545.644531 282.589844 Z M 0.132812 270.460938 L 17.628906 270.460938 L 258.9375 631.347656 L 159.222656 498.417969 L 14.773438 287.707031 L 14.140625 498.417969 L 0.140625 498.417969 L 0.140625 270.460938 Z M 718.265625 482.625 C 715.421875 482.625 713.269531 480.398438 713.269531 477.535156 C 713.269531 474.675781 715.421875 472.464844 718.265625 472.464844 C 721.160156 472.464844 723.28125 474.675781 723.28125 477.535156 C 723.28125 480.398438 721.160156 482.625 718.265625 482.625 Z M 732.027344 469.253906 L 739.523438 469.253906 C 739.617188 473.316406 742.589844 476.035156 746.941406 476.035156 C 751.8125 476.035156 754.5625 473.109375 754.5625 467.625 L 754.5625 432.867188 L 762.203125 432.867188 L 762.203125 467.65625 C 762.203125 477.535156 756.476562 483.226562 747.019531 483.226562 C 738.132812 483.226562 732.027344 477.710938 732.027344 469.253906 Z M 772.179688 468.8125 L 779.742188 468.8125 C 780.375 473.492188 784.945312 476.445312 791.523438 476.445312 C 797.644531 476.445312 802.136719 473.285156 802.136719 468.921875 C 802.136719 465.175781 799.273438 462.917969 792.773438 461.382812 L 786.445312 459.851562 C 777.558594 457.777344 773.507812 453.480469 773.507812 446.257812 C 773.507812 437.5 780.65625 431.683594 791.378906 431.683594 C 801.359375 431.683594 808.636719 437.5 809.078125 445.78125 L 801.660156 445.78125 C 800.949219 441.246094 796.996094 438.417969 791.269531 438.417969 C 785.246094 438.417969 781.226562 441.324219 781.226562 445.75 C 781.226562 449.257812 783.820312 451.265625 790.226562 452.769531 L 795.636719 454.097656 C 805.710938 456.453125 809.867188 460.546875 809.867188 467.925781 C 809.867188 477.332031 802.578125 483.226562 790.9375 483.226562 C 780.042969 483.226562 772.71875 477.617188 772.179688 468.8125 Z M 772.179688 468.8125 " fill-opacity="1" fill-rule="nonzero"/></g></svg>