<?xml version="1.0" encoding="UTF-8"?>
<svg xmlns="http://www.w3.org/2000/svg" xmlns:xlink="http://www.w3.org/1999/xlink" width="810pt" height="809.999993pt" viewBox="0 0 810 809.999993" version="1.2">
<g id="surface1">
<path style=" stroke:none;fill-rule:nonzero;fill:rgb(32.548523%,61.959839%,26.269531%);fill-opacity:1;" d="M 404.8125 809.886719 C 393.675781 809.886719 383.296875 806.921875 373.675781 801.742188 L 275.074219 743.132812 C 260.246094 734.988281 267.660156 732.023438 272.109375 730.539062 C 292.125 723.851562 295.832031 722.367188 316.589844 710.5 C 318.816406 709.015625 321.78125 709.773438 324.003906 711.253906 L 399.609375 756.484375 C 402.574219 757.96875 406.292969 757.96875 408.53125 756.484375 L 704.304688 585.164062 C 707.269531 583.679688 708.753906 580.714844 708.753906 576.992188 L 708.753906 235.050781 C 708.753906 231.34375 707.269531 228.378906 704.304688 226.894531 L 408.53125 56.292969 C 405.566406 54.8125 401.84375 54.8125 399.609375 56.292969 L 103.835938 226.894531 C 100.859375 228.378906 99.375 232.085938 99.375 235.054688 L 99.375 576.996094 C 99.375 579.960938 100.859375 583.683594 103.824219 585.167969 L 184.628906 631.882812 C 228.371094 654.132812 255.800781 628.1875 255.800781 602.210938 L 255.800781 264.722656 C 255.800781 260.273438 259.507812 255.824219 264.695312 255.824219 L 302.503906 255.824219 C 306.953125 255.824219 311.402344 259.53125 311.402344 264.726562 L 311.402344 602.214844 C 311.402344 660.824219 279.523438 694.941406 223.921875 694.941406 C 206.871094 694.941406 193.527344 694.941406 155.71875 676.386719 L 77.875 631.882812 C 58.601562 620.773438 46.738281 600.003906 46.738281 577.753906 L 46.738281 235.8125 C 46.738281 213.546875 58.601562 192.78125 77.875 181.652344 L 373.675781 10.3125 C 392.195312 -0.0703125 417.425781 -0.0703125 435.945312 10.3125 L 731.746094 181.652344 C 751.019531 192.777344 762.882812 213.546875 762.882812 235.800781 L 762.882812 577.742188 C 762.882812 599.992188 751.019531 620.761719 731.746094 631.871094 L 435.945312 803.21875 C 426.324219 807.671875 415.1875 809.882812 404.8125 809.882812 Z M 496.007812 574.78125 C 366.261719 574.78125 339.574219 515.417969 339.574219 464.980469 C 339.574219 460.53125 343.265625 456.078125 348.46875 456.078125 L 387.019531 456.078125 C 391.46875 456.078125 395.160156 459.046875 395.160156 463.496094 C 401.089844 502.820312 418.15625 522.105469 496.734375 522.105469 C 559.003906 522.105469 585.691406 508 585.691406 474.636719 C 585.691406 455.351562 578.28125 441.246094 481.179688 431.617188 C 400.363281 423.445312 349.953125 405.644531 349.953125 341.128906 C 349.953125 281.039062 400.363281 245.4375 484.875 245.4375 C 579.761719 245.4375 626.480469 278.074219 632.410156 349.273438 C 632.410156 351.511719 631.65625 353.722656 630.171875 355.964844 C 628.691406 357.445312 626.480469 358.929688 624.242188 358.929688 L 585.691406 358.929688 C 582 358.929688 578.28125 355.964844 577.550781 352.242188 C 568.65625 311.460938 545.660156 298.109375 484.875 298.109375 C 416.671875 298.109375 408.53125 321.84375 408.53125 339.644531 C 408.53125 361.140625 418.15625 367.832031 510.078125 379.699219 C 601.273438 391.566406 644.269531 408.609375 644.269531 472.398438 C 643.515625 537.667969 590.140625 574.78125 496.007812 574.78125 Z M 496.007812 574.78125 "/>
</g>
</svg>
