<svg id="Layer_1" data-name="Layer 1" xmlns="http://www.w3.org/2000/svg" viewBox="0 0 464 141.75"><defs><style>.cls-1{fill:#436475;}.cls-2{fill:#995436;}.cls-3{font-size:45.05px;fill:#fff;font-family:Montserrat-Medium, Montserrat;letter-spacing:0.15em;}.cls-4{letter-spacing:0.13em;}.cls-5{letter-spacing:0.11em;}.cls-6{letter-spacing:0.15em;}</style></defs><title>Personal Logo Two - Colored 3 (Landscaped) White Text</title><path class="cls-1" d="M73,112.7V76.44a.77.77,0,0,0-.74-.76,95.11,95.11,0,0,1-16.72-2,.76.76,0,0,0-.93.75V105a.77.77,0,0,1-.22.54L43.7,116.36a.77.77,0,0,1-1.31-.54V70.1a.77.77,0,0,0-.46-.7C34.15,66,28.34,61.5,25.46,56.34a.17.17,0,0,1-.09-.09,2.1,2.1,0,0,0-.46-.22h0a.18.18,0,0,1-.1,0h-.28a.16.16,0,0,1-.07,0,1.07,1.07,0,0,0-.2.34.21.21,0,0,1,0,.06h0c.51,17.47-.25,95.06-.25,95.06a.77.77,0,0,0,.24.56l16.85,16a.77.77,0,0,0,1.29-.56v-20a.77.77,0,0,1,1.32-.53l10.73,11.06a.77.77,0,0,1,.22.53v22a.77.77,0,0,0,.24.56l16.86,16a.77.77,0,0,0,1.29-.56V150.85a.77.77,0,0,0-.22-.54L54.65,131.77v0l-.14-.14,16.84-16.94h0l1.47-1.46A.77.77,0,0,0,73,112.7Z" transform="translate(-24 -56)"/><path class="cls-2" d="M126.86,57.5v98.16a.77.77,0,0,1-.26.57l-10.71,9.45-7.42,6.49-9.57,8.39-19.42,17a.77.77,0,0,1-1.27-.58V174.27h0V133L78,121.21a.77.77,0,0,1,1.21-.64l17.2,12.19a.62.62,0,0,1,.16.29v23.08a.77.77,0,0,0,1.28.57l10.34-9.23a.77.77,0,0,0,.26-.57V86l-.09-1.65a.77.77,0,0,0-.45-.66L90,75.74a.77.77,0,0,1,.21-1.46c16.56-2.41,29.78-8.9,35.26-17.22A.76.76,0,0,1,126.86,57.5Z" transform="translate(-24 -56)"/><text class="cls-3" transform="translate(121.63 83.23) scale(1 0.8)">KEN <tspan class="cls-4" x="138.3" y="0">J</tspan><tspan class="cls-5" x="167.49" y="0">A</tspan><tspan class="cls-4" x="205.56" y="0">V</tspan><tspan class="cls-6" x="243.71" y="0">IER</tspan></text></svg>