<svg id="Layer_1" data-name="Layer 1" xmlns="http://www.w3.org/2000/svg" viewBox="0 0 453.72461 141.75458"><defs><style>.cls-1{fill:#436475;}.cls-2{fill:#995436;}.cls-3{fill:#fff;}</style></defs><title>Personal Logo Two - Colored 3 (Landscaped) White Text</title><path class="cls-1" d="M73.03752,112.69652V76.44412a.76516.76516,0,0,0-.74233-.76311,95.111,95.111,0,0,1-16.71841-2.00522.76475.76475,0,0,0-.92834.74675v30.60134a.76564.76564,0,0,1-.22264.53974L43.69885,116.356a.76626.76626,0,0,1-1.30978-.53974V70.09561a.76579.76579,0,0,0-.463-.70065c-7.77488-3.37669-13.58693-7.89777-16.46788-13.053a.16892.16892,0,0,1-.08981-.09,2.09635,2.09635,0,0,0-.45688-.22034l-.00157.00033a.1775.1775,0,0,1-.10006-.031L24.80465,56a.17994.17994,0,0,1-.03844.00788h-.012l-.013-.00226-.011.00226h-.012c-.00587,0-.00884-.00391-.01436-.00442a.17666.17666,0,0,1-.02156.00442h-.012c-.0083,0-.01328-.00454-.0209-.00553a.1757.1757,0,0,1-.027.00553H24.5986l-.012-.00245-.012.00245-.00386-.0008a.17426.17426,0,0,1-.03716.01367.16363.16363,0,0,1-.06816.04743,1.06513,1.06513,0,0,0-.19941.342.21144.21144,0,0,1-.01471.0643v0C24.75686,73.94026,24,151.52992,24,151.52992a.77313.77313,0,0,0,.24049.5608l16.85483,15.99316a.76626.76626,0,0,0,1.29375-.55541V147.53587a.76626.76626,0,0,1,1.31641-.533l10.727,11.06219a.76563.76563,0,0,1,.216.533v22.01708a.76565.76565,0,0,0,.23873.55546L71.74383,197.162a.76626.76626,0,0,0,1.29369-.55546v-45.7573a.76563.76563,0,0,0-.21885-.53591l-18.17021-18.54v.01927l-.13791-.14261,16.84131-16.944L71.348,114.702l1.465-1.46393A.76564.76564,0,0,0,73.03752,112.69652Z" transform="translate(-24 -56)"/><path class="cls-2" d="M126.86385,57.495v98.15757a.76621.76621,0,0,1-.25939.57464L115.8917,165.6757l-7.41692,6.49362L98.901,180.55551,79.48046,197.56329a.76621.76621,0,0,1-1.271-.57641V174.27259l.00383-.00383V133.01211L78.04,121.20876a.76621.76621,0,0,1,1.20935-.63625l17.19586,12.19441a.61638.61638,0,0,1,.15709.295V156.1456a.76621.76621,0,0,0,1.27642.57163l10.34-9.22893a.76621.76621,0,0,0,.256-.57163V86.0716l-.0011-.04113-.08865-1.649a.76621.76621,0,0,0-.45351-.65886l-17.931-7.98176a.76567.76567,0,0,1,.20674-1.45763c16.56307-2.40505,29.781-8.89647,35.25743-17.21734A.76468.76468,0,0,1,126.86385,57.495Z" transform="translate(-24 -56)"/><path class="cls-3" d="M160.62988,128.02148,155,132.707V139h-5V114h5v14.09375L171.981,114h5.13525l-13.46826,11.35449L177.97168,139h-5.27Z" transform="translate(-24 -56)"/><path class="cls-3" d="M212,136v3H189V114h23v3H194v8h16v3H194v8Z" transform="translate(-24 -56)"/><path class="cls-3" d="M254,114v25h-4.13086L231,120.417V139h-5V114h4.13965L249,132.81543V114Z" transform="translate(-24 -56)"/><path class="cls-3" d="M283.52441,135.87891l2.6123-2.45117a8.44861,8.44861,0,0,0,6.57617,2.99121c3.55859,0,5.28711-5.11719,5.28711-5.11719V117H287v-3h15v17.12109c.57813,5.62207-2.8457,8.39746-9.28711,8.39746C288.97461,139.51855,285.55078,138.22168,283.52441,135.87891Z" transform="translate(-24 -56)"/><path class="cls-3" d="M337.53087,133H321.59125l-3.29865,6h-5.06766l14.149-25h4.41956L345.988,139h-5.15751Zm-1.16759-3-6.80176-12.3623L322.75977,130Z" transform="translate(-24 -56)"/><path class="cls-3" d="M383.15806,114l-13.70287,25h-4.41956l-13.74739-25h4.8202l11.24874,20.53592L378.69495,114Z" transform="translate(-24 -56)"/><path class="cls-3" d="M394,114h5v25h-5Z" transform="translate(-24 -56)"/><path class="cls-3" d="M437,136v3H415V114h22v3H419v8h16v3H419v8Z" transform="translate(-24 -56)"/><path class="cls-3" d="M473.27414,139l-7.08816-8.07531c-.65742.03765-1.36166.07531-2.06589.07531H456v8h-5V114h13.03125c8.19824.002,13.15332,3.31738,13.15332,8.7959,0,3.89258-2.52246,6.70313-6.93652,7.96484L477.72461,139Zm-1.34562-16.517c0-3.49226-2.92362-5.483-8.50972-5.483H456v11h7.4188C469.0049,128,471.92852,125.97428,471.92852,122.483Z" transform="translate(-24 -56)"/></svg>