<svg width="52" height="59" viewBox="0 0 52 59" fill="none" xmlns="http://www.w3.org/2000/svg">
<path d="M51.8085 15.2077C51.4001 13.6036 49.796 12.6702 48.1918 13.0202C41.2501 14.5661 33.521 15.2369 26.2876 15.2369C19.0543 15.2369 11.3251 14.5661 4.38346 13.0202C2.77929 12.6702 1.17513 13.6036 0.766795 15.2077C0.358462 16.8411 1.35013 18.5036 2.9543 18.8827C7.65013 19.9327 12.7251 20.6619 17.5376 21.0702V56.0702C17.5376 57.6744 18.8501 58.9869 20.4543 58.9869C22.0585 58.9869 23.371 57.6744 23.371 56.0702V41.4869H29.2043V56.0702C29.2043 57.6744 30.5168 58.9869 32.121 58.9869C33.7251 58.9869 35.0376 57.6744 35.0376 56.0702V21.0702C39.8501 20.6619 44.9251 19.9327 49.5918 18.8827C51.2251 18.5036 52.2168 16.8411 51.8085 15.2077V15.2077ZM26.2876 12.3202C29.496 12.3202 32.121 9.69523 32.121 6.4869C32.121 3.27856 29.496 0.653564 26.2876 0.653564C23.0793 0.653564 20.4543 3.27856 20.4543 6.4869C20.4543 9.69523 23.0793 12.3202 26.2876 12.3202Z" fill="#FF7025"/>
</svg>
