<svg id="Layer_1" data-name="Layer 1" xmlns="http://www.w3.org/2000/svg" viewBox="0 0 453.72 141.75"><defs><style>.cls-1{fill:#436475;}.cls-2{fill:#995436;}.cls-3{fill:#2d2d2d;}</style></defs><title>Personal Logo Two - Colored 3 (Landscaped)</title><path class="cls-1" d="M73,112.7V76.44a.77.77,0,0,0-.74-.76,95.11,95.11,0,0,1-16.72-2,.76.76,0,0,0-.93.75V105a.77.77,0,0,1-.22.54L43.7,116.36a.77.77,0,0,1-1.31-.54V70.1a.77.77,0,0,0-.46-.7C34.15,66,28.34,61.5,25.46,56.34a.17.17,0,0,1-.09-.09,2.1,2.1,0,0,0-.46-.22h0a.18.18,0,0,1-.1,0h-.28a.16.16,0,0,1-.07,0,1.07,1.07,0,0,0-.2.34.21.21,0,0,1,0,.06h0c.51,17.47-.25,95.06-.25,95.06a.77.77,0,0,0,.24.56l16.85,16a.77.77,0,0,0,1.29-.56v-20a.77.77,0,0,1,1.32-.53l10.73,11.06a.77.77,0,0,1,.22.53v22a.77.77,0,0,0,.24.56l16.86,16a.77.77,0,0,0,1.29-.56V150.85a.77.77,0,0,0-.22-.54L54.65,131.77v0l-.14-.14,16.84-16.94h0l1.47-1.46A.77.77,0,0,0,73,112.7Z" transform="translate(-24 -56)"/><path class="cls-2" d="M126.86,57.5v98.16a.77.77,0,0,1-.26.57l-10.71,9.45-7.42,6.49-9.57,8.39-19.42,17a.77.77,0,0,1-1.27-.58V174.27h0V133L78,121.21a.77.77,0,0,1,1.21-.64l17.2,12.19a.62.62,0,0,1,.16.29v23.08a.77.77,0,0,0,1.28.57l10.34-9.23a.77.77,0,0,0,.26-.57V86l-.09-1.65a.77.77,0,0,0-.45-.66L90,75.74a.77.77,0,0,1,.21-1.46c16.56-2.41,29.78-8.9,35.26-17.22A.76.76,0,0,1,126.86,57.5Z" transform="translate(-24 -56)"/><path class="cls-3" d="M160.63,128,155,132.71V139h-5V114h5v14.09L172,114h5.14l-13.47,11.35L178,139H172.7Z" transform="translate(-24 -56)"/><path class="cls-3" d="M212,136v3H189V114h23v3H194v8h16v3H194v8Z" transform="translate(-24 -56)"/><path class="cls-3" d="M254,114v25h-4.13L231,120.42V139h-5V114h4.14L249,132.82V114Z" transform="translate(-24 -56)"/><path class="cls-3" d="M283.52,135.88l2.61-2.45a8.45,8.45,0,0,0,6.58,3c3.56,0,5.29-5.12,5.29-5.12V117H287v-3h15v17.12c.58,5.62-2.85,8.4-9.29,8.4C289,139.52,285.55,138.22,283.52,135.88Z" transform="translate(-24 -56)"/><path class="cls-3" d="M337.53,133H321.59l-3.3,6h-5.07l14.15-25h4.42L346,139h-5.16Zm-1.17-3-6.8-12.36L322.76,130Z" transform="translate(-24 -56)"/><path class="cls-3" d="M383.16,114l-13.7,25H365l-13.75-25h4.82l11.25,20.54L378.69,114Z" transform="translate(-24 -56)"/><path class="cls-3" d="M394,114h5v25h-5Z" transform="translate(-24 -56)"/><path class="cls-3" d="M437,136v3H415V114h22v3H419v8h16v3H419v8Z" transform="translate(-24 -56)"/><path class="cls-3" d="M473.27,139l-7.09-8.08c-.66,0-1.36.08-2.07.08H456v8h-5V114h13c8.2,0,13.15,3.32,13.15,8.8,0,3.89-2.52,6.7-6.94,8l7.48,8.24Zm-1.35-16.52c0-3.49-2.92-5.48-8.51-5.48H456v11h7.42C469,128,471.93,126,471.93,122.48Z" transform="translate(-24 -56)"/></svg>