<?xml version="1.0" encoding="UTF-8"?>
<svg xmlns="http://www.w3.org/2000/svg" xmlns:xlink="http://www.w3.org/1999/xlink" width="810pt" height="809.999993pt" viewBox="0 0 810 809.999993" version="1.2">
<g id="surface1">
<path style=" stroke:none;fill-rule:nonzero;fill:rgb(0%,11.369324%,14.509583%);fill-opacity:1;" d="M 0 67.5 L 0 742.5 C 0 779.792969 30.207031 810 67.5 810 L 742.5 810 C 779.792969 810 810 779.792969 810 742.5 L 810 67.5 C 810 30.207031 779.792969 0 742.5 0 L 67.5 0 C 30.207031 0 0 30.207031 0 67.5 Z M 0 67.5 "/>
<path style=" stroke:none;fill-rule:nonzero;fill:rgb(0%,78.42865%,99.609375%);fill-opacity:1;" d="M 742.5 33.75 C 761.097656 33.75 776.25 48.902344 776.25 67.5 L 776.25 742.5 C 776.25 761.097656 761.097656 776.25 742.5 776.25 L 67.5 776.25 C 48.902344 776.25 33.75 761.097656 33.75 742.5 L 33.75 67.5 C 33.75 48.902344 48.902344 33.75 67.5 33.75 Z M 742.5 0 L 67.5 0 C 30.238281 0 0 30.207031 0 67.5 L 0 742.5 C 0 779.792969 30.238281 810 67.5 810 L 742.5 810 C 779.761719 810 810 779.792969 810 742.5 L 810 67.5 C 810 30.207031 779.761719 0 742.5 0 Z M 742.5 0 "/>
<path style=" stroke:none;fill-rule:nonzero;fill:rgb(0%,78.42865%,99.609375%);fill-opacity:1;" d="M 524.980469 556.941406 C 495.417969 556.941406 470.304688 550.765625 455.792969 542.429688 C 453.601562 541.316406 453.09375 539.664062 453.09375 536.859375 L 453.09375 487.351562 C 453.09375 483.976562 454.714844 482.859375 456.941406 484.515625 C 478 498.453125 502.570312 504.5625 524.847656 504.5625 C 551.578125 504.5625 562.714844 493.425781 562.714844 478.371094 C 562.714844 466.121094 554.953125 455.523438 520.964844 437.703125 C 473.039062 414.753906 452.992188 391.464844 452.992188 352.417969 C 452.992188 308.980469 486.945312 272.765625 545.972656 272.765625 C 575 272.765625 595.382812 277.222656 606.519531 282.21875 C 609.289062 283.90625 609.894531 286.671875 609.894531 288.898438 L 609.894531 335.136719 C 609.894531 337.9375 608.207031 339.625 604.832031 338.511719 C 589.847656 329.601562 567.707031 324 546.007812 324 L 546.140625 324.136719 C 519.414062 324.136719 510.503906 337.5 510.503906 348.636719 C 510.503906 360.890625 516.578125 369.226562 552.25 387.617188 C 605.171875 413.269531 621.84375 437.738281 621.84375 473.917969 C 621.84375 527.917969 580.667969 556.941406 524.980469 556.941406 Z M 524.980469 556.941406 "/>
<path style=" stroke:none;fill-rule:nonzero;fill:rgb(0%,78.42865%,99.609375%);fill-opacity:1;" d="M 290.316406 179.347656 C 256.90625 179.347656 225.046875 179.921875 203.308594 181.035156 C 200.476562 181.035156 195.75 182.6875 195.75 184.949219 L 195.785156 184.949219 L 195.785156 548.03125 C 195.785156 550.832031 196.863281 551.847656 199.664062 551.847656 L 251.773438 551.847656 C 254.542969 551.847656 255.65625 550.734375 255.65625 547.929688 L 255.65625 418.265625 C 264.601562 418.265625 268.988281 418.835938 281.8125 418.835938 C 358.085938 418.835938 420.253906 382.050781 420.253906 296.324219 C 420.253906 230.648438 383.871094 179.347656 290.316406 179.347656 Z M 282.992188 364.769531 C 269.59375 364.769531 263.453125 364.769531 255.691406 364.230469 L 255.691406 233.921875 C 261.832031 233.347656 274.625 232.808594 287.988281 232.808594 C 333.078125 232.808594 359.605469 254.542969 359.605469 297.40625 C 359.605469 350.863281 322.480469 364.769531 282.992188 364.769531 Z M 282.992188 364.769531 "/>
</g>
</svg>
