<?xml version="1.0" encoding="UTF-8"?>
<svg xmlns="http://www.w3.org/2000/svg" xmlns:xlink="http://www.w3.org/1999/xlink" width="810pt" height="809.999993pt" viewBox="0 0 810 809.999993" version="1.2">
<g id="surface1">
<path style=" stroke:none;fill-rule:nonzero;fill:rgb(0%,84.709167%,100%);fill-opacity:1;" d="M 665.4375 278.214844 C 657.070312 275.328125 648.386719 272.601562 639.417969 270.019531 C 640.902344 264.023438 642.261719 258.105469 643.460938 252.289062 C 663.132812 156.765625 650.28125 79.8125 606.296875 54.472656 C 564.109375 30.183594 495.148438 55.511719 425.492188 116.070312 C 418.796875 121.894531 412.074219 128.058594 405.378906 134.519531 C 400.894531 130.242188 396.441406 126.113281 391.992188 122.160156 C 318.988281 57.410156 245.816406 30.121094 201.882812 55.53125 C 159.75 79.898438 147.273438 152.238281 165.007812 242.769531 C 166.71875 251.511719 168.71875 260.445312 170.980469 269.523438 C 160.628906 272.460938 150.628906 275.589844 141.066406 278.917969 C 55.484375 308.726562 0.828125 355.445312 0.828125 403.910156 C 0.828125 453.941406 59.503906 504.160156 148.640625 534.601562 C 155.671875 537 162.972656 539.269531 170.496094 541.414062 C 168.054688 551.226562 165.933594 560.847656 164.148438 570.246094 C 147.242188 659.207031 160.445312 729.835938 202.460938 754.03125 C 245.859375 779.046875 318.703125 753.335938 389.621094 691.414062 C 395.242188 686.523438 400.863281 681.320312 406.484375 675.894531 C 413.808594 682.894531 421.105469 689.550781 428.335938 695.796875 C 497.042969 754.851562 564.902344 778.699219 606.863281 754.441406 C 650.21875 729.363281 664.332031 653.464844 646.019531 561.164062 C 644.628906 554.097656 642.988281 546.902344 641.1875 539.585938 C 646.304688 538.070312 651.324219 536.492188 656.21875 534.886719 C 748.894531 504.191406 809.171875 454.632812 809.171875 403.910156 C 809.171875 355.269531 752.746094 308.238281 665.4375 278.214844 Z M 645.355469 502.140625 C 640.933594 503.59375 636.386719 505.011719 631.777344 506.367188 C 621.546875 474.035156 607.75 439.617188 590.824219 404.066406 C 606.960938 369.367188 620.222656 335.40625 630.167969 303.261719 C 638.441406 305.652344 646.460938 308.171875 654.199219 310.832031 C 729 336.558594 774.628906 374.601562 774.628906 403.910156 C 774.628906 435.105469 725.371094 475.644531 645.355469 502.140625 Z M 612.136719 567.851562 C 620.253906 608.667969 621.390625 645.578125 616.023438 674.441406 C 611.222656 700.371094 601.527344 717.660156 589.5625 724.566406 C 564.078125 739.300781 509.609375 720.152344 450.878906 669.648438 C 444.121094 663.84375 437.332031 657.660156 430.542969 651.128906 C 453.3125 626.242188 476.078125 597.3125 498.308594 565.167969 C 537.367188 561.730469 574.277344 556.050781 607.78125 548.324219 C 609.421875 554.980469 610.875 561.476562 612.136719 567.851562 Z M 276.421875 722.011719 C 251.535156 730.8125 231.710938 731.066406 219.726562 724.15625 C 194.230469 709.457031 183.628906 652.738281 198.089844 576.683594 C 199.746094 567.976562 201.71875 559.015625 203.992188 549.867188 C 237.101562 557.1875 273.75 562.457031 312.921875 565.609375 C 335.292969 597.0625 358.722656 625.957031 382.308594 651.257812 C 377.164062 656.238281 372.015625 660.972656 366.898438 665.417969 C 335.546875 692.832031 304.121094 712.265625 276.421875 722.011719 Z M 159.820312 501.953125 C 120.40625 488.480469 87.855469 471.003906 65.542969 451.890625 C 45.492188 434.761719 35.371094 417.726562 35.371094 403.910156 C 35.371094 374.507812 79.253906 336.988281 152.441406 311.496094 C 161.324219 308.402344 170.621094 305.488281 180.265625 302.75 C 190.382812 335.621094 203.652344 369.996094 219.664062 404.730469 C 203.445312 439.996094 189.988281 474.917969 179.773438 508.199219 C 172.894531 506.210938 166.230469 504.128906 159.820312 501.953125 Z M 198.90625 236.144531 C 183.714844 158.582031 193.804688 100.074219 219.195312 85.390625 C 246.234375 69.75 306.035156 92.046875 369.046875 147.960938 C 373.089844 151.535156 377.132812 155.269531 381.203125 159.140625 C 357.710938 184.335938 334.503906 213.019531 312.332031 244.277344 C 274.3125 247.796875 237.921875 253.449219 204.464844 261.023438 C 202.359375 252.570312 200.5 244.265625 198.90625 236.144531 Z M 547.570312 322.160156 C 539.578125 308.359375 531.371094 294.882812 523.003906 281.769531 C 548.800781 285.03125 573.492188 289.355469 596.699219 294.644531 C 589.753906 316.949219 581.070312 340.273438 570.839844 364.191406 C 563.515625 350.273438 555.746094 336.253906 547.570312 322.160156 Z M 405.382812 183.796875 C 421.328125 201.039062 437.273438 220.285156 452.96875 241.167969 C 437.148438 240.421875 421.136719 240.035156 405.003906 240.035156 C 389.027344 240.035156 373.144531 240.414062 357.417969 241.148438 C 373.113281 220.457031 389.214844 201.234375 405.382812 183.796875 Z M 262.285156 322.398438 C 254.296875 336.238281 246.683594 350.183594 239.464844 364.160156 C 229.414062 340.332031 220.808594 316.902344 213.78125 294.277344 C 236.84375 289.125 261.441406 284.90625 287.066406 281.710938 C 278.574219 294.941406 270.296875 308.515625 262.285156 322.394531 Z M 287.800781 528.542969 C 261.324219 525.609375 236.363281 521.605469 213.304688 516.589844 C 220.445312 493.5625 229.234375 469.648438 239.507812 445.296875 C 246.742188 459.269531 254.382812 473.214844 262.421875 487.09375 L 262.425781 487.09375 C 270.613281 501.226562 279.097656 515.042969 287.800781 528.542969 Z M 406.328125 626.429688 C 389.972656 608.796875 373.648438 589.269531 357.703125 568.292969 C 373.175781 568.890625 388.960938 569.207031 405.003906 569.207031 C 421.484375 569.207031 437.777344 568.828125 453.789062 568.132812 C 438.0625 589.488281 422.148438 609.046875 406.328125 626.429688 Z M 571.15625 444.066406 C 581.953125 468.671875 591.082031 492.457031 598.3125 515.105469 C 574.882812 520.4375 549.558594 524.726562 522.90625 527.945312 C 531.308594 514.664062 539.578125 500.941406 547.726562 486.839844 C 555.96875 472.582031 563.765625 458.292969 571.15625 444.066406 Z M 517.792969 469.617188 C 505.160156 491.511719 492.183594 512.394531 479.015625 532.109375 C 455.050781 533.8125 430.265625 534.695312 405.003906 534.695312 C 379.835938 534.695312 355.367188 533.9375 331.808594 532.394531 C 318.105469 512.425781 304.859375 491.480469 292.304688 469.808594 L 292.308594 469.808594 C 279.785156 448.199219 268.261719 426.402344 257.816406 404.730469 C 268.257812 383.027344 279.753906 361.195312 292.203125 339.628906 L 292.199219 339.632812 C 304.683594 318.007812 317.820312 297.152344 331.398438 277.296875 C 355.429688 275.476562 380.089844 274.53125 405.003906 274.53125 C 430.042969 274.53125 454.703125 275.488281 478.734375 277.316406 C 492.121094 297.03125 505.160156 317.816406 517.699219 339.445312 C 530.359375 361.324219 542.011719 382.996094 552.527344 404.253906 C 542.042969 425.863281 530.421875 447.757812 517.792969 469.617188 Z M 589.027344 84.355469 C 616.121094 99.949219 626.632812 162.84375 609.617188 245.316406 C 608.542969 250.578125 607.308594 255.9375 605.984375 261.371094 C 572.449219 253.640625 536.042969 247.886719 497.929688 244.316406 C 475.703125 212.714844 452.683594 183.988281 429.570312 159.117188 C 435.789062 153.148438 442.011719 147.453125 448.167969 142.082031 C 507.847656 90.199219 563.640625 69.714844 589.027344 84.355469 Z M 405.003906 331.78125 C 444.851562 331.78125 477.1875 364.058594 477.1875 403.898438 C 477.1875 443.710938 444.851562 476.011719 405.003906 476.011719 C 365.152344 476.011719 332.820312 443.710938 332.820312 403.898438 C 332.820312 364.058594 365.152344 331.78125 405.003906 331.78125 Z M 405.003906 331.78125 "/>
</g>
</svg>
