<?xml version="1.0" encoding="UTF-8"?>
<svg xmlns="http://www.w3.org/2000/svg" xmlns:xlink="http://www.w3.org/1999/xlink" width="810pt" height="809.999993pt" viewBox="0 0 810 809.999993" version="1.2">
<defs>
<clipPath id="clip1">
  <path d="M 0.75 1 L 810 1 L 810 810 L 0.75 810 Z M 0.75 1 "/>
</clipPath>
</defs>
<g id="surface1">
<g clip-path="url(#clip1)" clip-rule="nonzero">
<path style=" stroke:none;fill-rule:evenodd;fill:rgb(94.119263%,38.42926%,57.249451%);fill-opacity:1;" d="M 405.585938 1.398438 C 629.363281 1.398438 810.75 182.785156 810.75 406.5625 C 810.75 630.316406 629.363281 811.722656 405.585938 811.722656 C 181.832031 811.722656 0.425781 630.335938 0.425781 406.5625 C 0.445312 182.785156 181.832031 1.398438 405.585938 1.398438 Z M 405.585938 1.398438 "/>
</g>
<path style=" stroke:none;fill-rule:nonzero;fill:rgb(100%,100%,100%);fill-opacity:1;" d="M 659.734375 174.808594 C 641.378906 102.84375 522.074219 79.191406 409.160156 119.304688 C 341.964844 143.179688 269.207031 180.65625 216.890625 229.582031 C 154.691406 287.761719 144.785156 338.390625 148.863281 359.546875 C 163.277344 434.191406 265.574219 482.996094 307.617188 519.210938 L 307.617188 519.433594 C 295.210938 525.542969 204.46875 571.464844 183.234375 618.421875 C 160.820312 667.953125 186.804688 703.5 204 708.292969 C 257.289062 723.113281 311.960938 696.457031 341.355469 652.628906 C 369.714844 610.320312 367.359375 555.710938 355.039062 528.527344 C 372.03125 524.042969 391.863281 522.03125 417.039062 524.976562 C 488.109375 533.277344 502.058594 577.65625 499.378906 596.230469 C 496.71875 614.808594 481.796875 625.019531 476.824219 628.105469 C 471.828125 631.191406 470.328125 632.265625 470.734375 634.539062 C 471.339844 637.867188 473.636719 637.746094 477.898438 637.035156 C 483.746094 636.042969 515.210938 621.933594 516.570312 587.644531 C 518.277344 544.121094 476.578125 495.4375 402.726562 496.699219 C 372.316406 497.226562 353.191406 500.109375 339.367188 505.265625 C 338.351562 504.105469 337.296875 502.949219 336.242188 501.792969 C 290.582031 453.070312 206.171875 418.621094 209.746094 353.128906 C 211.046875 329.316406 219.328125 266.628906 371.929688 190.582031 C 496.941406 128.28125 597.023438 145.433594 614.320312 183.417969 C 639.027344 237.699219 560.828125 338.574219 431.003906 353.128906 C 381.53125 358.671875 355.484375 339.507812 349.007812 332.363281 C 342.1875 324.851562 341.171875 324.507812 338.636719 325.925781 C 334.496094 328.222656 337.113281 334.859375 338.636719 338.820312 C 342.511719 348.90625 358.429688 366.792969 385.53125 375.703125 C 409.382812 383.539062 467.464844 387.824219 537.703125 360.660156 C 616.351562 330.210938 677.78125 245.558594 659.734375 174.808594 Z M 325.074219 541.519531 C 330.960938 563.324219 330.3125 583.664062 324.242188 602.078125 C 323.574219 604.128906 322.820312 606.140625 322.007812 608.148438 C 321.199219 610.136719 320.324219 612.128906 319.390625 614.078125 C 314.699219 623.820312 308.386719 632.9375 300.671875 641.359375 C 277.125 667.039062 244.238281 676.746094 230.148438 668.5625 C 214.921875 659.734375 222.554688 623.535156 249.839844 594.667969 C 279.195312 563.628906 321.441406 543.671875 321.441406 543.671875 L 321.378906 543.550781 C 322.597656 542.882812 323.835938 542.210938 325.074219 541.519531 Z M 325.074219 541.519531 "/>
</g>
</svg>
