<svg xmlns="http://www.w3.org/2000/svg" width="810" viewBox="0 0 810 810" height="810" version="1.0"><path fill="#FFF" d="M-81 -81H891V891H-81z"/><path fill="#FFF" d="M-81 -81H891V891H-81z"/><path fill="#FFF" d="M-81 -81H891V891H-81z"/><path fill="#1677C7" d="M -3.96875 405.15625 L -3.96875 813.53125 L 812.78125 813.53125 L 812.78125 -3.21875 L -3.96875 -3.21875 Z M 491.628906 664.679688 C 495.304688 662.605469 509.019531 654.675781 521.984375 647.152344 L 545.46875 633.542969 L 550.402344 640.824219 C 557.277344 651.304688 572.285156 665.703125 581.371094 670.5 C 607.4375 684.25 643.207031 682.308594 660.832031 666.484375 C 667.402344 660.9375 671.519531 652.703125 671.519531 643.511719 C 671.519531 642.96875 671.519531 642.457031 671.484375 641.914062 L 671.484375 641.980469 C 671.484375 632.519531 670.292969 628.367188 665.359375 621.222656 C 659.03125 612.171875 646.0625 604.546875 609.242188 588.550781 C 567.109375 570.414062 548.972656 559.148438 532.367188 541.25 C 522.359375 529.882812 514.636719 516.203125 510.144531 501.160156 L 509.9375 500.410156 C 506.84375 488.875 506.058594 459.949219 508.507812 448.308594 C 517.1875 407.574219 547.917969 379.226562 592.261719 370.785156 C 606.65625 368.0625 640.109375 369.085938 654.230469 372.589844 L 654.230469 372.625 C 674.992188 377.796875 690.78125 387.019531 705.3125 402.0625 C 712.832031 410.09375 723.996094 424.726562 724.878906 428.265625 C 725.152344 429.285156 689.625 453.109375 668.117188 466.480469 C 667.332031 466.992188 664.203125 463.625 660.730469 458.449219 C 650.179688 443.136719 639.191406 436.535156 622.34375 435.378906 C 597.570312 433.675781 581.644531 446.640625 581.777344 468.285156 C 581.777344 468.660156 581.746094 469.101562 581.746094 469.546875 C 581.746094 474.683594 583.039062 479.515625 585.316406 483.734375 L 585.25 483.566406 C 590.695312 494.832031 600.835938 501.601562 632.554688 515.316406 C 691.054688 540.5 716.066406 557.074219 731.617188 580.65625 C 748.972656 606.964844 752.886719 648.992188 741.078125 680.230469 C 728.148438 714.195312 695.988281 737.269531 650.726562 744.890625 C 636.738281 747.375 603.558594 747 588.515625 744.277344 C 555.710938 738.425781 524.605469 722.226562 505.414062 700.957031 C 497.890625 692.6875 483.222656 671.011719 484.144531 669.480469 C 484.515625 668.933594 487.886719 666.859375 491.628906 664.679688 Z M 174.96875 407.371094 C 174.96875 389.195312 175.34375 374.019531 175.855469 373.679688 C 176.261719 373.132812 240.957031 372.863281 319.363281 373 L 462.125 373.40625 L 462.5 406.722656 L 462.769531 440.175781 L 356.421875 440.175781 L 356.421875 742.238281 L 281.214844 742.238281 L 281.214844 440.175781 L 174.96875 440.175781 Z M 174.96875 407.371094"/></svg>