<svg width="400" height="400" viewBox="0 0 400 400" fill="none" xmlns="http://www.w3.org/2000/svg">
<circle cx="200" cy="200" r="200" fill="#92D7FB"/>
<path d="M199.948 211.309C189.896 211.309 181.718 203.136 181.718 193.091C181.718 183.049 189.895 174.883 199.948 174.883C209.994 174.883 218.167 183.049 218.167 193.091C218.169 203.136 209.994 211.309 199.948 211.309ZM199.948 183.51C194.657 183.51 190.351 187.808 190.351 193.092C190.351 198.379 194.655 202.684 199.948 202.684C205.234 202.684 209.535 198.379 209.535 193.092C209.536 187.808 205.235 183.51 199.948 183.51Z" fill="#181818"/>
<path d="M217.357 235.432C214.65 228.241 207.655 223.409 199.95 223.409C192.245 223.409 185.249 228.241 182.544 235.432L174.462 232.396C178.426 221.861 188.668 214.783 199.95 214.783C211.232 214.783 221.474 221.86 225.437 232.396L217.357 235.432Z" fill="#181818"/>
<path d="M262.058 286.218H137.833V113.492H262.058V286.218ZM146.467 277.591H253.425V122.119H146.467V277.591Z" fill="#181818"/>
<path d="M199.948 244.425C175.353 244.425 155.344 224.433 155.344 199.856C155.344 175.282 175.353 155.29 199.948 155.29C224.54 155.29 244.55 175.281 244.55 199.856C244.55 224.432 224.541 244.425 199.948 244.425ZM199.948 163.918C180.113 163.918 163.977 180.04 163.977 199.857C163.977 219.674 180.113 235.801 199.948 235.801C219.78 235.801 235.917 219.674 235.917 199.857C235.917 180.04 219.78 163.918 199.948 163.918Z" fill="#181818"/>
<path d="M194.953 94.6992H204.931V103.326H194.953V94.6992Z" fill="#181818"/>
<path d="M178.666 296.352H221.222V304.979H178.666V296.352Z" fill="#181818"/>
<path d="M258.019 328.752H141.876C129.682 328.752 119.762 318.846 119.762 306.669V291.692H128.396V306.669C128.396 314.091 134.443 320.125 141.877 320.125H258.021C265.449 320.125 271.49 314.091 271.49 306.669V93.0237C271.49 85.5936 265.449 79.55 258.021 79.55H141.876C134.442 79.55 128.394 85.5949 128.394 93.0237V241.85H119.761V93.0237C119.761 80.8371 129.682 70.9231 141.875 70.9231H258.017C270.204 70.9231 280.121 80.8371 280.121 93.0237V306.671C280.122 318.847 270.207 328.752 258.019 328.752Z" fill="#181818"/>
<path d="M146.467 296.006H68V237.536H146.467V296.006ZM76.6332 287.379H137.833V246.163H76.6332V287.379Z" fill="#181818"/>
<path d="M90.4851 270.764H107.237V279.391H90.4851V270.764Z" fill="#181818"/>
<path d="M90.4851 254.148H123.985V262.775H90.4851V254.148Z" fill="#181818"/>
<path d="M323.367 237.536H332V246.163H323.367V237.536Z" fill="#181818"/>
<path d="M314.735 246.163H306.102V237.536H314.735V246.163ZM297.47 246.163H288.838V237.536H297.47V246.163Z" fill="#181818"/>
<path d="M314.735 122.119H306.102V113.492H314.735V122.119ZM297.47 122.119H288.838V113.492H297.47V122.119Z" fill="#181818"/>
<path d="M323.367 113.492H332V122.119H323.367V113.492Z" fill="#181818"/>
<path d="M332 228.66H323.367V219.781H332V228.66ZM332 210.902H323.367V202.024H332V210.902ZM332 193.144H323.367V184.266H332V193.144ZM332 175.389H323.367V166.512H332V175.389ZM332 157.631H323.367V148.754H332V157.631ZM332 139.877H323.367V130.998H332V139.877Z" fill="#181818"/>
</svg>
