<?xml version="1.0" encoding="UTF-8"?>
<svg xmlns="http://www.w3.org/2000/svg" xmlns:xlink="http://www.w3.org/1999/xlink" width="810pt" height="809.999993pt" viewBox="0 0 810 809.999993" version="1.2">
<defs>
<clipPath id="clip1">
  <path d="M 158 8.101562 L 651 8.101562 L 651 801 L 158 801 Z M 158 8.101562 "/>
</clipPath>
</defs>
<g id="surface1">
<path style=" stroke:none;fill-rule:nonzero;fill:rgb(9.408569%,9.408569%,9.408569%);fill-opacity:1;" d="M 404.839844 439.699219 C 374 439.699219 348.90625 414.621094 348.90625 383.800781 C 348.90625 352.992188 373.996094 327.9375 404.839844 327.9375 C 435.664062 327.9375 460.738281 352.992188 460.738281 383.800781 C 460.746094 414.621094 435.664062 439.699219 404.839844 439.699219 Z M 404.839844 354.40625 C 388.605469 354.40625 375.394531 367.59375 375.394531 383.804688 C 375.394531 400.027344 388.601562 413.234375 404.839844 413.234375 C 421.058594 413.234375 434.253906 400.027344 434.253906 383.804688 C 434.257812 367.59375 421.0625 354.40625 404.839844 354.40625 Z M 404.839844 354.40625 "/>
<path style=" stroke:none;fill-rule:nonzero;fill:rgb(9.408569%,9.408569%,9.408569%);fill-opacity:1;" d="M 458.253906 513.710938 C 449.949219 491.648438 428.488281 476.824219 404.847656 476.824219 C 381.207031 476.824219 359.742188 491.648438 351.441406 513.710938 L 326.644531 504.398438 C 338.808594 472.074219 370.230469 450.355469 404.847656 450.355469 C 439.460938 450.355469 470.886719 472.070312 483.046875 504.398438 Z M 458.253906 513.710938 "/>
<path style=" stroke:none;fill-rule:nonzero;fill:rgb(9.408569%,9.408569%,9.408569%);fill-opacity:1;" d="M 595.40625 669.53125 L 214.261719 669.53125 L 214.261719 139.578125 L 595.40625 139.578125 Z M 240.75 643.0625 L 568.917969 643.0625 L 568.917969 166.046875 L 240.75 166.046875 Z M 240.75 643.0625 "/>
<path style=" stroke:none;fill-rule:nonzero;fill:rgb(9.408569%,9.408569%,9.408569%);fill-opacity:1;" d="M 404.839844 541.304688 C 329.378906 541.304688 267.988281 479.964844 267.988281 404.558594 C 267.988281 329.160156 329.378906 267.820312 404.839844 267.820312 C 480.292969 267.820312 541.6875 329.15625 541.6875 404.558594 C 541.6875 479.960938 480.296875 541.304688 404.839844 541.304688 Z M 404.839844 294.292969 C 343.984375 294.292969 294.476562 343.757812 294.476562 404.5625 C 294.476562 465.363281 343.984375 514.84375 404.839844 514.84375 C 465.6875 514.84375 515.199219 465.363281 515.199219 404.5625 C 515.199219 343.757812 465.6875 294.292969 404.839844 294.292969 Z M 404.839844 294.292969 "/>
<path style=" stroke:none;fill-rule:nonzero;fill:rgb(9.408569%,9.408569%,9.408569%);fill-opacity:1;" d="M 389.515625 81.917969 L 420.128906 81.917969 L 420.128906 108.386719 L 389.515625 108.386719 Z M 389.515625 81.917969 "/>
<path style=" stroke:none;fill-rule:nonzero;fill:rgb(9.408569%,9.408569%,9.408569%);fill-opacity:1;" d="M 339.542969 700.625 L 470.113281 700.625 L 470.113281 727.09375 L 339.542969 727.09375 Z M 339.542969 700.625 "/>
<g clip-path="url(#clip1)" clip-rule="nonzero">
<path style=" stroke:none;fill-rule:nonzero;fill:rgb(9.408569%,9.408569%,9.408569%);fill-opacity:1;" d="M 583.011719 800.035156 L 226.664062 800.035156 C 189.25 800.035156 158.816406 769.640625 158.816406 732.28125 L 158.816406 686.328125 L 185.304688 686.328125 L 185.304688 732.28125 C 185.304688 755.050781 203.859375 773.566406 226.667969 773.566406 L 583.019531 773.566406 C 605.808594 773.566406 624.34375 755.050781 624.34375 732.28125 L 624.34375 76.777344 C 624.34375 53.980469 605.808594 35.4375 583.019531 35.4375 L 226.664062 35.4375 C 203.855469 35.4375 185.300781 53.984375 185.300781 76.777344 L 185.300781 533.402344 L 158.8125 533.402344 L 158.8125 76.777344 C 158.8125 39.386719 189.25 8.96875 226.660156 8.96875 L 583.007812 8.96875 C 620.398438 8.96875 650.824219 39.386719 650.824219 76.777344 L 650.824219 732.285156 C 650.828125 769.644531 620.40625 800.035156 583.011719 800.035156 Z M 583.011719 800.035156 "/>
</g>
<path style=" stroke:none;fill-rule:nonzero;fill:rgb(9.408569%,9.408569%,9.408569%);fill-opacity:1;" d="M 240.75 699.5625 L 0 699.5625 L 0 520.167969 L 240.75 520.167969 Z M 26.488281 673.09375 L 214.261719 673.09375 L 214.261719 546.636719 L 26.488281 546.636719 Z M 26.488281 673.09375 "/>
<path style=" stroke:none;fill-rule:nonzero;fill:rgb(9.408569%,9.408569%,9.408569%);fill-opacity:1;" d="M 68.988281 622.117188 L 120.386719 622.117188 L 120.386719 648.585938 L 68.988281 648.585938 Z M 68.988281 622.117188 "/>
<path style=" stroke:none;fill-rule:nonzero;fill:rgb(9.408569%,9.408569%,9.408569%);fill-opacity:1;" d="M 68.988281 571.136719 L 171.773438 571.136719 L 171.773438 597.605469 L 68.988281 597.605469 Z M 68.988281 571.136719 "/>
<path style=" stroke:none;fill-rule:nonzero;fill:rgb(9.408569%,9.408569%,9.408569%);fill-opacity:1;" d="M 783.511719 520.167969 L 810 520.167969 L 810 546.636719 L 783.511719 546.636719 Z M 783.511719 520.167969 "/>
<path style=" stroke:none;fill-rule:nonzero;fill:rgb(9.408569%,9.408569%,9.408569%);fill-opacity:1;" d="M 757.027344 546.636719 L 730.539062 546.636719 L 730.539062 520.167969 L 757.027344 520.167969 Z M 704.054688 546.636719 L 677.570312 546.636719 L 677.570312 520.167969 L 704.054688 520.167969 Z M 704.054688 546.636719 "/>
<path style=" stroke:none;fill-rule:nonzero;fill:rgb(9.408569%,9.408569%,9.408569%);fill-opacity:1;" d="M 757.027344 166.046875 L 730.539062 166.046875 L 730.539062 139.578125 L 757.027344 139.578125 Z M 704.054688 166.046875 L 677.570312 166.046875 L 677.570312 139.578125 L 704.054688 139.578125 Z M 704.054688 166.046875 "/>
<path style=" stroke:none;fill-rule:nonzero;fill:rgb(9.408569%,9.408569%,9.408569%);fill-opacity:1;" d="M 783.511719 139.578125 L 810 139.578125 L 810 166.046875 L 783.511719 166.046875 Z M 783.511719 139.578125 "/>
<path style=" stroke:none;fill-rule:nonzero;fill:rgb(9.408569%,9.408569%,9.408569%);fill-opacity:1;" d="M 810 492.933594 L 783.511719 492.933594 L 783.511719 465.691406 L 810 465.691406 Z M 810 438.449219 L 783.511719 438.449219 L 783.511719 411.210938 L 810 411.210938 Z M 810 383.964844 L 783.511719 383.964844 L 783.511719 356.726562 L 810 356.726562 Z M 810 329.488281 L 783.511719 329.488281 L 783.511719 302.253906 L 810 302.253906 Z M 810 275.003906 L 783.511719 275.003906 L 783.511719 247.769531 L 810 247.769531 Z M 810 220.53125 L 783.511719 220.53125 L 783.511719 193.289062 L 810 193.289062 Z M 810 220.53125 "/>
</g>
</svg>
