<svg width="71" height="62" viewBox="0 0 71 62" fill="none" xmlns="http://www.w3.org/2000/svg">
<path d="M35.0148 5.14913C35.1005 5.10212 35.1969 5.07802 35.2947 5.07915C35.391 5.07877 35.4858 5.10285 35.5702 5.14913C35.6702 5.2091 35.7519 5.29531 35.8064 5.39842L65.7954 56.424C65.9529 56.6864 65.9485 56.9663 65.8042 57.2243C65.7487 57.3302 65.6675 57.4204 65.568 57.4867C65.4814 57.5399 65.3809 57.5658 65.2794 57.5611H5.31001C5.20849 57.566 5.10785 57.5401 5.02136 57.4867C4.92188 57.4204 4.84066 57.3302 4.78519 57.2243C4.71312 57.1029 4.67581 56.9641 4.67735 56.8229C4.6789 56.6818 4.71923 56.5438 4.79393 56.424L34.7786 5.39842C34.8333 5.29545 34.9149 5.20928 35.0148 5.14913V5.14913ZM39.5807 3.18106C39.1478 2.42691 38.5235 1.80034 37.771 1.36462C37.0185 0.928906 36.1643 0.699463 35.2947 0.699463C34.4251 0.699463 33.5709 0.928906 32.8184 1.36462C32.0658 1.80034 31.4416 2.42691 31.0087 3.18106L1.01961 54.2066C-0.979079 57.6092 1.4176 61.9346 5.30563 61.9346H65.2794C69.1674 61.9346 71.5685 57.6048 69.5654 54.2066L39.5807 3.18106Z" fill="#FF7025"/>
<path d="M30.9219 48.8141C30.9219 48.2397 31.0351 47.671 31.2548 47.1404C31.4746 46.6098 31.7968 46.1277 32.2029 45.7215C32.609 45.3154 33.0911 44.9933 33.6218 44.7735C34.1524 44.5537 34.7211 44.4406 35.2954 44.4406C35.8698 44.4406 36.4385 44.5537 36.9691 44.7735C37.4997 44.9933 37.9818 45.3154 38.388 45.7215C38.7941 46.1277 39.1162 46.6098 39.336 47.1404C39.5558 47.671 39.6689 48.2397 39.6689 48.8141C39.6689 49.974 39.2081 51.0864 38.388 51.9066C37.5678 52.7268 36.4554 53.1876 35.2954 53.1876C34.1355 53.1876 33.0231 52.7268 32.2029 51.9066C31.3827 51.0864 30.9219 49.974 30.9219 48.8141V48.8141ZM31.3505 22.5512C31.2923 21.9995 31.3507 21.4416 31.522 20.9139C31.6933 20.3862 31.9736 19.9004 32.3447 19.488C32.7159 19.0756 33.1696 18.7458 33.6764 18.5201C34.1832 18.2944 34.7319 18.1777 35.2867 18.1777C35.8415 18.1777 36.3901 18.2944 36.897 18.5201C37.4038 18.7458 37.8575 19.0756 38.2286 19.488C38.5998 19.9004 38.8801 20.3862 39.0514 20.9139C39.2227 21.4416 39.2811 21.9995 39.2228 22.5512L37.6921 37.8891C37.6407 38.4916 37.365 39.0529 36.9196 39.4619C36.4741 39.871 35.8914 40.0979 35.2867 40.0979C34.6819 40.0979 34.0992 39.871 33.6538 39.4619C33.2084 39.0529 32.9327 38.4916 32.8813 37.8891L31.3505 22.5512Z" fill="#FF7025"/>
</svg>
