<?xml version="1.0" encoding="UTF-8"?>
<svg xmlns="http://www.w3.org/2000/svg" xmlns:xlink="http://www.w3.org/1999/xlink" width="810pt" height="809.999993pt" viewBox="0 0 810 809.999993" version="1.2">
<g id="surface1">
<path style=" stroke:none;fill-rule:evenodd;fill:rgb(0%,0%,0%);fill-opacity:1;" d="M 304.585938 676.117188 L 505.414062 676.117188 L 538.882812 810 L 271.117188 810 Z M 304.585938 676.117188 "/>
<path style=" stroke:none;fill-rule:evenodd;fill:rgb(0%,0%,0%);fill-opacity:1;" d="M 806.652344 174.050781 C 806.652344 155.570312 791.660156 140.578125 773.183594 140.578125 L 36.816406 140.578125 C 18.339844 140.578125 3.347656 155.832031 3.347656 174.050781 L 3.347656 676.117188 C 3.347656 694.59375 18.339844 709.585938 36.816406 709.585938 L 773.183594 709.585938 C 791.660156 709.585938 806.652344 694.332031 806.652344 676.117188 Z M 806.652344 174.050781 "/>
<path style=" stroke:none;fill-rule:evenodd;fill:rgb(100%,100%,100%);fill-opacity:1;" d="M 36.816406 174.050781 L 773.183594 174.050781 L 773.183594 642.644531 L 36.816406 642.644531 Z M 36.816406 174.050781 "/>
<path style=" stroke:none;fill-rule:evenodd;fill:rgb(0%,0%,0%);fill-opacity:1;" d="M 572.355469 793.265625 C 572.355469 784.023438 564.773438 776.527344 555.269531 776.527344 L 254.730469 776.527344 C 245.316406 776.527344 237.644531 784.285156 237.644531 793.265625 C 237.644531 802.503906 245.226562 810 254.730469 810 L 555.269531 810 C 564.683594 810 572.355469 802.242188 572.355469 793.265625 Z M 572.355469 793.265625 "/>
<path style=" stroke:none;fill-rule:evenodd;fill:rgb(0%,0%,0%);fill-opacity:1;" d="M 774.839844 117.828125 C 802.46875 93.160156 803.949219 52.195312 777.628906 25.871094 C 751.476562 -0.191406 710.421875 0.855469 685.667969 28.660156 L 351.566406 404.597656 L 398.898438 451.929688 Z M 774.839844 117.828125 "/>
<path style=" stroke:none;fill-rule:evenodd;fill:rgb(0%,0%,0%);fill-opacity:1;" d="M 205.917969 532.816406 C 265.277344 580.496094 356.1875 541.96875 382.335938 515.820312 C 408.488281 489.671875 408.488281 447.308594 382.335938 421.160156 C 356.1875 395.011719 313.828125 395.011719 287.675781 421.160156 C 261.527344 447.308594 259.347656 512.421875 205.917969 532.816406 Z M 205.917969 532.816406 "/>
<path style=" stroke:none;fill-rule:evenodd;fill:rgb(100%,100%,100%);fill-opacity:1;" d="M 424 429.613281 L 398.898438 451.929688 L 351.566406 404.597656 L 373.882812 379.496094 Z M 424 429.613281 "/>
</g>
</svg>
