<svg width="400" height="400" viewBox="0 0 400 400" fill="none" xmlns="http://www.w3.org/2000/svg">
<circle cx="200" cy="200" r="200" fill="#92D7FB"/>
<path d="M300.47 178.963C301.779 178.963 302.433 179.549 302.621 180.86C303.29 185.367 303.964 189.878 304.597 194.399C304.687 195.061 304.951 195.345 305.618 195.505C310.557 196.681 315.227 198.583 319.597 201.176C319.951 201.387 320.764 201.36 321.102 201.115C324.676 198.352 328.297 195.623 331.89 192.905C333.003 192.069 334.019 192.108 335.016 193.079C338.574 196.54 342.121 200.02 345.687 203.512C346.812 204.593 346.877 205.402 345.956 206.649C343.246 210.343 340.565 214.027 337.844 217.696C337.515 218.143 337.51 218.428 337.794 218.879C340.731 223.57 342.892 228.589 344.159 233.984C344.316 234.669 344.701 234.797 345.284 234.88C349.805 235.542 354.334 236.201 358.866 236.86C360.133 237.047 360.737 237.708 360.737 238.963C360.74 244.073 360.74 249.201 360.737 254.317C360.737 255.563 360.142 256.232 358.875 256.42C354.372 257.079 349.871 257.738 345.356 258.369C344.651 258.464 344.312 258.71 344.135 259.447C342.942 264.427 340.974 269.103 338.335 273.49C338.066 273.942 338.056 274.236 338.385 274.666C341.192 278.289 343.955 281.924 346.72 285.55C347.672 286.777 347.632 287.607 346.539 288.71C343.069 292.242 339.613 295.76 336.131 299.285C335.088 300.341 334.1 300.442 332.9 299.563C329.191 296.861 325.498 294.187 321.805 291.476C321.567 291.304 320.956 291.276 320.702 291.441C315.974 294.382 310.914 296.53 305.489 297.806C304.809 297.967 304.685 298.315 304.602 298.863C303.948 303.406 303.288 307.947 302.62 312.483C302.432 313.726 301.753 314.313 300.472 314.313C295.357 314.313 290.266 314.313 285.144 314.313C283.835 314.313 283.18 313.731 282.984 312.413C282.323 307.905 281.662 303.399 281.023 298.875C280.929 298.216 280.666 297.932 280.007 297.768C275.056 296.593 270.388 294.695 266.027 292.096C265.678 291.888 264.843 291.907 264.517 292.157C260.939 294.922 257.326 297.649 253.722 300.369C252.613 301.208 251.606 301.165 250.601 300.199C247.041 296.731 243.478 293.26 239.927 289.779C238.803 288.682 238.737 287.872 239.664 286.619C242.366 282.927 245.049 279.227 247.769 275.578C248.098 275.133 248.11 274.841 247.826 274.395C244.882 269.702 242.726 264.678 241.449 259.291C241.286 258.606 240.922 258.458 240.327 258.389C235.806 257.733 231.282 257.074 226.748 256.415C225.436 256.228 224.871 255.561 224.871 254.226C224.871 249.154 224.871 244.114 224.871 239.046C224.871 237.708 225.458 237.045 226.742 236.857C231.264 236.198 235.785 235.539 240.327 234.877C240.903 234.801 241.283 234.681 241.449 233.985C242.631 228.947 244.619 224.224 247.269 219.783C247.525 219.335 247.557 219.039 247.226 218.614C244.413 214.988 241.664 211.363 238.88 207.727C237.935 206.497 237.979 205.67 239.072 204.567C242.576 201.004 246.07 197.419 249.585 193.882C250.54 192.936 251.558 192.911 252.635 193.677C256.348 196.351 260.042 199.043 263.722 201.758C263.992 201.959 264.686 201.985 264.974 201.795C269.648 198.882 274.684 196.768 280.062 195.488C280.695 195.333 280.923 195.04 281.018 194.409C281.659 189.866 282.323 185.341 282.983 180.791C283.171 179.549 283.854 178.963 285.138 178.963C290.254 178.963 295.348 178.963 300.47 178.963ZM292.805 278.952C310.726 278.952 325.251 264.483 325.251 246.638C325.251 228.794 310.726 214.325 292.805 214.325C274.902 214.325 260.368 228.794 260.368 246.638C260.368 264.483 274.902 278.952 292.805 278.952ZM300.47 170.762H285.144C279.781 170.762 275.639 174.295 274.844 179.564C274.396 182.651 273.932 185.734 273.502 188.821C270.55 189.786 267.669 190.985 264.881 192.415C262.551 190.713 260.096 188.932 257.469 187.03C253.158 183.915 247.553 184.332 243.784 188.066C241.323 190.541 233.188 198.825 233.188 198.825C229.265 202.801 228.927 208.254 232.346 212.708C232.346 212.708 236.787 218.531 237.841 219.904C236.635 222.346 235.606 224.85 234.766 227.394C231.69 227.845 228.623 228.293 225.54 228.741C220.227 229.507 216.641 233.647 216.641 239.048V254.229C216.641 259.641 220.234 263.78 225.593 264.54C228.627 264.984 231.696 265.431 234.764 265.873C235.729 268.799 236.942 271.662 238.384 274.444C237.149 276.121 233.004 281.796 233.004 281.796C229.651 286.324 230.08 291.645 234.154 295.635C237.71 299.119 241.279 302.593 244.843 306.068C248.771 309.837 254.432 310.2 258.751 306.865C258.751 306.865 263.835 303.027 265.97 301.4C268.408 302.601 270.926 303.624 273.5 304.456C273.807 306.622 274.834 313.593 274.834 313.593C275.635 318.949 279.778 322.517 285.144 322.517H300.472C305.826 322.517 309.96 318.981 310.762 313.712C311.216 310.614 311.669 307.537 312.114 304.459C315.054 303.498 317.926 302.294 320.721 300.862C322.087 301.855 328.028 306.183 328.035 306.187C332.535 309.465 338.185 308.971 342.05 304.991C345.483 301.505 348.947 297.986 352.418 294.452C356.348 290.494 356.69 285.034 353.265 280.572C353.265 280.572 348.886 274.834 347.767 273.374C348.978 270.933 349.999 268.43 350.85 265.876C353.919 265.439 357.002 264.988 360.076 264.539C365.39 263.763 368.966 259.656 368.966 254.318C368.968 249.207 368.968 244.077 368.966 238.96C368.966 233.631 365.385 229.523 360.052 228.745C356.983 228.3 353.908 227.852 350.838 227.404C349.873 224.471 348.665 221.609 347.224 218.832C348.421 217.201 352.601 211.488 352.601 211.488C355.937 206.983 355.477 201.522 351.395 197.605C347.891 194.169 344.329 190.691 340.765 187.216C336.868 183.437 331.194 183.103 326.88 186.393C325.079 187.765 319.788 191.953 319.635 191.877C317.193 190.683 314.684 189.661 312.11 188.822C311.669 185.769 311.219 182.717 310.762 179.665C310.004 174.352 305.861 170.762 300.47 170.762ZM292.805 270.744C279.464 270.744 268.61 259.931 268.61 246.638C268.61 233.345 279.464 222.533 292.805 222.533C306.156 222.533 317.013 233.345 317.013 246.638C317.013 259.931 306.156 270.744 292.805 270.744Z" fill="black"/>
<path d="M238.381 313.023C233.155 315.402 218.817 319.404 218.817 319.404L222.6 314.643C225.021 311.598 227.321 308.136 229.516 304.383C228.839 303.722 224.391 298.83 223.374 296.855C216.76 309.456 208.867 317.711 200.21 320.782L197.558 321.724V259.089C197.558 259.089 205.182 259.622 207.922 259.967C207.403 258.158 207.12 249.929 207.12 249.929C204.573 249.648 197.565 249.197 197.565 249.197L197.553 208.656H220.659C220.246 205.481 220.641 202.265 221.805 199.243H197.556V149.37L199.441 149.278C210.837 148.707 222.087 146.628 232.873 143.107L234.915 142.442L235.422 144.522C237.97 155.018 239.817 166.481 240.916 178.35C243.83 176.566 247.084 175.536 250.443 175.405L250.55 175.402C249.264 163.223 247.157 151.444 244.297 140.588L243.868 138.968L245.406 138.281C255.742 133.665 265.44 127.676 274.23 120.479L275.628 119.338L276.901 120.611C288.647 132.372 297.649 146.321 303.522 161.51C308.901 162.283 313.489 165.08 316.525 169.232C301.645 116.938 254.194 78.04 197.809 76.0249L188.104 76C121.075 78.5043 66.8218 132.517 64.4254 198.981L64.3901 208.66C65.5435 239.15 77.6018 268.244 98.3509 290.749C121.789 316.047 153.569 330.656 187.836 331.874L188.769 332L197.603 331.896C216.131 331.234 233.933 326.631 250.109 318.587C245.82 318.109 241.726 316.178 238.381 313.023ZM224.703 90.1278C239.638 94.2796 253.995 101.541 266.218 111.127L268.2 112.678L266.221 114.233C259.059 119.863 251.246 124.663 243.002 128.5L241.003 129.432L240.281 127.348C235.556 113.681 229.441 101.893 222.606 93.256L218.833 88.4935L224.703 90.1278ZM197.556 86.1752L200.217 87.1301C212.656 91.6099 223.805 107.205 231.61 131.038L232.224 132.905L230.35 133.532C220.446 136.821 210.119 138.784 199.656 139.374L197.558 139.493V86.1752H197.556ZM185.457 87.1286L188.119 86.1723V139.493L186.021 139.374C175.56 138.784 165.232 136.821 155.323 133.528L153.45 132.901L154.064 131.032C161.879 107.191 173.03 91.5996 185.457 87.1286ZM119.463 111.127C133.568 100.06 149.69 93.2692 166.863 88.4964C157.442 100.384 150.371 112.984 145.4 127.351L144.68 129.435L142.677 128.503C134.427 124.662 126.614 119.86 119.461 114.236L117.481 112.679L119.463 111.127ZM74.4385 197.159C76.0767 168.324 88.2702 141.142 108.774 120.618L110.048 119.34L111.442 120.481C120.22 127.658 129.92 133.651 140.274 138.279L141.809 138.967L141.38 140.591C137.691 154.066 135.651 167.933 134.554 181.842C134.457 183.077 133.64 199.249 133.675 199.249H74.3195L74.4385 197.159ZM105.154 283.532L103.822 282.026C86.9273 262.923 76.6116 238.591 74.6104 213.26C74.5458 212.422 74.3195 208.657 74.3195 208.657H133.675L133.724 210.59C134.119 227.499 136.023 243.786 139.38 258.99L139.724 260.536L138.286 261.207C126.761 266.589 116.119 273.646 106.646 282.184L105.154 283.532ZM160.977 317.778C143.602 312.947 127.287 304.046 113.796 292.031L112.14 290.555L113.796 289.082C121.734 282.014 130.562 276.041 140.043 271.344L142.168 270.291L142.835 272.56C147.905 289.81 154.902 304.364 163.071 314.647L166.859 319.414L160.977 317.778ZM188.121 321.731L185.469 320.785C171.383 315.779 159.324 297.144 151.52 268.313L151.042 266.549L152.767 265.934C163.435 262.115 174.627 259.852 186.027 259.208L188.124 259.089V321.731H188.121ZM188.121 249.197L186.235 249.292C174.146 249.909 162.261 252.199 150.916 256.111L148.757 256.856L148.316 254.623C145.575 240.766 144.003 225.979 143.649 210.679L143.599 208.656H188.119V249.197H188.121ZM143.599 199.246C143.368 199.246 145.234 164.39 150.241 144.535L150.75 142.449L152.789 143.119C163.584 146.628 174.832 148.703 186.227 149.281L188.112 149.378L188.121 199.246H143.599Z" fill="black"/>
</svg>
